<svg width="1476" height="465" viewBox="0 0 1476 465" fill="none" xmlns="http://www.w3.org/2000/svg">
<path d="M111.333 457.163V286.706H53.027V457.163H0V7.83709H53.027V171.763H111.333V7.83709H164.36V457.163H111.333Z" fill="white"/>
<path d="M337.839 276.257C337.839 337.648 330.721 384.452 316.484 416.671C302.248 448.89 282.013 465 255.779 465C229.546 465 209.231 448.89 194.834 416.671C180.598 384.452 173.479 337.648 173.479 276.257V7.83709H226.506V274.298C226.506 299.551 228.986 319.796 233.945 335.035C238.903 349.839 246.102 357.24 255.539 357.24C264.977 357.24 272.175 349.621 277.134 334.382C282.253 319.143 284.812 299.115 284.812 274.298V7.83709H337.839V276.257Z" fill="white"/>
<path d="M449.37 457.163L442.412 393.813H384.586L377.628 457.163H323.401L383.627 7.83709H445.291L505.517 457.163H449.37ZM395.624 293.237H431.375L414.099 133.23H413.139L395.624 293.237Z" fill="white"/>
<path d="M568.458 0C589.573 0 606.929 11.7556 620.525 35.2669C634.122 58.3427 641.08 92.7388 641.4 138.455V146.292H591.732V143.68C591.732 130.618 589.973 119.733 586.454 111.025C582.935 102.317 577.576 97.9635 570.378 97.9635C563.339 97.9635 557.901 100.794 554.062 106.454C550.383 112.114 548.543 119.08 548.543 127.353C548.543 139.108 551.102 147.816 556.221 153.476C561.34 159.136 569.578 165.014 580.935 171.11C594.212 178.511 605.089 186.348 613.567 194.621C622.205 202.458 629.723 215.52 636.122 233.806C642.52 252.093 645.799 276.91 645.959 308.258C645.959 361.376 639.321 400.78 626.044 426.468C612.927 452.156 595.332 465 573.257 465C547.503 465 527.428 453.244 513.032 429.733C498.795 406.222 491.677 364.642 491.677 304.993H541.825C541.825 327.633 543.984 342.872 548.303 350.709C552.622 358.111 559.34 361.812 568.458 361.812C575.176 361.812 580.695 359.853 585.014 355.934C589.493 352.016 591.732 343.961 591.732 331.77C591.732 320.885 589.253 312.83 584.294 307.605C579.495 301.945 571.577 296.067 560.54 289.972C547.103 282.135 535.986 274.08 527.188 265.808C518.39 257.1 510.712 242.949 504.154 223.357C497.596 203.764 494.316 177.205 494.316 143.68C494.316 94.4803 501.275 58.3427 515.191 35.2669C529.268 11.7556 547.023 0 568.458 0Z" fill="white"/>
<path d="M757.215 457.163V286.706H698.909V457.163H645.882V7.83709H698.909V171.763H757.215V7.83709H810.242V457.163H757.215Z" fill="white"/>
<path d="M821.761 457.163V7.83709H874.788V457.163H821.761Z" fill="white"/>
<path d="M1055.15 457.163H990.841L960.368 317.402H959.409L928.936 457.163H869.431L928.456 219.438L875.189 7.83709H939.253L964.207 122.781H965.167L990.361 7.83709H1049.63L996.12 220.091L1055.15 457.163Z" fill="white"/>
<path d="M1048.98 457.163V7.83709H1102.01V457.163H1048.98Z" fill="white"/>
<path d="M1224.06 457.163L1217.1 393.813H1159.28L1152.32 457.163H1098.09L1158.32 7.83709H1219.98L1280.21 457.163H1224.06ZM1170.32 293.237H1206.07L1188.79 133.23H1187.83L1170.32 293.237Z" fill="white"/>
<path d="M1343.39 349.403H1421.85V457.163H1261.81V410.794L1338.35 115.597H1267.57V7.83709H1419.93V54.2065L1343.39 349.403Z" fill="white"/>
<path d="M1422.97 457.163V7.83709H1476V457.163H1422.97Z" fill="white"/>
</svg>
