<svg width="492" height="54" viewBox="0 0 492 54" fill="none" xmlns="http://www.w3.org/2000/svg">
<mask id="path-1-outside-1_238_212" maskUnits="userSpaceOnUse" x="0" y="0" width="492" height="54" fill="black">
<rect fill="white" width="492" height="54"/>
<path d="M35.304 2.464C37.8 2.464 40.08 2.992 42.144 4.048C44.256 5.056 45.912 6.496 47.112 8.368C48.36 10.24 48.984 12.328 48.984 14.632C48.984 20.728 46.224 24.568 40.704 26.152V26.44C46.992 27.88 50.136 32.008 50.136 38.824C50.136 41.416 49.488 43.72 48.192 45.736C46.944 47.704 45.216 49.24 43.008 50.344C40.8 51.448 38.376 52 35.736 52H2.328V2.464H35.304ZM18.24 21.76H29.184C30.24 21.76 31.104 21.4 31.776 20.68C32.496 19.912 32.856 18.976 32.856 17.872V17.152C32.856 16.096 32.496 15.208 31.776 14.488C31.056 13.72 30.192 13.336 29.184 13.336H18.24V21.76ZM18.24 40.48H30.336C31.392 40.48 32.256 40.12 32.928 39.4C33.648 38.632 34.008 37.696 34.008 36.592V35.872C34.008 34.768 33.648 33.856 32.928 33.136C32.256 32.368 31.392 31.984 30.336 31.984H18.24V40.48ZM105.383 17.656C105.383 20.68 104.567 23.416 102.935 25.864C101.303 28.312 98.9271 30.112 95.8071 31.264L106.823 52H88.9671L80.1831 33.928H74.2791V52H58.3671V2.464H88.6791C92.2311 2.464 95.2551 3.16 97.7511 4.552C100.295 5.896 102.191 7.744 103.439 10.096C104.735 12.4 105.383 14.92 105.383 17.656ZM89.1831 18.304C89.1831 17.008 88.7511 15.928 87.8871 15.064C87.0231 14.2 85.9671 13.768 84.7191 13.768H74.2791V22.912H84.7191C85.9671 22.912 87.0231 22.48 87.8871 21.616C88.7511 20.704 89.1831 19.6 89.1831 18.304ZM147.598 52L145.51 45.016H128.158L126.07 52H109.798L127.87 2.464H146.374L164.446 52H147.598ZM131.47 33.928H142.198L137.014 16.288H136.726L131.47 33.928ZM205.869 52L185.061 27.952V52H170.445V2.464H184.341L205.149 26.872V2.464H219.765V52H205.869ZM251.878 2.464C269.206 2.464 277.87 10.72 277.87 27.232C277.87 43.744 269.206 52 251.878 52H230.422V2.464H251.878ZM246.334 40.12H251.59C258.262 40.12 261.598 36.544 261.598 29.392V25.072C261.598 17.92 258.262 14.344 251.59 14.344H246.334V40.12ZM345.861 52L325.053 27.952V52H310.437V2.464H324.333L345.141 26.872V2.464H359.757V52H345.861ZM370.414 2.464H413.254V14.344H386.326V21.184H409.366V32.56H386.326V40.12H413.758V52H370.414V2.464ZM459.599 52L453.191 21.832H452.903L446.495 52H428.999L417.407 2.464H433.967L439.655 30.544H439.943L445.559 2.464H461.255L467.231 30.544H467.519L472.847 2.464H488.687L477.095 52H459.599Z"/>
</mask>
<path d="M42.144 4.048L41.2331 5.8285L41.2576 5.84107L41.2825 5.85296L42.144 4.048ZM47.112 8.368L45.4282 9.44733L45.4379 9.46246L45.4479 9.4774L47.112 8.368ZM40.704 26.152L40.1524 24.2296L38.704 24.6452V26.152H40.704ZM40.704 26.44H38.704V28.0338L40.2575 28.3895L40.704 26.44ZM48.192 45.736L46.5096 44.6545L46.503 44.6649L48.192 45.736ZM2.328 52H0.328V54H2.328V52ZM2.328 2.464V0.463999H0.328V2.464H2.328ZM18.24 21.76H16.24V23.76H18.24V21.76ZM31.776 20.68L30.3169 19.3121L30.3139 19.3154L31.776 20.68ZM31.776 14.488L30.3169 15.8559L30.339 15.8794L30.3618 15.9022L31.776 14.488ZM18.24 13.336V11.336H16.24V13.336H18.24ZM18.24 40.48H16.24V42.48H18.24V40.48ZM32.928 39.4L31.4689 38.0321L31.4659 38.0354L32.928 39.4ZM32.928 33.136L31.4228 34.453L31.4667 34.5031L31.5138 34.5502L32.928 33.136ZM18.24 31.984V29.984H16.24V31.984H18.24ZM35.304 2.464V4.464C37.5081 4.464 39.4723 4.92766 41.2331 5.8285L42.144 4.048L43.055 2.2675C40.6877 1.05633 38.0919 0.463999 35.304 0.463999V2.464ZM42.144 4.048L41.2825 5.85296C43.0766 6.70924 44.4401 7.90589 45.4282 9.44733L47.112 8.368L48.7958 7.28867C47.3839 5.08611 45.4354 3.40276 43.0055 2.24304L42.144 4.048ZM47.112 8.368L45.4479 9.4774C46.4714 11.0126 46.984 12.7128 46.984 14.632H48.984H50.984C50.984 11.9432 50.2487 9.46743 48.7761 7.2586L47.112 8.368ZM48.984 14.632H46.984C46.984 17.3822 46.3633 19.4235 45.29 20.9167C44.225 22.3984 42.5757 23.5342 40.1524 24.2296L40.704 26.152L41.2557 28.0744C44.3523 27.1858 46.843 25.6096 48.538 23.2513C50.2248 20.9045 50.984 17.9778 50.984 14.632H48.984ZM40.704 26.152H38.704V26.44H40.704H42.704V26.152H40.704ZM40.704 26.44L40.2575 28.3895C43.0598 29.0313 44.9622 30.2197 46.1869 31.8278C47.421 33.4482 48.136 35.7165 48.136 38.824H50.136H52.136C52.136 35.1155 51.279 31.9118 49.3691 29.4042C47.4498 26.8843 44.6362 25.2887 41.1505 24.4905L40.704 26.44ZM50.136 38.824H48.136C48.136 41.0651 47.5813 42.9874 46.5096 44.6545L48.192 45.736L49.8744 46.8175C51.3947 44.4526 52.136 41.7669 52.136 38.824H50.136ZM48.192 45.736L46.503 44.6649C45.4614 46.3074 44.0165 47.6037 42.1136 48.5551L43.008 50.344L43.9024 52.1329C46.4155 50.8763 48.4266 49.1006 49.881 46.8071L48.192 45.736ZM43.008 50.344L42.1136 48.5551C40.2024 49.5107 38.0876 50 35.736 50V52V54C38.6644 54 41.3976 53.3853 43.9024 52.1329L43.008 50.344ZM35.736 52V50H2.328V52V54H35.736V52ZM2.328 52H4.328V2.464H2.328H0.328V52H2.328ZM2.328 2.464V4.464H35.304V2.464V0.463999H2.328V2.464ZM18.24 21.76V23.76H29.184V21.76V19.76H18.24V21.76ZM29.184 21.76V23.76C30.7496 23.76 32.1583 23.2015 33.2381 22.0446L31.776 20.68L30.3139 19.3154C30.0497 19.5985 29.7304 19.76 29.184 19.76V21.76ZM31.776 20.68L33.2351 22.0479C34.3208 20.8898 34.856 19.4568 34.856 17.872H32.856H30.856C30.856 18.4952 30.6712 18.9342 30.3169 19.3121L31.776 20.68ZM32.856 17.872H34.856V17.152H32.856H30.856V17.872H32.856ZM32.856 17.152H34.856C34.856 15.5875 34.3005 14.1841 33.1902 13.0738L31.776 14.488L30.3618 15.9022C30.6915 16.2319 30.856 16.6045 30.856 17.152H32.856ZM31.776 14.488L33.2351 13.1201C32.1559 11.969 30.7718 11.336 29.184 11.336V13.336V15.336C29.6122 15.336 29.9561 15.471 30.3169 15.8559L31.776 14.488ZM29.184 13.336V11.336H18.24V13.336V15.336H29.184V13.336ZM18.24 13.336H16.24V21.76H18.24H20.24V13.336H18.24ZM18.24 40.48V42.48H30.336V40.48V38.48H18.24V40.48ZM30.336 40.48V42.48C31.9016 42.48 33.3103 41.9215 34.3901 40.7646L32.928 39.4L31.4659 38.0354C31.2017 38.3185 30.8824 38.48 30.336 38.48V40.48ZM32.928 39.4L34.3871 40.7679C35.4728 39.6098 36.008 38.1768 36.008 36.592H34.008H32.008C32.008 37.2152 31.8232 37.6542 31.4689 38.0321L32.928 39.4ZM34.008 36.592H36.008V35.872H34.008H32.008V36.592H34.008ZM34.008 35.872H36.008C36.008 34.2869 35.4708 32.8503 34.3422 31.7218L32.928 33.136L31.5138 34.5502C31.8252 34.8617 32.008 35.2491 32.008 35.872H34.008ZM32.928 33.136L34.4332 31.819C33.3665 30.6 31.9458 29.984 30.336 29.984V31.984V33.984C30.8382 33.984 31.1455 34.136 31.4228 34.453L32.928 33.136ZM30.336 31.984V29.984H18.24V31.984V33.984H30.336V31.984ZM18.24 31.984H16.24V40.48H18.24H20.24V31.984H18.24ZM102.935 25.864L101.271 24.7546L102.935 25.864ZM95.8071 31.264L95.1143 29.3878L92.9669 30.1807L94.0408 32.2023L95.8071 31.264ZM106.823 52V54H110.15L108.589 51.0617L106.823 52ZM88.9671 52L87.1683 52.8743L87.7154 54H88.9671V52ZM80.1831 33.928L81.9818 33.0537L81.4347 31.928H80.1831V33.928ZM74.2791 33.928V31.928H72.2791V33.928H74.2791ZM74.2791 52V54H76.2791V52H74.2791ZM58.3671 52H56.3671V54H58.3671V52ZM58.3671 2.464V0.463999H56.3671V2.464H58.3671ZM97.7511 4.552L96.7769 6.29873L96.7968 6.30978L96.8168 6.32038L97.7511 4.552ZM103.439 10.096L101.672 11.0334L101.684 11.0551L101.696 11.0765L103.439 10.096ZM87.8871 15.064L86.4729 16.4782V16.4782L87.8871 15.064ZM74.2791 13.768V11.768H72.2791V13.768H74.2791ZM74.2791 22.912H72.2791V24.912H74.2791V22.912ZM87.8871 21.616L89.3013 23.0302L89.3204 23.0111L89.339 22.9915L87.8871 21.616ZM105.383 17.656H103.383C103.383 20.2968 102.678 22.6447 101.271 24.7546L102.935 25.864L104.599 26.9734C106.457 24.1873 107.383 21.0632 107.383 17.656H105.383ZM102.935 25.864L101.271 24.7546C99.9036 26.8057 97.8916 28.3623 95.1143 29.3878L95.8071 31.264L96.4998 33.1402C99.9625 31.8617 102.703 29.8183 104.599 26.9734L102.935 25.864ZM95.8071 31.264L94.0408 32.2023L105.057 52.9383L106.823 52L108.589 51.0617L97.5733 30.3257L95.8071 31.264ZM106.823 52V50H88.9671V52V54H106.823V52ZM88.9671 52L90.7658 51.1257L81.9818 33.0537L80.1831 33.928L78.3843 34.8023L87.1683 52.8743L88.9671 52ZM80.1831 33.928V31.928H74.2791V33.928V35.928H80.1831V33.928ZM74.2791 33.928H72.2791V52H74.2791H76.2791V33.928H74.2791ZM74.2791 52V50H58.3671V52V54H74.2791V52ZM58.3671 52H60.3671V2.464H58.3671H56.3671V52H58.3671ZM58.3671 2.464V4.464H88.6791V2.464V0.463999H58.3671V2.464ZM88.6791 2.464V4.464C91.9718 4.464 94.6428 5.10854 96.7769 6.29873L97.7511 4.552L98.7252 2.80527C95.8673 1.21146 92.4903 0.463999 88.6791 0.463999V2.464ZM97.7511 4.552L96.8168 6.32038C99.0363 7.49293 100.628 9.06439 101.672 11.0334L103.439 10.096L105.206 9.15857C103.755 6.4236 101.554 4.29906 98.6853 2.78361L97.7511 4.552ZM103.439 10.096L101.696 11.0765C102.817 13.0704 103.383 15.2509 103.383 17.656H105.383H107.383C107.383 14.589 106.653 11.7296 105.182 9.11548L103.439 10.096ZM89.1831 18.304H91.1831C91.1831 16.5133 90.5649 14.9134 89.3013 13.6498L87.8871 15.064L86.4729 16.4782C86.9373 16.9426 87.1831 17.5027 87.1831 18.304H89.1831ZM87.8871 15.064L89.3013 13.6498C88.0533 12.4018 86.4848 11.768 84.7191 11.768V13.768V15.768C85.4493 15.768 85.9928 15.9982 86.4729 16.4782L87.8871 15.064ZM84.7191 13.768V11.768H74.2791V13.768V15.768H84.7191V13.768ZM74.2791 13.768H72.2791V22.912H74.2791H76.2791V13.768H74.2791ZM74.2791 22.912V24.912H84.7191V22.912V20.912H74.2791V22.912ZM84.7191 22.912V24.912C86.4848 24.912 88.0533 24.2782 89.3013 23.0302L87.8871 21.616L86.4729 20.2018C85.9928 20.6818 85.4493 20.912 84.7191 20.912V22.912ZM87.8871 21.616L89.339 22.9915C90.5671 21.6952 91.1831 20.0938 91.1831 18.304H89.1831H87.1831C87.1831 19.1062 86.9351 19.7128 86.4352 20.2405L87.8871 21.616ZM147.598 52L145.682 52.5729L146.109 54H147.598V52ZM145.51 45.016L147.426 44.4431L147 43.016H145.51V45.016ZM128.158 45.016V43.016H126.669L126.242 44.4431L128.158 45.016ZM126.07 52V54H127.56L127.986 52.5729L126.07 52ZM109.798 52L107.919 51.3145L106.94 54H109.798V52ZM127.87 2.464V0.463999H126.471L125.991 1.77854L127.87 2.464ZM146.374 2.464L148.253 1.77854L147.773 0.463999H146.374V2.464ZM164.446 52V54H167.305L166.325 51.3145L164.446 52ZM131.47 33.928L129.553 33.3569L128.787 35.928H131.47V33.928ZM142.198 33.928V35.928H144.87L144.117 33.3641L142.198 33.928ZM137.014 16.288L138.933 15.7241L138.511 14.288H137.014V16.288ZM136.726 16.288V14.288H135.235L134.809 15.7169L136.726 16.288ZM147.598 52L149.514 51.4271L147.426 44.4431L145.51 45.016L143.594 45.5889L145.682 52.5729L147.598 52ZM145.51 45.016V43.016H128.158V45.016V47.016H145.51V45.016ZM128.158 45.016L126.242 44.4431L124.154 51.4271L126.07 52L127.986 52.5729L130.074 45.5889L128.158 45.016ZM126.07 52V50H109.798V52V54H126.07V52ZM109.798 52L111.677 52.6855L129.749 3.14946L127.87 2.464L125.991 1.77854L107.919 51.3145L109.798 52ZM127.87 2.464V4.464H146.374V2.464V0.463999H127.87V2.464ZM146.374 2.464L144.495 3.14946L162.567 52.6855L164.446 52L166.325 51.3145L148.253 1.77854L146.374 2.464ZM164.446 52V50H147.598V52V54H164.446V52ZM131.47 33.928V35.928H142.198V33.928V31.928H131.47V33.928ZM142.198 33.928L144.117 33.3641L138.933 15.7241L137.014 16.288L135.095 16.8519L140.279 34.4919L142.198 33.928ZM137.014 16.288V14.288H136.726V16.288V18.288H137.014V16.288ZM136.726 16.288L134.809 15.7169L129.553 33.3569L131.47 33.928L133.387 34.4991L138.643 16.8591L136.726 16.288ZM205.869 52L204.357 53.3087L204.955 54H205.869V52ZM185.061 27.952L186.574 26.6433L183.061 22.584V27.952H185.061ZM185.061 52V54H187.061V52H185.061ZM170.445 52H168.445V54H170.445V52ZM170.445 2.464V0.463999H168.445V2.464H170.445ZM184.341 2.464L185.863 1.16649L185.264 0.463999H184.341V2.464ZM205.149 26.872L203.627 28.1695L207.149 32.3008V26.872H205.149ZM205.149 2.464V0.463999H203.149V2.464H205.149ZM219.765 2.464H221.765V0.463999H219.765V2.464ZM219.765 52V54H221.765V52H219.765ZM205.869 52L207.382 50.6913L186.574 26.6433L185.061 27.952L183.549 29.2607L204.357 53.3087L205.869 52ZM185.061 27.952H183.061V52H185.061H187.061V27.952H185.061ZM185.061 52V50H170.445V52V54H185.061V52ZM170.445 52H172.445V2.464H170.445H168.445V52H170.445ZM170.445 2.464V4.464H184.341V2.464V0.463999H170.445V2.464ZM184.341 2.464L182.819 3.76151L203.627 28.1695L205.149 26.872L206.671 25.5745L185.863 1.16649L184.341 2.464ZM205.149 26.872H207.149V2.464H205.149H203.149V26.872H205.149ZM205.149 2.464V4.464H219.765V2.464V0.463999H205.149V2.464ZM219.765 2.464H217.765V52H219.765H221.765V2.464H219.765ZM219.765 52V50H205.869V52V54H219.765V52ZM230.422 52H228.422V54H230.422V52ZM230.422 2.464V0.463999H228.422V2.464H230.422ZM246.334 40.12H244.334V42.12H246.334V40.12ZM246.334 14.344V12.344H244.334V14.344H246.334ZM251.878 2.464V4.464C260.257 4.464 266.17 6.46177 269.992 10.1039C273.796 13.7288 275.87 19.3095 275.87 27.232H277.87H279.87C279.87 18.6425 277.611 11.8392 272.751 7.20811C267.91 2.59422 260.827 0.463999 251.878 0.463999V2.464ZM277.87 27.232H275.87C275.87 35.1545 273.796 40.7352 269.992 44.3601C266.17 48.0022 260.257 50 251.878 50V52V54C260.827 54 267.91 51.8698 272.751 47.2559C277.611 42.6248 279.87 35.8215 279.87 27.232H277.87ZM251.878 52V50H230.422V52V54H251.878V52ZM230.422 52H232.422V2.464H230.422H228.422V52H230.422ZM230.422 2.464V4.464H251.878V2.464V0.463999H230.422V2.464ZM246.334 40.12V42.12H251.59V40.12V38.12H246.334V40.12ZM251.59 40.12V42.12C255.271 42.12 258.39 41.1269 260.558 38.8023C262.702 36.5038 263.598 33.2431 263.598 29.392H261.598H259.598C259.598 32.6929 258.825 34.7962 257.633 36.0737C256.466 37.3251 254.581 38.12 251.59 38.12V40.12ZM261.598 29.392H263.598V25.072H261.598H259.598V29.392H261.598ZM261.598 25.072H263.598C263.598 21.2209 262.702 17.9602 260.558 15.6617C258.39 13.3371 255.271 12.344 251.59 12.344V14.344V16.344C254.581 16.344 256.466 17.1389 257.633 18.3903C258.825 19.6678 259.598 21.7711 259.598 25.072H261.598ZM251.59 14.344V12.344H246.334V14.344V16.344H251.59V14.344ZM246.334 14.344H244.334V40.12H246.334H248.334V14.344H246.334ZM345.861 52L344.349 53.3087L344.947 54H345.861V52ZM325.053 27.952L326.566 26.6433L323.053 22.584V27.952H325.053ZM325.053 52V54H327.053V52H325.053ZM310.437 52H308.437V54H310.437V52ZM310.437 2.464V0.463999H308.437V2.464H310.437ZM324.333 2.464L325.855 1.16649L325.257 0.463999H324.333V2.464ZM345.141 26.872L343.619 28.1695L347.141 32.3008V26.872H345.141ZM345.141 2.464V0.463999H343.141V2.464H345.141ZM359.757 2.464H361.757V0.463999H359.757V2.464ZM359.757 52V54H361.757V52H359.757ZM345.861 52L347.374 50.6913L326.566 26.6433L325.053 27.952L323.541 29.2607L344.349 53.3087L345.861 52ZM325.053 27.952H323.053V52H325.053H327.053V27.952H325.053ZM325.053 52V50H310.437V52V54H325.053V52ZM310.437 52H312.437V2.464H310.437H308.437V52H310.437ZM310.437 2.464V4.464H324.333V2.464V0.463999H310.437V2.464ZM324.333 2.464L322.811 3.76151L343.619 28.1695L345.141 26.872L346.663 25.5745L325.855 1.16649L324.333 2.464ZM345.141 26.872H347.141V2.464H345.141H343.141V26.872H345.141ZM345.141 2.464V4.464H359.757V2.464V0.463999H345.141V2.464ZM359.757 2.464H357.757V52H359.757H361.757V2.464H359.757ZM359.757 52V50H345.861V52V54H359.757V52ZM370.414 2.464V0.463999H368.414V2.464H370.414ZM413.254 2.464H415.254V0.463999H413.254V2.464ZM413.254 14.344V16.344H415.254V14.344H413.254ZM386.326 14.344V12.344H384.326V14.344H386.326ZM386.326 21.184H384.326V23.184H386.326V21.184ZM409.366 21.184H411.366V19.184H409.366V21.184ZM409.366 32.56V34.56H411.366V32.56H409.366ZM386.326 32.56V30.56H384.326V32.56H386.326ZM386.326 40.12H384.326V42.12H386.326V40.12ZM413.758 40.12H415.758V38.12H413.758V40.12ZM413.758 52V54H415.758V52H413.758ZM370.414 52H368.414V54H370.414V52ZM370.414 2.464V4.464H413.254V2.464V0.463999H370.414V2.464ZM413.254 2.464H411.254V14.344H413.254H415.254V2.464H413.254ZM413.254 14.344V12.344H386.326V14.344V16.344H413.254V14.344ZM386.326 14.344H384.326V21.184H386.326H388.326V14.344H386.326ZM386.326 21.184V23.184H409.366V21.184V19.184H386.326V21.184ZM409.366 21.184H407.366V32.56H409.366H411.366V21.184H409.366ZM409.366 32.56V30.56H386.326V32.56V34.56H409.366V32.56ZM386.326 32.56H384.326V40.12H386.326H388.326V32.56H386.326ZM386.326 40.12V42.12H413.758V40.12V38.12H386.326V40.12ZM413.758 40.12H411.758V52H413.758H415.758V40.12H413.758ZM413.758 52V50H370.414V52V54H413.758V52ZM370.414 52H372.414V2.464H370.414H368.414V52H370.414ZM459.599 52L457.643 52.4156L457.979 54H459.599V52ZM453.191 21.832L455.147 21.4164L454.811 19.832H453.191V21.832ZM452.903 21.832V19.832H451.283L450.947 21.4164L452.903 21.832ZM446.495 52V54H448.115L448.451 52.4156L446.495 52ZM428.999 52L427.051 52.4557L427.413 54H428.999V52ZM417.407 2.464V0.463999H414.885L415.459 2.91971L417.407 2.464ZM433.967 2.464L435.927 2.06693L435.602 0.463999H433.967V2.464ZM439.655 30.544L437.695 30.9411L438.019 32.544H439.655V30.544ZM439.943 30.544V32.544H441.582L441.904 30.9362L439.943 30.544ZM445.559 2.464V0.463999H443.919L443.598 2.07177L445.559 2.464ZM461.255 2.464L463.211 2.04768L462.874 0.463999H461.255V2.464ZM467.231 30.544L465.275 30.9603L465.612 32.544H467.231V30.544ZM467.519 30.544V32.544H469.175L469.484 30.9168L467.519 30.544ZM472.847 2.464V0.463999H471.191L470.882 2.09116L472.847 2.464ZM488.687 2.464L490.634 2.91971L491.209 0.463999H488.687V2.464ZM477.095 52V54H478.681L479.042 52.4557L477.095 52ZM459.599 52L461.555 51.5844L455.147 21.4164L453.191 21.832L451.235 22.2475L457.643 52.4156L459.599 52ZM453.191 21.832V19.832H452.903V21.832V23.832H453.191V21.832ZM452.903 21.832L450.947 21.4164L444.539 51.5844L446.495 52L448.451 52.4156L454.859 22.2475L452.903 21.832ZM446.495 52V50H428.999V52V54H446.495V52ZM428.999 52L430.946 51.5443L419.354 2.00829L417.407 2.464L415.459 2.91971L427.051 52.4557L428.999 52ZM417.407 2.464V4.464H433.967V2.464V0.463999H417.407V2.464ZM433.967 2.464L432.007 2.86106L437.695 30.9411L439.655 30.544L441.615 30.1469L435.927 2.06693L433.967 2.464ZM439.655 30.544V32.544H439.943V30.544V28.544H439.655V30.544ZM439.943 30.544L441.904 30.9362L447.52 2.85623L445.559 2.464L443.598 2.07177L437.982 30.1518L439.943 30.544ZM445.559 2.464V4.464H461.255V2.464V0.463999H445.559V2.464ZM461.255 2.464L459.299 2.88032L465.275 30.9603L467.231 30.544L469.187 30.1277L463.211 2.04768L461.255 2.464ZM467.231 30.544V32.544H467.519V30.544V28.544H467.231V30.544ZM467.519 30.544L469.484 30.9168L474.812 2.83683L472.847 2.464L470.882 2.09116L465.554 30.1712L467.519 30.544ZM472.847 2.464V4.464H488.687V2.464V0.463999H472.847V2.464ZM488.687 2.464L486.74 2.00829L475.147 51.5443L477.095 52L479.042 52.4557L490.634 2.91971L488.687 2.464ZM477.095 52V50H459.599V52V54H477.095V52Z" fill="white" mask="url(#path-1-outside-1_238_212)"/>
</svg>
