<svg width="642" height="88" viewBox="0 0 642 88" fill="none" xmlns="http://www.w3.org/2000/svg">
<mask id="path-1-outside-1_70_1102" maskUnits="userSpaceOnUse" x="110.5" y="15" width="527" height="56" fill="black">
<rect fill="white" x="110.5" y="15" width="527" height="56"/>
<path d="M146.236 68V49.208H128.74V68H112.828V18.464H128.74V36.536H146.236V18.464H162.148V68H146.236ZM222.125 48.056C222.125 54.824 219.989 59.984 215.717 63.536C211.445 67.088 205.373 68.864 197.501 68.864C189.629 68.864 183.533 67.088 179.213 63.536C174.941 59.984 172.805 54.824 172.805 48.056V18.464H188.717V47.84C188.717 50.624 189.461 52.856 190.949 54.536C192.437 56.168 194.597 56.984 197.429 56.984C200.261 56.984 202.421 56.144 203.909 54.464C205.445 52.784 206.213 50.576 206.213 47.84V18.464H222.125V48.056ZM263.512 68L261.424 61.016H244.072L241.984 68H225.712L243.784 18.464H262.288L280.36 68H263.512ZM247.384 49.928H258.112L252.928 32.288H252.64L247.384 49.928ZM307.167 17.6C313.503 17.6 318.711 18.896 322.791 21.488C326.871 24.032 328.959 27.824 329.055 32.864V33.728H314.151V33.44C314.151 32 313.623 30.8 312.567 29.84C311.511 28.88 309.903 28.4 307.743 28.4C305.631 28.4 303.999 28.712 302.847 29.336C301.743 29.96 301.191 30.728 301.191 31.64C301.191 32.936 301.959 33.896 303.495 34.52C305.031 35.144 307.503 35.792 310.911 36.464C314.895 37.28 318.159 38.144 320.703 39.056C323.295 39.92 325.551 41.36 327.471 43.376C329.391 45.392 330.375 48.128 330.423 51.584C330.423 57.44 328.431 61.784 324.447 64.616C320.511 67.448 315.231 68.864 308.607 68.864C300.879 68.864 294.855 67.568 290.535 64.976C286.263 62.384 284.127 57.8 284.127 51.224H299.175C299.175 53.72 299.823 55.4 301.119 56.264C302.415 57.08 304.431 57.488 307.167 57.488C309.183 57.488 310.839 57.272 312.135 56.84C313.479 56.408 314.151 55.52 314.151 54.176C314.151 52.976 313.407 52.088 311.919 51.512C310.479 50.888 308.103 50.24 304.791 49.568C300.759 48.704 297.423 47.816 294.783 46.904C292.143 45.944 289.839 44.384 287.871 42.224C285.903 40.064 284.919 37.136 284.919 33.44C284.919 28.016 287.007 24.032 291.183 21.488C295.407 18.896 300.735 17.6 307.167 17.6ZM371.728 68V49.208H354.232V68H338.32V18.464H354.232V36.536H371.728V18.464H387.64V68H371.728ZM399.017 68V18.464H414.929V68H399.017ZM476.969 68H457.673L448.529 52.592H448.241L439.097 68H421.241L438.953 41.792L422.969 18.464H442.193L449.681 31.136H449.969L457.529 18.464H475.313L459.257 41.864L476.969 68ZM483.04 68V18.464H498.952V68H483.04ZM543.497 68L541.409 61.016H524.057L521.969 68H505.697L523.769 18.464H542.273L560.345 68H543.497ZM527.369 49.928H538.097L532.913 32.288H532.625L527.369 49.928ZM587.224 56.12H610.768V68H562.744V62.888L585.712 30.344H564.472V18.464H610.192V23.576L587.224 56.12ZM619.025 68V18.464H634.937V68H619.025Z"/>
</mask>
<path d="M146.236 68V49.208H128.74V68H112.828V18.464H128.74V36.536H146.236V18.464H162.148V68H146.236ZM222.125 48.056C222.125 54.824 219.989 59.984 215.717 63.536C211.445 67.088 205.373 68.864 197.501 68.864C189.629 68.864 183.533 67.088 179.213 63.536C174.941 59.984 172.805 54.824 172.805 48.056V18.464H188.717V47.84C188.717 50.624 189.461 52.856 190.949 54.536C192.437 56.168 194.597 56.984 197.429 56.984C200.261 56.984 202.421 56.144 203.909 54.464C205.445 52.784 206.213 50.576 206.213 47.84V18.464H222.125V48.056ZM263.512 68L261.424 61.016H244.072L241.984 68H225.712L243.784 18.464H262.288L280.36 68H263.512ZM247.384 49.928H258.112L252.928 32.288H252.64L247.384 49.928ZM307.167 17.6C313.503 17.6 318.711 18.896 322.791 21.488C326.871 24.032 328.959 27.824 329.055 32.864V33.728H314.151V33.44C314.151 32 313.623 30.8 312.567 29.84C311.511 28.88 309.903 28.4 307.743 28.4C305.631 28.4 303.999 28.712 302.847 29.336C301.743 29.96 301.191 30.728 301.191 31.64C301.191 32.936 301.959 33.896 303.495 34.52C305.031 35.144 307.503 35.792 310.911 36.464C314.895 37.28 318.159 38.144 320.703 39.056C323.295 39.92 325.551 41.36 327.471 43.376C329.391 45.392 330.375 48.128 330.423 51.584C330.423 57.44 328.431 61.784 324.447 64.616C320.511 67.448 315.231 68.864 308.607 68.864C300.879 68.864 294.855 67.568 290.535 64.976C286.263 62.384 284.127 57.8 284.127 51.224H299.175C299.175 53.72 299.823 55.4 301.119 56.264C302.415 57.08 304.431 57.488 307.167 57.488C309.183 57.488 310.839 57.272 312.135 56.84C313.479 56.408 314.151 55.52 314.151 54.176C314.151 52.976 313.407 52.088 311.919 51.512C310.479 50.888 308.103 50.24 304.791 49.568C300.759 48.704 297.423 47.816 294.783 46.904C292.143 45.944 289.839 44.384 287.871 42.224C285.903 40.064 284.919 37.136 284.919 33.44C284.919 28.016 287.007 24.032 291.183 21.488C295.407 18.896 300.735 17.6 307.167 17.6ZM371.728 68V49.208H354.232V68H338.32V18.464H354.232V36.536H371.728V18.464H387.64V68H371.728ZM399.017 68V18.464H414.929V68H399.017ZM476.969 68H457.673L448.529 52.592H448.241L439.097 68H421.241L438.953 41.792L422.969 18.464H442.193L449.681 31.136H449.969L457.529 18.464H475.313L459.257 41.864L476.969 68ZM483.04 68V18.464H498.952V68H483.04ZM543.497 68L541.409 61.016H524.057L521.969 68H505.697L523.769 18.464H542.273L560.345 68H543.497ZM527.369 49.928H538.097L532.913 32.288H532.625L527.369 49.928ZM587.224 56.12H610.768V68H562.744V62.888L585.712 30.344H564.472V18.464H610.192V23.576L587.224 56.12ZM619.025 68V18.464H634.937V68H619.025Z" fill="white"/>
<path d="M146.236 68H144.236V70H146.236V68ZM146.236 49.208H148.236V47.208H146.236V49.208ZM128.74 49.208V47.208H126.74V49.208H128.74ZM128.74 68V70H130.74V68H128.74ZM112.828 68H110.828V70H112.828V68ZM112.828 18.464V16.464H110.828V18.464H112.828ZM128.74 18.464H130.74V16.464H128.74V18.464ZM128.74 36.536H126.74V38.536H128.74V36.536ZM146.236 36.536V38.536H148.236V36.536H146.236ZM146.236 18.464V16.464H144.236V18.464H146.236ZM162.148 18.464H164.148V16.464H162.148V18.464ZM162.148 68V70H164.148V68H162.148ZM146.236 68H148.236V49.208H146.236H144.236V68H146.236ZM146.236 49.208V47.208H128.74V49.208V51.208H146.236V49.208ZM128.74 49.208H126.74V68H128.74H130.74V49.208H128.74ZM128.74 68V66H112.828V68V70H128.74V68ZM112.828 68H114.828V18.464H112.828H110.828V68H112.828ZM112.828 18.464V20.464H128.74V18.464V16.464H112.828V18.464ZM128.74 18.464H126.74V36.536H128.74H130.74V18.464H128.74ZM128.74 36.536V38.536H146.236V36.536V34.536H128.74V36.536ZM146.236 36.536H148.236V18.464H146.236H144.236V36.536H146.236ZM146.236 18.464V20.464H162.148V18.464V16.464H146.236V18.464ZM162.148 18.464H160.148V68H162.148H164.148V18.464H162.148ZM162.148 68V66H146.236V68V70H162.148V68ZM215.717 63.536L214.438 61.9981L215.717 63.536ZM179.213 63.536L177.934 65.0739L177.942 65.0809L179.213 63.536ZM172.805 18.464V16.464H170.805V18.464H172.805ZM188.717 18.464H190.717V16.464H188.717V18.464ZM190.949 54.536L189.451 55.8621L189.461 55.8729L189.471 55.8835L190.949 54.536ZM203.909 54.464L202.433 53.1145L202.422 53.1261L202.411 53.1379L203.909 54.464ZM206.213 18.464V16.464H204.213V18.464H206.213ZM222.125 18.464H224.125V16.464H222.125V18.464ZM222.125 48.056H220.125C220.125 54.3721 218.154 58.9086 214.438 61.9981L215.717 63.536L216.995 65.0739C221.823 61.0594 224.125 55.2759 224.125 48.056H222.125ZM215.717 63.536L214.438 61.9981C210.649 65.1484 205.097 66.864 197.501 66.864V68.864V70.864C205.648 70.864 212.24 69.0276 216.995 65.0739L215.717 63.536ZM197.501 68.864V66.864C189.906 66.864 184.324 65.1492 180.483 61.9911L179.213 63.536L177.942 65.0809C182.742 69.0268 189.351 70.864 197.501 70.864V68.864ZM179.213 63.536L180.491 61.9981C176.775 58.9086 174.805 54.3721 174.805 48.056H172.805H170.805C170.805 55.2759 173.106 61.0594 177.934 65.0739L179.213 63.536ZM172.805 48.056H174.805V18.464H172.805H170.805V48.056H172.805ZM172.805 18.464V20.464H188.717V18.464V16.464H172.805V18.464ZM188.717 18.464H186.717V47.84H188.717H190.717V18.464H188.717ZM188.717 47.84H186.717C186.717 50.9904 187.567 53.7341 189.451 55.8621L190.949 54.536L192.446 53.2099C191.354 51.9779 190.717 50.2576 190.717 47.84H188.717ZM190.949 54.536L189.471 55.8835C191.438 58.0413 194.203 58.984 197.429 58.984V56.984V54.984C194.99 54.984 193.435 54.2947 192.426 53.1885L190.949 54.536ZM197.429 56.984V58.984C200.672 58.984 203.443 58.006 205.406 55.7901L203.909 54.464L202.411 53.1379C201.398 54.282 199.849 54.984 197.429 54.984V56.984ZM203.909 54.464L205.385 55.8135C207.323 53.6932 208.213 50.969 208.213 47.84H206.213H204.213C204.213 50.183 203.566 51.8748 202.433 53.1145L203.909 54.464ZM206.213 47.84H208.213V18.464H206.213H204.213V47.84H206.213ZM206.213 18.464V20.464H222.125V18.464V16.464H206.213V18.464ZM222.125 18.464H220.125V48.056H222.125H224.125V18.464H222.125ZM263.512 68L261.596 68.5729L262.023 70H263.512V68ZM261.424 61.016L263.34 60.4431L262.914 59.016H261.424V61.016ZM244.072 61.016V59.016H242.583L242.156 60.4431L244.072 61.016ZM241.984 68V70H243.474L243.9 68.5729L241.984 68ZM225.712 68L223.833 67.3145L222.854 70H225.712V68ZM243.784 18.464V16.464H242.385L241.905 17.7785L243.784 18.464ZM262.288 18.464L264.167 17.7785L263.687 16.464H262.288V18.464ZM280.36 68V70H283.219L282.239 67.3145L280.36 68ZM247.384 49.928L245.467 49.3569L244.701 51.928H247.384V49.928ZM258.112 49.928V51.928H260.785L260.031 49.3641L258.112 49.928ZM252.928 32.288L254.847 31.7241L254.425 30.288H252.928V32.288ZM252.64 32.288V30.288H251.149L250.723 31.7169L252.64 32.288ZM263.512 68L265.428 67.4271L263.34 60.4431L261.424 61.016L259.508 61.5889L261.596 68.5729L263.512 68ZM261.424 61.016V59.016H244.072V61.016V63.016H261.424V61.016ZM244.072 61.016L242.156 60.4431L240.068 67.4271L241.984 68L243.9 68.5729L245.988 61.5889L244.072 61.016ZM241.984 68V66H225.712V68V70H241.984V68ZM225.712 68L227.591 68.6855L245.663 19.1495L243.784 18.464L241.905 17.7785L223.833 67.3145L225.712 68ZM243.784 18.464V20.464H262.288V18.464V16.464H243.784V18.464ZM262.288 18.464L260.409 19.1495L278.481 68.6855L280.36 68L282.239 67.3145L264.167 17.7785L262.288 18.464ZM280.36 68V66H263.512V68V70H280.36V68ZM247.384 49.928V51.928H258.112V49.928V47.928H247.384V49.928ZM258.112 49.928L260.031 49.3641L254.847 31.7241L252.928 32.288L251.009 32.8519L256.193 50.4919L258.112 49.928ZM252.928 32.288V30.288H252.64V32.288V34.288H252.928V32.288ZM252.64 32.288L250.723 31.7169L245.467 49.3569L247.384 49.928L249.301 50.4991L254.557 32.8591L252.64 32.288ZM322.791 21.488L321.719 23.1761L321.726 23.1807L321.733 23.1851L322.791 21.488ZM329.055 32.864H331.055V32.845L331.055 32.8259L329.055 32.864ZM329.055 33.728V35.728H331.055V33.728H329.055ZM314.151 33.728H312.151V35.728H314.151V33.728ZM312.567 29.84L313.913 28.3601L312.567 29.84ZM302.847 29.336L301.895 27.5774L301.879 27.586L301.863 27.5949L302.847 29.336ZM303.495 34.52L304.248 32.6671L303.495 34.52ZM310.911 36.464L311.313 34.5047L311.305 34.5032L311.298 34.5018L310.911 36.464ZM320.703 39.056L320.028 40.9387L320.049 40.9463L320.071 40.9534L320.703 39.056ZM330.423 51.584H332.423V51.5701L332.423 51.5562L330.423 51.584ZM324.447 64.616L323.288 62.9859L323.279 62.9926L324.447 64.616ZM290.535 64.976L289.498 66.6859L289.506 66.691L290.535 64.976ZM284.127 51.224V49.224H282.127V51.224H284.127ZM299.175 51.224H301.175V49.224H299.175V51.224ZM301.119 56.264L300.01 57.9281L300.032 57.9426L300.054 57.9565L301.119 56.264ZM312.135 56.84L311.523 54.9359L311.513 54.9392L311.503 54.9426L312.135 56.84ZM311.919 51.512L311.124 53.3471L311.16 53.3628L311.197 53.3771L311.919 51.512ZM304.791 49.568L304.372 51.5236L304.383 51.5259L304.394 51.5281L304.791 49.568ZM294.783 46.904L294.1 48.7836L294.115 48.7891L294.13 48.7944L294.783 46.904ZM287.871 42.224L286.393 43.571L287.871 42.224ZM291.183 21.488L292.224 23.196L292.229 23.1926L291.183 21.488ZM307.167 17.6V19.6C313.239 19.6 318.045 20.8421 321.719 23.1761L322.791 21.488L323.864 19.7999C319.378 16.9499 313.767 15.6 307.167 15.6V17.6ZM322.791 21.488L321.733 23.1851C325.206 25.3507 326.972 28.4994 327.056 32.9021L329.055 32.864L331.055 32.8259C330.947 27.1486 328.536 22.7133 323.849 19.7909L322.791 21.488ZM329.055 32.864H327.055V33.728H329.055H331.055V32.864H329.055ZM329.055 33.728V31.728H314.151V33.728V35.728H329.055V33.728ZM314.151 33.728H316.151V33.44H314.151H312.151V33.728H314.151ZM314.151 33.44H316.151C316.151 31.4423 315.39 29.703 313.913 28.3601L312.567 29.84L311.222 31.3199C311.857 31.8969 312.151 32.5577 312.151 33.44H314.151ZM312.567 29.84L313.913 28.3601C312.339 26.9295 310.153 26.4 307.743 26.4V28.4V30.4C309.654 30.4 310.684 30.8305 311.222 31.3199L312.567 29.84ZM307.743 28.4V26.4C305.481 26.4 303.466 26.7264 301.895 27.5774L302.847 29.336L303.8 31.0946C304.533 30.6976 305.782 30.4 307.743 30.4V28.4ZM302.847 29.336L301.863 27.5949C300.407 28.4178 299.191 29.7379 299.191 31.64H301.191H303.191C303.191 31.6191 303.188 31.6046 303.229 31.5473C303.289 31.4645 303.45 31.2926 303.831 31.0771L302.847 29.336ZM301.191 31.64H299.191C299.191 32.7157 299.522 33.7266 300.206 34.5814C300.865 35.4055 301.764 35.9753 302.742 36.3729L303.495 34.52L304.248 32.6671C303.691 32.4407 303.438 32.2185 303.329 32.0826C303.245 31.9774 303.191 31.8603 303.191 31.64H301.191ZM303.495 34.52L302.742 36.3729C304.466 37.0731 307.096 37.7502 310.524 38.4262L310.911 36.464L311.298 34.5018C307.91 33.8338 305.597 33.2149 304.248 32.6671L303.495 34.52ZM310.911 36.464L310.51 38.4233C314.442 39.2288 317.606 40.0703 320.028 40.9387L320.703 39.056L321.378 37.1733C318.712 36.2177 315.348 35.3312 311.313 34.5047L310.911 36.464ZM320.703 39.056L320.071 40.9534C322.347 41.7119 324.324 42.9714 326.023 44.7553L327.471 43.376L328.92 41.9967C326.778 39.7486 324.244 38.1281 321.336 37.1586L320.703 39.056ZM327.471 43.376L326.023 44.7553C327.517 46.3236 328.381 48.5323 328.423 51.6118L330.423 51.584L332.423 51.5562C332.37 47.7237 331.266 44.4604 328.92 41.9967L327.471 43.376ZM330.423 51.584H328.423C328.423 56.9381 326.636 60.6062 323.288 62.9859L324.447 64.616L325.606 66.2461C330.226 62.9618 332.423 57.9419 332.423 51.584H330.423ZM324.447 64.616L323.279 62.9926C319.788 65.5045 314.962 66.864 308.607 66.864V68.864V70.864C315.5 70.864 321.235 69.3915 325.615 66.2394L324.447 64.616ZM308.607 68.864V66.864C301.064 66.864 295.45 65.5923 291.564 63.261L290.535 64.976L289.506 66.691C294.261 69.5437 300.695 70.864 308.607 70.864V68.864ZM290.535 64.976L291.573 63.2661C288.085 61.15 286.127 57.3513 286.127 51.224H284.127H282.127C282.127 58.2487 284.441 63.618 289.498 66.6859L290.535 64.976ZM284.127 51.224V53.224H299.175V51.224V49.224H284.127V51.224ZM299.175 51.224H297.175C297.175 53.9739 297.884 56.5107 300.01 57.9281L301.119 56.264L302.229 54.5999C301.763 54.2893 301.175 53.4661 301.175 51.224H299.175ZM301.119 56.264L300.054 57.9565C301.833 59.0765 304.311 59.488 307.167 59.488V57.488V55.488C304.551 55.488 302.998 55.0835 302.185 54.5715L301.119 56.264ZM307.167 57.488V59.488C309.306 59.488 311.196 59.2614 312.768 58.7374L312.135 56.84L311.503 54.9426C310.483 55.2826 309.061 55.488 307.167 55.488V57.488ZM312.135 56.84L312.747 58.7441C313.706 58.436 314.599 57.907 315.242 57.0569C315.892 56.1982 316.151 55.1911 316.151 54.176H314.151H312.151C312.151 54.5049 312.075 54.6138 312.052 54.6431C312.024 54.681 311.909 54.812 311.523 54.9359L312.135 56.84ZM314.151 54.176H316.151C316.151 53.1246 315.811 52.1434 315.126 51.3256C314.471 50.5432 313.587 50.013 312.641 49.6469L311.919 51.512L311.197 53.3771C311.739 53.587 311.972 53.7888 312.06 53.8944C312.119 53.9646 312.151 54.0274 312.151 54.176H314.151ZM311.919 51.512L312.714 49.6769C311.07 48.9642 308.518 48.2835 305.189 47.6079L304.791 49.568L304.394 51.5281C307.688 52.1965 309.889 52.8118 311.124 53.3471L311.919 51.512ZM304.791 49.568L305.21 47.6124C301.224 46.7582 297.973 45.8899 295.436 45.0136L294.783 46.904L294.13 48.7944C296.874 49.7421 300.294 50.6498 304.372 51.5236L304.791 49.568ZM294.783 46.904L295.467 45.0244C293.143 44.1795 291.109 42.8077 289.35 40.877L287.871 42.224L286.393 43.571C288.57 45.9603 291.143 47.7085 294.1 48.7836L294.783 46.904ZM287.871 42.224L289.35 40.877C287.799 39.1754 286.919 36.7746 286.919 33.44H284.919H282.919C282.919 37.4974 284.007 40.9526 286.393 43.571L287.871 42.224ZM284.919 33.44H286.919C286.919 28.6225 288.718 25.3319 292.224 23.196L291.183 21.488L290.143 19.78C285.297 22.7321 282.919 27.4095 282.919 33.44H284.919ZM291.183 21.488L292.229 23.1926C296.058 20.8433 300.997 19.6 307.167 19.6V17.6V15.6C300.474 15.6 294.757 16.9487 290.137 19.7834L291.183 21.488ZM371.728 68H369.728V70H371.728V68ZM371.728 49.208H373.728V47.208H371.728V49.208ZM354.232 49.208V47.208H352.232V49.208H354.232ZM354.232 68V70H356.232V68H354.232ZM338.32 68H336.32V70H338.32V68ZM338.32 18.464V16.464H336.32V18.464H338.32ZM354.232 18.464H356.232V16.464H354.232V18.464ZM354.232 36.536H352.232V38.536H354.232V36.536ZM371.728 36.536V38.536H373.728V36.536H371.728ZM371.728 18.464V16.464H369.728V18.464H371.728ZM387.64 18.464H389.64V16.464H387.64V18.464ZM387.64 68V70H389.64V68H387.64ZM371.728 68H373.728V49.208H371.728H369.728V68H371.728ZM371.728 49.208V47.208H354.232V49.208V51.208H371.728V49.208ZM354.232 49.208H352.232V68H354.232H356.232V49.208H354.232ZM354.232 68V66H338.32V68V70H354.232V68ZM338.32 68H340.32V18.464H338.32H336.32V68H338.32ZM338.32 18.464V20.464H354.232V18.464V16.464H338.32V18.464ZM354.232 18.464H352.232V36.536H354.232H356.232V18.464H354.232ZM354.232 36.536V38.536H371.728V36.536V34.536H354.232V36.536ZM371.728 36.536H373.728V18.464H371.728H369.728V36.536H371.728ZM371.728 18.464V20.464H387.64V18.464V16.464H371.728V18.464ZM387.64 18.464H385.64V68H387.64H389.64V18.464H387.64ZM387.64 68V66H371.728V68V70H387.64V68ZM399.017 68H397.017V70H399.017V68ZM399.017 18.464V16.464H397.017V18.464H399.017ZM414.929 18.464H416.929V16.464H414.929V18.464ZM414.929 68V70H416.929V68H414.929ZM399.017 68H401.017V18.464H399.017H397.017V68H399.017ZM399.017 18.464V20.464H414.929V18.464V16.464H399.017V18.464ZM414.929 18.464H412.929V68H414.929H416.929V18.464H414.929ZM414.929 68V66H399.017V68V70H414.929V68ZM476.969 68V70H480.741L478.625 66.878L476.969 68ZM457.673 68L455.953 69.0207L456.534 70H457.673V68ZM448.529 52.592L450.249 51.5713L449.668 50.592H448.529V52.592ZM448.241 52.592V50.592H447.102L446.521 51.5713L448.241 52.592ZM439.097 68V70H440.236L440.817 69.0207L439.097 68ZM421.241 68L419.584 66.8801L417.476 70H421.241V68ZM438.953 41.792L440.61 42.9119L441.372 41.7843L440.603 40.6615L438.953 41.792ZM422.969 18.464V16.464H419.174L421.319 19.5945L422.969 18.464ZM442.193 18.464L443.915 17.4465L443.334 16.464H442.193V18.464ZM449.681 31.136L447.959 32.1535L448.54 33.136H449.681V31.136ZM449.969 31.136V33.136H451.105L451.687 32.1607L449.969 31.136ZM457.529 18.464V16.464H456.393L455.812 17.4393L457.529 18.464ZM475.313 18.464L476.962 19.5955L479.111 16.464H475.313V18.464ZM459.257 41.864L457.608 40.7324L456.836 41.857L457.602 42.986L459.257 41.864ZM476.969 68V66H457.673V68V70H476.969V68ZM457.673 68L459.393 66.9793L450.249 51.5713L448.529 52.592L446.809 53.6127L455.953 69.0207L457.673 68ZM448.529 52.592V50.592H448.241V52.592V54.592H448.529V52.592ZM448.241 52.592L446.521 51.5713L437.377 66.9793L439.097 68L440.817 69.0207L449.961 53.6127L448.241 52.592ZM439.097 68V66H421.241V68V70H439.097V68ZM421.241 68L422.898 69.1199L440.61 42.9119L438.953 41.792L437.296 40.6721L419.584 66.8801L421.241 68ZM438.953 41.792L440.603 40.6615L424.619 17.3335L422.969 18.464L421.319 19.5945L437.303 42.9225L438.953 41.792ZM422.969 18.464V20.464H442.193V18.464V16.464H422.969V18.464ZM442.193 18.464L440.471 19.4815L447.959 32.1535L449.681 31.136L451.403 30.1185L443.915 17.4465L442.193 18.464ZM449.681 31.136V33.136H449.969V31.136V29.136H449.681V31.136ZM449.969 31.136L451.687 32.1607L459.247 19.4887L457.529 18.464L455.812 17.4393L448.252 30.1113L449.969 31.136ZM457.529 18.464V20.464H475.313V18.464V16.464H457.529V18.464ZM475.313 18.464L473.664 17.3324L457.608 40.7324L459.257 41.864L460.906 42.9955L476.962 19.5955L475.313 18.464ZM459.257 41.864L457.602 42.986L475.314 69.122L476.969 68L478.625 66.878L460.913 40.742L459.257 41.864ZM483.04 68H481.04V70H483.04V68ZM483.04 18.464V16.464H481.04V18.464H483.04ZM498.952 18.464H500.952V16.464H498.952V18.464ZM498.952 68V70H500.952V68H498.952ZM483.04 68H485.04V18.464H483.04H481.04V68H483.04ZM483.04 18.464V20.464H498.952V18.464V16.464H483.04V18.464ZM498.952 18.464H496.952V68H498.952H500.952V18.464H498.952ZM498.952 68V66H483.04V68V70H498.952V68ZM543.497 68L541.58 68.5729L542.007 70H543.497V68ZM541.409 61.016L543.325 60.4431L542.898 59.016H541.409V61.016ZM524.057 61.016V59.016H522.567L522.14 60.4431L524.057 61.016ZM521.969 68V70H523.458L523.885 68.5729L521.969 68ZM505.697 68L503.818 67.3145L502.838 70H505.697V68ZM523.769 18.464V16.464H522.369L521.89 17.7785L523.769 18.464ZM542.273 18.464L544.151 17.7785L543.672 16.464H542.273V18.464ZM560.345 68V70H563.203L562.223 67.3145L560.345 68ZM527.369 49.928L525.452 49.3569L524.686 51.928H527.369V49.928ZM538.097 49.928V51.928H540.769L540.015 49.3641L538.097 49.928ZM532.913 32.288L534.831 31.7241L534.409 30.288H532.913V32.288ZM532.625 32.288V30.288H531.134L530.708 31.7169L532.625 32.288ZM543.497 68L545.413 67.4271L543.325 60.4431L541.409 61.016L539.492 61.5889L541.58 68.5729L543.497 68ZM541.409 61.016V59.016H524.057V61.016V63.016H541.409V61.016ZM524.057 61.016L522.14 60.4431L520.052 67.4271L521.969 68L523.885 68.5729L525.973 61.5889L524.057 61.016ZM521.969 68V66H505.697V68V70H521.969V68ZM505.697 68L507.575 68.6855L525.647 19.1495L523.769 18.464L521.89 17.7785L503.818 67.3145L505.697 68ZM523.769 18.464V20.464H542.273V18.464V16.464H523.769V18.464ZM542.273 18.464L540.394 19.1495L558.466 68.6855L560.345 68L562.223 67.3145L544.151 17.7785L542.273 18.464ZM560.345 68V66H543.497V68V70H560.345V68ZM527.369 49.928V51.928H538.097V49.928V47.928H527.369V49.928ZM538.097 49.928L540.015 49.3641L534.831 31.7241L532.913 32.288L530.994 32.8519L536.178 50.4919L538.097 49.928ZM532.913 32.288V30.288H532.625V32.288V34.288H532.913V32.288ZM532.625 32.288L530.708 31.7169L525.452 49.3569L527.369 49.928L529.285 50.4991L534.541 32.8591L532.625 32.288ZM587.224 56.12L585.59 54.9668L583.364 58.12H587.224V56.12ZM610.768 56.12H612.768V54.12H610.768V56.12ZM610.768 68V70H612.768V68H610.768ZM562.744 68H560.744V70H562.744V68ZM562.744 62.888L561.11 61.7348L560.744 62.2533V62.888H562.744ZM585.712 30.344L587.346 31.4972L589.571 28.344H585.712V30.344ZM564.472 30.344H562.472V32.344H564.472V30.344ZM564.472 18.464V16.464H562.472V18.464H564.472ZM610.192 18.464H612.192V16.464H610.192V18.464ZM610.192 23.576L611.826 24.7292L612.192 24.2107V23.576H610.192ZM587.224 56.12V58.12H610.768V56.12V54.12H587.224V56.12ZM610.768 56.12H608.768V68H610.768H612.768V56.12H610.768ZM610.768 68V66H562.744V68V70H610.768V68ZM562.744 68H564.744V62.888H562.744H560.744V68H562.744ZM562.744 62.888L564.378 64.0412L587.346 31.4972L585.712 30.344L584.078 29.1908L561.11 61.7348L562.744 62.888ZM585.712 30.344V28.344H564.472V30.344V32.344H585.712V30.344ZM564.472 30.344H566.472V18.464H564.472H562.472V30.344H564.472ZM564.472 18.464V20.464H610.192V18.464V16.464H564.472V18.464ZM610.192 18.464H608.192V23.576H610.192H612.192V18.464H610.192ZM610.192 23.576L608.558 22.4228L585.59 54.9668L587.224 56.12L588.858 57.2732L611.826 24.7292L610.192 23.576ZM619.025 68H617.025V70H619.025V68ZM619.025 18.464V16.464H617.025V18.464H619.025ZM634.937 18.464H636.937V16.464H634.937V18.464ZM634.937 68V70H636.937V68H634.937ZM619.025 68H621.025V18.464H619.025H617.025V68H619.025ZM619.025 18.464V20.464H634.937V18.464V16.464H619.025V18.464ZM634.937 18.464H632.937V68H634.937H636.937V18.464H634.937ZM634.937 68V66H619.025V68V70H634.937V68Z" fill="#D7C5F0" mask="url(#path-1-outside-1_70_1102)"/>
<path d="M88 43.9686C70.7389 45.5367 60.8217 46.9793 54.7332 51.7463C47.5777 57.3286 45.883 67.5524 44 88C42.0542 66.7997 40.2967 56.6386 32.4508 51.1818C26.3623 46.9166 16.5078 45.5367 0 44.0314C17.1983 42.4633 27.1783 41.0207 33.204 36.3165C40.4223 30.6714 42.117 20.5103 44 0C45.7575 18.8795 47.3267 28.9779 53.1641 34.8111C59.0014 40.6443 69.1698 42.2751 88 43.9686Z" fill="#D7C5F0"/>
</svg>
