<svg width="1044" height="674" viewBox="0 0 1044 674" fill="none" xmlns="http://www.w3.org/2000/svg">
<path d="M-36.4207 628.711C-29.0463 626.502 -19.1213 625.216 -11.5056 624.597C-9.11951 624.401 -9.9637 626.112 -8.29997 626.038C-5.04378 625.889 -2.30523 624.502 0.926366 624.434C2.00054 624.418 1.27981 627.009 2.39607 626.939C8.51093 626.532 13.8984 624.551 19.9061 623.457C49.517 618.05 77.6538 609.258 104.922 596.803C113.897 592.726 125.478 588.687 133.618 582.408C134.565 581.676 132.859 580.315 132.959 580.05C134.527 575.957 135.783 580.098 138.03 579.292C145.949 576.428 153.578 571.395 159.677 565.948C160.425 565.282 161.147 564.609 161.844 563.935C164.518 561.312 159.037 560.507 163.366 559.914C163.666 559.866 164.343 562.156 165.28 561.678C167.42 560.587 170.488 557.39 171.946 556.296C174.764 554.207 175.167 553.799 177.584 551.534C180.879 548.458 185.454 545.373 188.417 541.448C189.04 540.609 186.463 540.088 187.297 538.621C188.135 537.161 191.176 534.041 192.535 533.272C193.901 532.507 194.827 534.133 195.304 534.2C199.333 534.781 198.995 527.785 199.295 527.216C205.254 516.734 213.406 510.03 219.704 500.548C224.461 493.363 228.544 485.03 232.798 477.975C237.872 469.572 242.967 462.815 247.289 454.202C247.746 453.295 244.855 453.114 245.407 452.005C251.263 440.227 257.371 428.601 264.815 417.48C265.564 416.365 266.891 418.926 267.763 417.873C273.061 411.399 282.832 401.801 275.919 392.984C277.355 390.518 278.943 387.763 280.693 385.195C282.355 382.755 284.165 380.482 286.137 378.758C288.749 376.477 289.604 380.398 290.414 376.395C290.601 375.493 288.104 375.528 288.534 374.249C290.349 368.865 293.802 363.722 295.393 358.247C295.712 357.13 293.814 356.48 293.649 356.028C292.361 352.267 298.721 350.523 299.494 349.829C305.342 344.472 307.112 339.217 310.682 333.181C311.513 331.784 308.243 332.108 308.964 330.711C312.741 323.477 317.387 316.345 322.761 310.276C323.962 308.931 324.963 311.544 325.633 310.968C328.56 308.435 325.462 305.361 328.263 302.894C328.85 302.373 330.209 303.825 330.463 303.831C334.437 303.954 331.614 299.72 331.855 299.196C334.777 292.578 341.448 291.891 345.04 286.132C345.473 285.436 342.4 285.372 343.742 283.501C352.671 271.03 364.263 259.288 376.719 250.413C378.649 249.036 378.67 251.533 378.935 251.598C383.09 252.597 381.033 248.048 381.495 247.393C382.73 245.7 384.357 244.505 385.945 243.403C389.077 241.221 391.97 239.502 391.871 234.841C413.54 220.382 436.436 205.965 462.346 203.472C462.67 203.435 462.805 205.846 463.445 205.764C471.155 204.859 468.708 201.8 472.554 196.152C473.549 194.728 478.675 198.999 479.089 199.31C480.649 200.429 480.208 204.126 480.681 204.302C484.52 205.66 481.329 194.542 485.975 193.501C486.123 193.489 485.976 195.696 486.407 195.818C487.744 196.202 488.754 195.121 490.08 195.589C493.122 196.683 495.151 201.985 498.581 197.994C499.019 197.481 496.981 191.193 501.175 190.726C502.838 190.537 510.099 189.152 512.204 189.244C514.304 189.327 513.252 191.639 513.413 191.705C519.32 193.568 517.43 195.05 520.789 198.699C524.13 202.341 521.878 192.761 522.822 191.506C523.765 190.254 528.118 191.926 529.204 192.576C530.299 193.223 529.277 194.729 530.211 195.049C536.405 197.131 532.041 189.857 533.718 188.038C536.878 184.612 540.391 188.172 543.816 189.827C544.69 190.25 545.559 190.55 546.415 190.576C547.553 190.612 546.416 189.097 547.385 188.805C551.227 187.673 553.891 189.599 558.075 186.935C558.758 186.5 561.795 181.68 564.554 184.556C564.945 184.972 564.242 186.894 565.967 187.077C568.543 187.353 573.092 187.164 575.7 186.22C577.625 185.521 574.974 182.847 577.588 183.449C578.749 183.72 576.915 185.715 579.078 186.078C581.229 186.442 586.516 185.7 588.524 185.39C590.529 185.078 589.148 182.966 589.291 182.794C590.168 181.803 593.898 180.24 594.24 180.2C611.433 177.8 627.764 179.703 644.348 176.371C645.649 176.112 644.48 173.849 644.675 173.785C649.045 172.232 646.287 178.98 649.693 180.699C648.637 175.942 650.6 176.583 653.7 175.656C655.193 175.205 654.126 173.446 654.241 173.238C656.143 170.121 658.18 173.576 658.682 174.272C660.531 176.832 661.744 173.373 663 175.08C664.254 176.773 662.256 179.781 665.291 179.353C665.919 177.521 663.084 173.312 665.292 172.284C673.615 168.413 690.26 169.732 697.284 169.073C704.286 168.429 706.48 167.769 710.619 167.773C718.097 167.767 714.905 164.853 719.183 162.615C723.467 160.367 722.588 168.898 723.525 170.551C724.453 172.204 724.862 170.281 725.82 171.116C726.776 171.95 725.242 173.429 727.181 173.483C729.125 173.539 733.738 169.55 734.083 167.6C734.818 163.47 731.822 159.788 736.993 160.369C737.291 160.404 736.745 162.711 737.869 162.738C738.207 162.744 738.546 162.747 738.884 162.747C747.491 162.762 756.138 161.362 764.694 161.192C765.915 161.171 765.31 163.753 766.027 163.767C773.519 163.909 770.178 160.387 773.22 155.165C773.505 161.264 776.409 164.471 781.882 163.391C785.178 162.737 784.072 160.27 785.804 158.008C786.321 157.327 789.011 158.608 789.172 157.303C789.699 153.039 786.579 149.078 792.508 149.632C792.771 149.662 792.472 152.001 793.344 151.947C798.985 151.591 798.703 147.308 804.406 145.432C808.875 143.963 817.601 144.434 822.888 143.426C824.543 150.018 829.097 147.158 829.781 142.087C833.179 141.32 836.7 140 840.1 139.628C841.27 139.497 841.126 141.6 841.328 141.76C844.472 144.275 844.557 139.464 845.211 139.067C852.397 134.932 859.835 135.983 865.881 130.055C866.097 129.841 864.801 125.29 867.963 127.75C868.177 127.92 866.582 130.856 870.029 129.675C873.465 128.502 880.839 128.162 884.557 124.054C885.47 123.064 886.615 118.317 890.124 119.941C890.597 120.164 890.86 121.54 891.619 122.009C894.072 123.484 892.709 118.842 896.154 121.645C899.591 124.448 904.531 125.349 907.769 120.356C907.878 120.202 907.114 116.306 908.544 115.558C910.837 114.367 914.407 113.162 916.694 111.705C917.788 111.008 915.839 109.457 916.007 109.302C921.417 104.625 926.495 102.601 932.553 99.2497C933.881 98.5103 935.249 97.7017 936.66 96.7785C938.131 95.8332 939.773 90.2963 943.88 89.9846C948.419 89.5706 953.463 100.72 957.951 92.6084C959.814 89.2362 952.214 76.1474 961.832 76.7699C968.287 66.7418 978.056 60.3704 982.64 49.0299C982.848 48.52 980.431 44.8316 981.163 43.8437C982.264 42.3729 984.411 42.584 985.244 41.5477C988.769 37.2323 990.082 32.0679 993.055 27.65C994.179 25.9657 995.504 27.5897 996.842 25.5631C998.174 23.5333 996.751 20.8352 999.473 18.632C1001.53 16.9739 1007.38 17.4363 1009.54 14.8414C1005.04 12.1709 1006.24 10.2524 1006.97 6.07122C1007.1 5.26683 1005.11 5.11394 1005.09 4.68856C1004.98 2.94085 1006.96 2.46247 1006.73 0.738371C1006.68 0.320747 1005.11 -0.545515 1004.98 -0.934256C1003.8 -4.26623 1009.18 -5.80322 1010.12 -6.07219C1013.68 -7.09713 1012.19 -9.25459 1014.04 -10.5149C1015.89 -11.7747 1015.66 -8.54732 1017.31 -10.2955C1020.71 -13.9214 1023.31 -19.5231 1025.63 -23.7949C1026.54 -25.5082 1023.82 -25.436 1023.9 -25.7068C1025.22 -29.546 1029.35 -31.9701 1026.17 -36.1429C1038.35 -32.902 1026.23 -38.8445 1031.1 -42.7809C1031.48 -43.089 1036.89 -40.8746 1036.83 -38.9449C1036.78 -37.0162 1033.95 -35.5493 1034.01 -32.796C1034.02 -32.147 1037.34 -26.7398 1037.42 -26.1922C1038.09 -21.9065 1030.17 -25.4927 1029.66 -25.5481C1024.13 -26.0739 1027.48 -19.8192 1027.35 -18.6997C1026.77 -13.5689 1023.79 -10.5083 1023.08 -6.31924C1022.6 -3.5823 1027.5 -0.68579 1026.37 1.07557C1022.58 6.95028 1014.47 5.26329 1017.33 14.3241C1017.93 16.2659 1024.06 18.0657 1017.3 20.1203C1016.88 20.2548 1011.14 21.3226 1012.51 24.6139C1012.68 25.029 1014.25 25.9245 1014.21 26.3149C1013.84 28.914 1011.78 29.5947 1011.02 32.2316C1010.27 34.8692 1009.49 38.1613 1007.37 40.4451C1006.08 41.8286 1001.97 42.0388 1000.81 42.3331C997.48 43.1437 999.323 47.486 996.066 47.1974C992.802 46.8892 990.752 42.0028 987.006 44.2812C990.848 47.0047 994.684 49.9637 998.487 52.7924C993.346 60.2079 986.919 66.5542 981.405 73.8259C980.722 74.7318 983.426 75.4009 982.737 76.4188C979.794 80.7212 975.492 83.0161 972.416 87.5007C970.039 90.9793 968.775 96.1956 966.034 99.8423C960.32 97.936 956.857 103.724 952.853 106.487C951.466 107.452 950.62 106.28 949.412 106.681C944.87 108.185 949.487 110.535 948.993 111.905C947.96 114.664 945.807 114.309 943.39 113.537C940.683 112.654 937.633 111.26 935.127 113.226C934.898 113.414 934.955 120.38 934.675 120.993C933.08 124.889 933.074 119.668 931.037 120.523C927.308 122.061 924.307 122.351 921.24 126.167C920.359 127.282 919.351 132.032 915.692 130.912C915.214 130.765 914.448 129.017 914.154 129.055C908.935 129.841 911.666 135.117 910.041 138.265C908.408 141.412 902.546 139.731 901.242 139.042C897.801 137.306 902.266 137.081 902.246 136.747C901.965 132.88 899.411 134.853 897.106 135.619C894.257 130.505 891.423 132.23 894.725 136.43C895.094 136.886 896.556 135.589 897.106 135.619C897.693 141.706 894.493 144.024 888.567 140.779C885.802 139.242 886.292 135.862 881.436 139.095C879.223 140.547 881.702 143.877 879.961 145.778C875.945 150.132 868.124 149.086 863.206 151.449C861.412 152.312 863.966 153.748 862.759 154.409C859.543 156.171 856.005 155.618 852.836 157.538C852.549 157.715 854.025 159.663 852.959 160.038C844.886 162.918 837.348 163.596 828.809 165.87C824.686 166.976 817.604 170.101 813.253 170.883C805.705 172.281 795.858 171.035 789.708 173.159C785.69 174.535 787.065 176.602 785.604 178.51C782.778 182.207 775.635 178.052 774.674 177.375C774.643 177.354 778.088 176.121 775.966 175.332C774.391 173.125 774.713 177.356 774.674 177.375C774.034 176.949 766.853 177.793 765.519 178.486C764.798 178.867 765.629 180.936 765.245 181.094C758.059 184.006 750.7 186.006 743.152 187.046C741.084 187.332 738.999 187.544 736.898 187.681C736.72 187.666 736.566 185.211 736.154 185.207C730.378 185.083 727.287 188.618 722.934 191.111C718.585 193.601 714.808 193.578 711.447 189.84C708.04 190.892 702.77 189.792 699.74 189.09C696.71 188.389 696.982 193.158 696.742 193.287C689.267 197.39 684.319 195.317 676.089 195.984C672.174 196.295 664.555 197.979 660.416 199.028C657.145 199.867 655.005 199.012 652.034 200.103C651.632 200.249 652.313 202.3 652.197 202.397C649.095 205.34 650.095 199.992 649.276 199.162C646.306 196.139 644.511 194.556 640.34 196.665C639.379 197.149 637.354 204.915 635.571 205.573C633.252 206.414 633.828 203.649 631.409 204.597C631.202 204.675 631.446 206.308 629.896 206.423C622.706 206.981 614.805 206.97 607.419 208.039C606.41 208.179 608.024 210.619 606.571 210.863C599.753 212.009 592.246 212.839 585.441 212.463C583.765 212.362 584.562 210.414 584.138 209.92C581.54 206.929 579.049 212.07 578.552 212.225C567.594 215.773 558.358 213.438 547.522 216.048C546.617 216.266 545.703 216.517 544.779 216.807C544.119 217.022 539.675 222.837 536.76 218.819C536.562 218.552 533.626 214.433 532.081 217.774C531.985 217.983 533.735 220.064 531.243 220.198C528.746 220.333 525.06 222.462 521.33 220.485C520.147 219.863 516.912 215.837 514.361 219.902C514.176 220.183 510.801 228.983 508.121 223.805C507.683 222.954 506.895 217.081 503.745 220.76C503.152 221.472 504.672 222.521 502.983 223.684C500.406 225.474 496.355 224.683 493.52 228.004C493.019 228.59 491.416 233.055 488.747 230.561C488.325 230.172 488.467 228.11 487.356 228.148C482.065 228.323 477.22 230.972 471.901 231.142C470.011 231.212 469.983 227.886 467.88 227.643C465.778 227.396 461.786 227.848 460.367 229.897C458.963 231.939 462.692 236 460.084 237.373C448.877 243.339 436.648 245.876 425.811 252.153C424.216 253.086 426.472 253.796 424.241 255.281C419.469 258.467 413.276 263.732 407.396 268.464C402.938 272.033 398.585 275.211 394.706 276.701C387.304 279.62 392.27 271.437 387.343 274.527C384.947 276.059 387.125 282.315 386.823 282.901C383.808 288.802 378.924 290.351 375.776 295.289C375.133 296.308 377.715 296.961 377.154 297.806C375.264 300.696 372.155 302.838 370.267 305.569C369.426 306.797 371.039 307.702 370.098 308.691C367.863 311.078 365.527 312.926 362.252 314.522C361.951 314.671 361.277 311.723 359.768 313.665C357.338 316.805 353.098 319.941 351.99 324.759C351.667 326.195 355.128 328.526 351.112 329.4C350.275 329.586 346.478 326.199 348.266 331.44C348.543 332.331 350.451 340.266 345.778 340.706C344.545 340.82 340.035 340.334 339.73 342.103C339.703 342.349 342.092 342.728 341.574 344.021C339.722 348.554 336.968 352.847 335.131 357.564C334.646 358.825 337.643 358.223 336.86 360.062C334.709 365.114 330.938 370.86 327.778 375.312C326.609 376.95 325.547 374.836 325.294 374.866C321.187 375.362 324.623 378.722 324.505 379.533C323.706 384.562 320.108 386.864 318.594 391.132C318.171 392.308 320.525 392.509 320.588 392.817C321.147 395.955 318.485 392.487 317.37 393.739C315.468 395.867 313.946 398.407 312.642 401.034C311.798 402.734 311.045 404.471 310.339 406.153C309.683 407.725 312.808 407.134 312.193 408.532C308.605 416.816 304.252 425.215 299.056 432.629C298.073 434.024 296.782 432.21 296.226 432.328C292.355 433.119 294.615 438.187 294.615 439.104C294.63 443.264 292.433 443.797 291.251 446.895C285.519 462.049 275.145 479.495 266.71 492.691C255.713 509.911 245.557 522.37 234.061 538.534C233.321 539.56 236.169 540.112 235.553 541.02C227.471 552.704 217.521 562.774 207.855 573.542C207.053 574.425 210.02 574.951 208.779 576.435C206.252 579.485 202.502 582.866 199.006 584.964C197.304 585.99 197.821 582.67 196.144 583.725C192.245 586.163 188.45 589.172 185.082 592.401C183.641 593.784 187.572 593.864 185.559 595.516C185.022 595.957 184.484 596.397 183.943 596.835C171.018 607.305 157.406 616.779 141.404 622.358C140.257 622.757 136.828 618.811 135.147 620.878C135.677 622.213 136.5 623.671 137.168 625.041C115.742 637.905 92.3964 645.942 69.2497 653.612C68.2701 653.937 70.8436 655.929 68.9446 656.571C57.966 660.272 47.4117 664.27 35.4065 664.775C34.2173 664.826 33.5257 660.063 30.4408 661.645C29.8995 661.932 25.1235 663.854 24.0999 665.185C23.9645 665.382 25.4286 667.31 23.8444 667.785C14.622 670.504 4.72959 672.307 -4.83098 673.011C-6.37376 673.12 -5.29225 670.449 -6.39354 670.505C-14.1925 670.922 -22.018 674.38 -29.6257 673.684C-34.7126 673.205 -33.725 668.821 -37.0353 665.345C-37.5026 664.855 -40.476 665.335 -41.0713 663.053C-42.5746 657.315 -42.3745 650.678 -44.1465 644.595C-44.5247 643.285 -48.1592 645.468 -46.4603 641.801C-46.3392 641.555 -43.7161 639.943 -43.2339 638.714C-42.8967 637.865 -44.2211 635.683 -43.4238 634.525C-42.6279 633.367 -41.1637 635.127 -39.7555 633.67C-38.3541 632.199 -39.593 629.67 -36.4207 628.711ZM686.128 185.924C683.169 184.022 683.908 192.373 686.51 189.994C686.635 189.869 686.28 186.016 686.128 185.924ZM981.762 62.6614C976.677 63.3017 979.473 68.5398 983.295 68.2527C987.137 67.9175 983.319 62.4412 981.762 62.6614ZM999.921 30.5013C995.307 32.5006 1005.08 39.2768 1005.36 34.1955C1005.38 33.9014 1000.19 30.3818 999.921 30.5013ZM-25.4996 661.883C-25.5579 661.782 -27.7023 662.105 -27.7315 662.223C-28.3401 665.059 -24.0429 664.411 -25.4996 661.883ZM1015.07 -2.37005C1013.05 -2.00432 1012.95 2.10071 1015.46 1.65479C1017.48 1.29232 1017.58 -2.83018 1015.07 -2.37005ZM547.093 194.609C547.034 194.491 545.49 194.595 545.619 195.289C546.04 197.524 548.074 196.591 547.093 194.609ZM1043.42 -56.2188C1038.72 -48.6073 1027.49 -48.3721 1033.15 -56.5328C1034.18 -58.0057 1034.06 -51.6551 1035.93 -53.2318C1039.32 -56.0933 1035.26 -61.496 1040.21 -63.5818C1041.11 -63.9472 1043.7 -56.6415 1043.42 -56.1982C1043.42 -56.2051 1043.42 -56.2119 1043.42 -56.2188ZM683.238 176.167C683.17 176.065 681.038 176.249 681.002 176.365C680.212 179.156 684.512 178.785 683.238 176.167ZM457.476 207.415C457.287 207.216 452.433 208.635 452.354 208.907C451.354 213.842 460.982 211.038 457.476 207.415ZM823.017 143.579C824.546 140.394 827.081 139.361 829.77 142.087C827.516 142.543 825.285 143.135 823.017 143.579Z" fill="#8B7AE7"/>
</svg>
