<svg width="457" height="52" viewBox="0 0 457 52" fill="none" xmlns="http://www.w3.org/2000/svg">
<path d="M44.38 50.5V32.644C44.38 30.436 44.452 28.18 44.596 25.876C44.788 23.524 44.98 21.556 45.172 19.972C45.364 18.388 45.484 17.38 45.532 16.948H45.244L36.1 50.5H23.644L14.428 17.02H14.14C14.188 17.452 14.308 18.46 14.5 20.044C14.74 21.58 14.956 23.524 15.148 25.876C15.34 28.18 15.436 30.436 15.436 32.644V50.5H0.82V0.963998H23.284L30.772 29.548H31.06L38.476 0.963998H60.148V50.5H44.38ZM119.14 30.556C119.14 37.324 117.004 42.484 112.732 46.036C108.46 49.588 102.388 51.364 94.5162 51.364C86.6442 51.364 80.5482 49.588 76.2282 46.036C71.9562 42.484 69.8202 37.324 69.8202 30.556V0.963998H85.7322V30.34C85.7322 33.124 86.4762 35.356 87.9642 37.036C89.4522 38.668 91.6122 39.484 94.4442 39.484C97.2762 39.484 99.4362 38.644 100.924 36.964C102.46 35.284 103.228 33.076 103.228 30.34V0.963998H119.14V30.556ZM180.485 50.5H161.189L152.045 35.092H151.757L142.613 50.5H124.757L142.469 24.292L126.485 0.963998H145.709L153.197 13.636H153.485L161.045 0.963998H178.829L162.773 24.364L180.485 50.5ZM186.556 50.5V0.963998H202.468V50.5H186.556ZM266.309 13.636V50.5H250.397V13.636H234.125V0.963998H282.509V13.636H266.309ZM289.758 0.963998H332.598V12.844H305.67V19.684H328.71V31.06H305.67V38.62H333.102V50.5H289.758V0.963998ZM374.911 50.5L372.823 43.516H355.471L353.383 50.5H337.111L355.183 0.963998H373.687L391.759 50.5H374.911ZM358.783 32.428H369.511L364.327 14.788H364.039L358.783 32.428ZM440.31 50.5V32.644C440.31 30.436 440.382 28.18 440.526 25.876C440.718 23.524 440.91 21.556 441.102 19.972C441.294 18.388 441.414 17.38 441.462 16.948H441.174L432.03 50.5H419.574L410.358 17.02H410.07C410.118 17.452 410.238 18.46 410.43 20.044C410.67 21.58 410.886 23.524 411.078 25.876C411.27 28.18 411.366 30.436 411.366 32.644V50.5H396.75V0.963998H419.214L426.702 29.548H426.99L434.406 0.963998H456.078V50.5H440.31Z" fill="#FFFE54"/>
</svg>
