<svg width="461" height="56" viewBox="0 0 461 56" fill="none" xmlns="http://www.w3.org/2000/svg">
<mask id="path-1-outside-1_236_211" maskUnits="userSpaceOnUse" x="0.819824" y="0.964111" width="460" height="55" fill="black">
<rect fill="white" x="0.819824" y="0.964111" width="460" height="55"/>
<path d="M46.3798 52.5001V34.6441C46.3798 32.4361 46.4518 30.1801 46.5958 27.8761C46.7878 25.5241 46.9798 23.5561 47.1718 21.9721C47.3638 20.3881 47.4838 19.3801 47.5318 18.9481H47.2438L38.0998 52.5001H25.6438L16.4278 19.0201H16.1398C16.1878 19.4521 16.3078 20.4601 16.4998 22.0441C16.7398 23.5801 16.9558 25.5241 17.1478 27.8761C17.3398 30.1801 17.4358 32.4361 17.4358 34.6441V52.5001H2.81982V2.96411H25.2838L32.7718 31.5481H33.0598L40.4758 2.96411H62.1478V52.5001H46.3798Z"/>
<path d="M121.14 32.5561C121.14 39.3241 119.004 44.4841 114.732 48.0361C110.46 51.5881 104.388 53.3641 96.516 53.3641C88.644 53.3641 82.548 51.5881 78.228 48.0361C73.956 44.4841 71.82 39.3241 71.82 32.5561V2.96411H87.732V32.3401C87.732 35.1241 88.476 37.3561 89.964 39.0361C91.452 40.6681 93.612 41.4841 96.444 41.4841C99.276 41.4841 101.436 40.6441 102.924 38.9641C104.46 37.2841 105.228 35.0761 105.228 32.3401V2.96411H121.14V32.5561Z"/>
<path d="M182.485 52.5001H163.189L154.045 37.0921H153.757L144.613 52.5001H126.757L144.469 26.2921L128.485 2.96411H147.709L155.197 15.6361H155.485L163.045 2.96411H180.829L164.773 26.3641L182.485 52.5001Z"/>
<path d="M188.556 52.5001V2.96411H204.468V52.5001H188.556Z"/>
<path d="M268.309 15.6361V52.5001H252.397V15.6361H236.125V2.96411H284.509V15.6361H268.309Z"/>
<path d="M291.758 2.96411H334.598V14.8441H307.67V21.6841H330.71V33.0601H307.67V40.6201H335.102V52.5001H291.758V2.96411Z"/>
<path d="M376.91 52.5001L374.822 45.5161H357.47L355.382 52.5001H339.11L357.182 2.96411H375.686L393.758 52.5001H376.91ZM360.782 34.4281H371.51L366.326 16.7881H366.038L360.782 34.4281Z"/>
<path d="M442.31 52.5001V34.6441C442.31 32.4361 442.382 30.1801 442.526 27.8761C442.717 25.5241 442.91 23.5561 443.102 21.9721C443.293 20.3881 443.414 19.3801 443.462 18.9481H443.174L434.03 52.5001H421.574L412.358 19.0201H412.07C412.118 19.4521 412.238 20.4601 412.43 22.0441C412.669 23.5801 412.886 25.5241 413.078 27.8761C413.27 30.1801 413.366 32.4361 413.366 34.6441V52.5001H398.75V2.96411H421.214L428.702 31.5481H428.99L436.406 2.96411H458.078V52.5001H442.31Z"/>
</mask>
<path d="M46.3798 52.5001V34.6441C46.3798 32.4361 46.4518 30.1801 46.5958 27.8761C46.7878 25.5241 46.9798 23.5561 47.1718 21.9721C47.3638 20.3881 47.4838 19.3801 47.5318 18.9481H47.2438L38.0998 52.5001H25.6438L16.4278 19.0201H16.1398C16.1878 19.4521 16.3078 20.4601 16.4998 22.0441C16.7398 23.5801 16.9558 25.5241 17.1478 27.8761C17.3398 30.1801 17.4358 32.4361 17.4358 34.6441V52.5001H2.81982V2.96411H25.2838L32.7718 31.5481H33.0598L40.4758 2.96411H62.1478V52.5001H46.3798Z" stroke="white" stroke-width="4" mask="url(#path-1-outside-1_236_211)"/>
<path d="M121.14 32.5561C121.14 39.3241 119.004 44.4841 114.732 48.0361C110.46 51.5881 104.388 53.3641 96.516 53.3641C88.644 53.3641 82.548 51.5881 78.228 48.0361C73.956 44.4841 71.82 39.3241 71.82 32.5561V2.96411H87.732V32.3401C87.732 35.1241 88.476 37.3561 89.964 39.0361C91.452 40.6681 93.612 41.4841 96.444 41.4841C99.276 41.4841 101.436 40.6441 102.924 38.9641C104.46 37.2841 105.228 35.0761 105.228 32.3401V2.96411H121.14V32.5561Z" stroke="white" stroke-width="4" mask="url(#path-1-outside-1_236_211)"/>
<path d="M182.485 52.5001H163.189L154.045 37.0921H153.757L144.613 52.5001H126.757L144.469 26.2921L128.485 2.96411H147.709L155.197 15.6361H155.485L163.045 2.96411H180.829L164.773 26.3641L182.485 52.5001Z" stroke="white" stroke-width="4" mask="url(#path-1-outside-1_236_211)"/>
<path d="M188.556 52.5001V2.96411H204.468V52.5001H188.556Z" stroke="white" stroke-width="4" mask="url(#path-1-outside-1_236_211)"/>
<path d="M268.309 15.6361V52.5001H252.397V15.6361H236.125V2.96411H284.509V15.6361H268.309Z" stroke="white" stroke-width="4" mask="url(#path-1-outside-1_236_211)"/>
<path d="M291.758 2.96411H334.598V14.8441H307.67V21.6841H330.71V33.0601H307.67V40.6201H335.102V52.5001H291.758V2.96411Z" stroke="white" stroke-width="4" mask="url(#path-1-outside-1_236_211)"/>
<path d="M376.91 52.5001L374.822 45.5161H357.47L355.382 52.5001H339.11L357.182 2.96411H375.686L393.758 52.5001H376.91ZM360.782 34.4281H371.51L366.326 16.7881H366.038L360.782 34.4281Z" stroke="white" stroke-width="4" mask="url(#path-1-outside-1_236_211)"/>
<path d="M442.31 52.5001V34.6441C442.31 32.4361 442.382 30.1801 442.526 27.8761C442.717 25.5241 442.91 23.5561 443.102 21.9721C443.293 20.3881 443.414 19.3801 443.462 18.9481H443.174L434.03 52.5001H421.574L412.358 19.0201H412.07C412.118 19.4521 412.238 20.4601 412.43 22.0441C412.669 23.5801 412.886 25.5241 413.078 27.8761C413.27 30.1801 413.366 32.4361 413.366 34.6441V52.5001H398.75V2.96411H421.214L428.702 31.5481H428.99L436.406 2.96411H458.078V52.5001H442.31Z" stroke="white" stroke-width="4" mask="url(#path-1-outside-1_236_211)"/>
</svg>
