<svg width="1148" height="102" viewBox="0 0 1148 102" fill="none" xmlns="http://www.w3.org/2000/svg">
<mask id="path-1-outside-1_70_23" maskUnits="userSpaceOnUse" x="657.5" y="19" width="492" height="54" fill="black">
<rect fill="white" x="657.5" y="19" width="492" height="54"/>
<path d="M692.804 21.464C695.3 21.464 697.58 21.992 699.644 23.048C701.756 24.056 703.412 25.496 704.612 27.368C705.86 29.24 706.484 31.328 706.484 33.632C706.484 39.728 703.724 43.568 698.204 45.152V45.44C704.492 46.88 707.636 51.008 707.636 57.824C707.636 60.416 706.988 62.72 705.692 64.736C704.444 66.704 702.716 68.24 700.508 69.344C698.3 70.448 695.876 71 693.236 71H659.828V21.464H692.804ZM675.74 40.76H686.684C687.74 40.76 688.604 40.4 689.276 39.68C689.996 38.912 690.356 37.976 690.356 36.872V36.152C690.356 35.096 689.996 34.208 689.276 33.488C688.556 32.72 687.692 32.336 686.684 32.336H675.74V40.76ZM675.74 59.48H687.836C688.892 59.48 689.756 59.12 690.428 58.4C691.148 57.632 691.508 56.696 691.508 55.592V54.872C691.508 53.768 691.148 52.856 690.428 52.136C689.756 51.368 688.892 50.984 687.836 50.984H675.74V59.48ZM762.883 36.656C762.883 39.68 762.067 42.416 760.435 44.864C758.803 47.312 756.427 49.112 753.307 50.264L764.323 71H746.467L737.683 52.928H731.779V71H715.867V21.464H746.179C749.731 21.464 752.755 22.16 755.251 23.552C757.795 24.896 759.691 26.744 760.939 29.096C762.235 31.4 762.883 33.92 762.883 36.656ZM746.683 37.304C746.683 36.008 746.251 34.928 745.387 34.064C744.523 33.2 743.467 32.768 742.219 32.768H731.779V41.912H742.219C743.467 41.912 744.523 41.48 745.387 40.616C746.251 39.704 746.683 38.6 746.683 37.304ZM805.098 71L803.01 64.016H785.658L783.57 71H767.298L785.37 21.464H803.874L821.946 71H805.098ZM788.97 52.928H799.698L794.514 35.288H794.226L788.97 52.928ZM863.369 71L842.561 46.952V71H827.945V21.464H841.841L862.649 45.872V21.464H877.265V71H863.369ZM909.378 21.464C926.706 21.464 935.37 29.72 935.37 46.232C935.37 62.744 926.706 71 909.378 71H887.922V21.464H909.378ZM903.834 59.12H909.09C915.762 59.12 919.098 55.544 919.098 48.392V44.072C919.098 36.92 915.762 33.344 909.09 33.344H903.834V59.12ZM1003.36 71L982.553 46.952V71H967.937V21.464H981.833L1002.64 45.872V21.464H1017.26V71H1003.36ZM1027.91 21.464H1070.75V33.344H1043.83V40.184H1066.87V51.56H1043.83V59.12H1071.26V71H1027.91V21.464ZM1117.1 71L1110.69 40.832H1110.4L1103.99 71H1086.5L1074.91 21.464H1091.47L1097.15 49.544H1097.44L1103.06 21.464H1118.75L1124.73 49.544H1125.02L1130.35 21.464H1146.19L1134.59 71H1117.1Z"/>
</mask>
<path d="M699.644 23.048L698.733 24.8285L698.758 24.8411L698.783 24.853L699.644 23.048ZM704.612 27.368L702.928 28.4473L702.938 28.4625L702.948 28.4774L704.612 27.368ZM698.204 45.152L697.652 43.2296L696.204 43.6452V45.152H698.204ZM698.204 45.44H696.204V47.0338L697.758 47.3895L698.204 45.44ZM705.692 64.736L704.01 63.6545L704.003 63.6649L705.692 64.736ZM659.828 71H657.828V73H659.828V71ZM659.828 21.464V19.464H657.828V21.464H659.828ZM675.74 40.76H673.74V42.76H675.74V40.76ZM689.276 39.68L687.817 38.3121L687.814 38.3154L689.276 39.68ZM689.276 33.488L687.817 34.8559L687.839 34.8794L687.862 34.9022L689.276 33.488ZM675.74 32.336V30.336H673.74V32.336H675.74ZM675.74 59.48H673.74V61.48H675.74V59.48ZM690.428 58.4L688.969 57.0321L688.966 57.0354L690.428 58.4ZM690.428 52.136L688.923 53.453L688.967 53.5031L689.014 53.5502L690.428 52.136ZM675.74 50.984V48.984H673.74V50.984H675.74ZM692.804 21.464V23.464C695.008 23.464 696.972 23.9277 698.733 24.8285L699.644 23.048L700.555 21.2675C698.188 20.0563 695.592 19.464 692.804 19.464V21.464ZM699.644 23.048L698.783 24.853C700.577 25.7092 701.94 26.9059 702.928 28.4473L704.612 27.368L706.296 26.2887C704.884 24.0861 702.935 22.4028 700.505 21.243L699.644 23.048ZM704.612 27.368L702.948 28.4774C703.971 30.0126 704.484 31.7128 704.484 33.632H706.484H708.484C708.484 30.9432 707.749 28.4674 706.276 26.2586L704.612 27.368ZM706.484 33.632H704.484C704.484 36.3822 703.863 38.4235 702.79 39.9167C701.725 41.3984 700.076 42.5342 697.652 43.2296L698.204 45.152L698.756 47.0744C701.852 46.1858 704.343 44.6096 706.038 42.2513C707.725 39.9045 708.484 36.9778 708.484 33.632H706.484ZM698.204 45.152H696.204V45.44H698.204H700.204V45.152H698.204ZM698.204 45.44L697.758 47.3895C700.56 48.0313 702.462 49.2197 703.687 50.8278C704.921 52.4482 705.636 54.7165 705.636 57.824H707.636H709.636C709.636 54.1155 708.779 50.9118 706.869 48.4042C704.95 45.8843 702.136 44.2887 698.65 43.4905L698.204 45.44ZM707.636 57.824H705.636C705.636 60.0651 705.081 61.9874 704.01 63.6545L705.692 64.736L707.374 65.8175C708.895 63.4526 709.636 60.7669 709.636 57.824H707.636ZM705.692 64.736L704.003 63.6649C702.961 65.3074 701.516 66.6037 699.614 67.5551L700.508 69.344L701.402 71.1329C703.916 69.8763 705.927 68.1006 707.381 65.8071L705.692 64.736ZM700.508 69.344L699.614 67.5551C697.702 68.5107 695.588 69 693.236 69V71V73C696.164 73 698.898 72.3853 701.402 71.1329L700.508 69.344ZM693.236 71V69H659.828V71V73H693.236V71ZM659.828 71H661.828V21.464H659.828H657.828V71H659.828ZM659.828 21.464V23.464H692.804V21.464V19.464H659.828V21.464ZM675.74 40.76V42.76H686.684V40.76V38.76H675.74V40.76ZM686.684 40.76V42.76C688.25 42.76 689.658 42.2015 690.738 41.0446L689.276 39.68L687.814 38.3154C687.55 38.5985 687.23 38.76 686.684 38.76V40.76ZM689.276 39.68L690.735 41.0479C691.821 39.8898 692.356 38.4568 692.356 36.872H690.356H688.356C688.356 37.4952 688.171 37.9342 687.817 38.3121L689.276 39.68ZM690.356 36.872H692.356V36.152H690.356H688.356V36.872H690.356ZM690.356 36.152H692.356C692.356 34.5875 691.801 33.1841 690.69 32.0738L689.276 33.488L687.862 34.9022C688.191 35.2319 688.356 35.6045 688.356 36.152H690.356ZM689.276 33.488L690.735 32.1201C689.656 30.969 688.272 30.336 686.684 30.336V32.336V34.336C687.112 34.336 687.456 34.471 687.817 34.8559L689.276 33.488ZM686.684 32.336V30.336H675.74V32.336V34.336H686.684V32.336ZM675.74 32.336H673.74V40.76H675.74H677.74V32.336H675.74ZM675.74 59.48V61.48H687.836V59.48V57.48H675.74V59.48ZM687.836 59.48V61.48C689.402 61.48 690.81 60.9215 691.89 59.7646L690.428 58.4L688.966 57.0354C688.702 57.3185 688.382 57.48 687.836 57.48V59.48ZM690.428 58.4L691.887 59.7679C692.973 58.6098 693.508 57.1768 693.508 55.592H691.508H689.508C689.508 56.2152 689.323 56.6542 688.969 57.0321L690.428 58.4ZM691.508 55.592H693.508V54.872H691.508H689.508V55.592H691.508ZM691.508 54.872H693.508C693.508 53.2869 692.971 51.8503 691.842 50.7218L690.428 52.136L689.014 53.5502C689.325 53.8617 689.508 54.2491 689.508 54.872H691.508ZM690.428 52.136L691.933 50.819C690.867 49.6 689.446 48.984 687.836 48.984V50.984V52.984C688.338 52.984 688.645 53.136 688.923 53.453L690.428 52.136ZM687.836 50.984V48.984H675.74V50.984V52.984H687.836V50.984ZM675.74 50.984H673.74V59.48H675.74H677.74V50.984H675.74ZM760.435 44.864L758.771 43.7546L760.435 44.864ZM753.307 50.264L752.614 48.3878L750.467 49.1807L751.541 51.2023L753.307 50.264ZM764.323 71V73H767.65L766.089 70.0617L764.323 71ZM746.467 71L744.668 71.8743L745.215 73H746.467V71ZM737.683 52.928L739.482 52.0537L738.935 50.928H737.683V52.928ZM731.779 52.928V50.928H729.779V52.928H731.779ZM731.779 71V73H733.779V71H731.779ZM715.867 71H713.867V73H715.867V71ZM715.867 21.464V19.464H713.867V21.464H715.867ZM755.251 23.552L754.277 25.2987L754.297 25.3098L754.317 25.3204L755.251 23.552ZM760.939 29.096L759.172 30.0334L759.184 30.0551L759.196 30.0765L760.939 29.096ZM745.387 34.064L743.973 35.4782V35.4782L745.387 34.064ZM731.779 32.768V30.768H729.779V32.768H731.779ZM731.779 41.912H729.779V43.912H731.779V41.912ZM745.387 40.616L746.801 42.0302L746.82 42.0111L746.839 41.9915L745.387 40.616ZM762.883 36.656H760.883C760.883 39.2968 760.178 41.6447 758.771 43.7546L760.435 44.864L762.099 45.9734C763.957 43.1873 764.883 40.0632 764.883 36.656H762.883ZM760.435 44.864L758.771 43.7546C757.404 45.8057 755.392 47.3623 752.614 48.3878L753.307 50.264L754 52.1402C757.463 50.8617 760.203 48.8183 762.099 45.9734L760.435 44.864ZM753.307 50.264L751.541 51.2023L762.557 71.9383L764.323 71L766.089 70.0617L755.073 49.3257L753.307 50.264ZM764.323 71V69H746.467V71V73H764.323V71ZM746.467 71L748.266 70.1257L739.482 52.0537L737.683 52.928L735.884 53.8023L744.668 71.8743L746.467 71ZM737.683 52.928V50.928H731.779V52.928V54.928H737.683V52.928ZM731.779 52.928H729.779V71H731.779H733.779V52.928H731.779ZM731.779 71V69H715.867V71V73H731.779V71ZM715.867 71H717.867V21.464H715.867H713.867V71H715.867ZM715.867 21.464V23.464H746.179V21.464V19.464H715.867V21.464ZM746.179 21.464V23.464C749.472 23.464 752.143 24.1085 754.277 25.2987L755.251 23.552L756.225 21.8053C753.367 20.2115 749.99 19.464 746.179 19.464V21.464ZM755.251 23.552L754.317 25.3204C756.536 26.4929 758.128 28.0644 759.172 30.0334L760.939 29.096L762.706 28.1586C761.255 25.4236 759.054 23.2991 756.185 21.7836L755.251 23.552ZM760.939 29.096L759.196 30.0765C760.317 32.0704 760.883 34.2509 760.883 36.656H762.883H764.883C764.883 33.589 764.153 30.7296 762.682 28.1155L760.939 29.096ZM746.683 37.304H748.683C748.683 35.5133 748.065 33.9134 746.801 32.6498L745.387 34.064L743.973 35.4782C744.437 35.9426 744.683 36.5027 744.683 37.304H746.683ZM745.387 34.064L746.801 32.6498C745.553 31.4018 743.985 30.768 742.219 30.768V32.768V34.768C742.949 34.768 743.493 34.9982 743.973 35.4782L745.387 34.064ZM742.219 32.768V30.768H731.779V32.768V34.768H742.219V32.768ZM731.779 32.768H729.779V41.912H731.779H733.779V32.768H731.779ZM731.779 41.912V43.912H742.219V41.912V39.912H731.779V41.912ZM742.219 41.912V43.912C743.985 43.912 745.553 43.2782 746.801 42.0302L745.387 40.616L743.973 39.2018C743.493 39.6818 742.949 39.912 742.219 39.912V41.912ZM745.387 40.616L746.839 41.9915C748.067 40.6952 748.683 39.0938 748.683 37.304H746.683H744.683C744.683 38.1062 744.435 38.7128 743.935 39.2405L745.387 40.616ZM805.098 71L803.182 71.5729L803.609 73H805.098V71ZM803.01 64.016L804.926 63.4431L804.5 62.016H803.01V64.016ZM785.658 64.016V62.016H784.169L783.742 63.4431L785.658 64.016ZM783.57 71V73H785.06L785.486 71.5729L783.57 71ZM767.298 71L765.419 70.3145L764.44 73H767.298V71ZM785.37 21.464V19.464H783.971L783.491 20.7785L785.37 21.464ZM803.874 21.464L805.753 20.7785L805.273 19.464H803.874V21.464ZM821.946 71V73H824.805L823.825 70.3145L821.946 71ZM788.97 52.928L787.053 52.3569L786.287 54.928H788.97V52.928ZM799.698 52.928V54.928H802.37L801.617 52.3641L799.698 52.928ZM794.514 35.288L796.433 34.7241L796.011 33.288H794.514V35.288ZM794.226 35.288V33.288H792.735L792.309 34.7169L794.226 35.288ZM805.098 71L807.014 70.4271L804.926 63.4431L803.01 64.016L801.094 64.5889L803.182 71.5729L805.098 71ZM803.01 64.016V62.016H785.658V64.016V66.016H803.01V64.016ZM785.658 64.016L783.742 63.4431L781.654 70.4271L783.57 71L785.486 71.5729L787.574 64.5889L785.658 64.016ZM783.57 71V69H767.298V71V73H783.57V71ZM767.298 71L769.177 71.6855L787.249 22.1495L785.37 21.464L783.491 20.7785L765.419 70.3145L767.298 71ZM785.37 21.464V23.464H803.874V21.464V19.464H785.37V21.464ZM803.874 21.464L801.995 22.1495L820.067 71.6855L821.946 71L823.825 70.3145L805.753 20.7785L803.874 21.464ZM821.946 71V69H805.098V71V73H821.946V71ZM788.97 52.928V54.928H799.698V52.928V50.928H788.97V52.928ZM799.698 52.928L801.617 52.3641L796.433 34.7241L794.514 35.288L792.595 35.8519L797.779 53.4919L799.698 52.928ZM794.514 35.288V33.288H794.226V35.288V37.288H794.514V35.288ZM794.226 35.288L792.309 34.7169L787.053 52.3569L788.97 52.928L790.887 53.4991L796.143 35.8591L794.226 35.288ZM863.369 71L861.857 72.3087L862.455 73H863.369V71ZM842.561 46.952L844.074 45.6433L840.561 41.584V46.952H842.561ZM842.561 71V73H844.561V71H842.561ZM827.945 71H825.945V73H827.945V71ZM827.945 21.464V19.464H825.945V21.464H827.945ZM841.841 21.464L843.363 20.1665L842.764 19.464H841.841V21.464ZM862.649 45.872L861.127 47.1695L864.649 51.3008V45.872H862.649ZM862.649 21.464V19.464H860.649V21.464H862.649ZM877.265 21.464H879.265V19.464H877.265V21.464ZM877.265 71V73H879.265V71H877.265ZM863.369 71L864.882 69.6913L844.074 45.6433L842.561 46.952L841.049 48.2607L861.857 72.3087L863.369 71ZM842.561 46.952H840.561V71H842.561H844.561V46.952H842.561ZM842.561 71V69H827.945V71V73H842.561V71ZM827.945 71H829.945V21.464H827.945H825.945V71H827.945ZM827.945 21.464V23.464H841.841V21.464V19.464H827.945V21.464ZM841.841 21.464L840.319 22.7615L861.127 47.1695L862.649 45.872L864.171 44.5745L843.363 20.1665L841.841 21.464ZM862.649 45.872H864.649V21.464H862.649H860.649V45.872H862.649ZM862.649 21.464V23.464H877.265V21.464V19.464H862.649V21.464ZM877.265 21.464H875.265V71H877.265H879.265V21.464H877.265ZM877.265 71V69H863.369V71V73H877.265V71ZM887.922 71H885.922V73H887.922V71ZM887.922 21.464V19.464H885.922V21.464H887.922ZM903.834 59.12H901.834V61.12H903.834V59.12ZM903.834 33.344V31.344H901.834V33.344H903.834ZM909.378 21.464V23.464C917.757 23.464 923.67 25.4618 927.492 29.1039C931.296 32.7288 933.37 38.3095 933.37 46.232H935.37H937.37C937.37 37.6425 935.111 30.8392 930.251 26.2081C925.41 21.5942 918.327 19.464 909.378 19.464V21.464ZM935.37 46.232H933.37C933.37 54.1545 931.296 59.7352 927.492 63.3601C923.67 67.0022 917.757 69 909.378 69V71V73C918.327 73 925.41 70.8698 930.251 66.2559C935.111 61.6248 937.37 54.8215 937.37 46.232H935.37ZM909.378 71V69H887.922V71V73H909.378V71ZM887.922 71H889.922V21.464H887.922H885.922V71H887.922ZM887.922 21.464V23.464H909.378V21.464V19.464H887.922V21.464ZM903.834 59.12V61.12H909.09V59.12V57.12H903.834V59.12ZM909.09 59.12V61.12C912.771 61.12 915.89 60.1269 918.058 57.8023C920.202 55.5038 921.098 52.2431 921.098 48.392H919.098H917.098C917.098 51.6929 916.325 53.7962 915.133 55.0737C913.966 56.3251 912.081 57.12 909.09 57.12V59.12ZM919.098 48.392H921.098V44.072H919.098H917.098V48.392H919.098ZM919.098 44.072H921.098C921.098 40.2209 920.202 36.9602 918.058 34.6617C915.89 32.3371 912.771 31.344 909.09 31.344V33.344V35.344C912.081 35.344 913.966 36.1389 915.133 37.3903C916.325 38.6678 917.098 40.7711 917.098 44.072H919.098ZM909.09 33.344V31.344H903.834V33.344V35.344H909.09V33.344ZM903.834 33.344H901.834V59.12H903.834H905.834V33.344H903.834ZM1003.36 71L1001.85 72.3087L1002.45 73H1003.36V71ZM982.553 46.952L984.066 45.6433L980.553 41.584V46.952H982.553ZM982.553 71V73H984.553V71H982.553ZM967.937 71H965.937V73H967.937V71ZM967.937 21.464V19.464H965.937V21.464H967.937ZM981.833 21.464L983.355 20.1665L982.757 19.464H981.833V21.464ZM1002.64 45.872L1001.12 47.1695L1004.64 51.3008V45.872H1002.64ZM1002.64 21.464V19.464H1000.64V21.464H1002.64ZM1017.26 21.464H1019.26V19.464H1017.26V21.464ZM1017.26 71V73H1019.26V71H1017.26ZM1003.36 71L1004.87 69.6913L984.066 45.6433L982.553 46.952L981.041 48.2607L1001.85 72.3087L1003.36 71ZM982.553 46.952H980.553V71H982.553H984.553V46.952H982.553ZM982.553 71V69H967.937V71V73H982.553V71ZM967.937 71H969.937V21.464H967.937H965.937V71H967.937ZM967.937 21.464V23.464H981.833V21.464V19.464H967.937V21.464ZM981.833 21.464L980.311 22.7615L1001.12 47.1695L1002.64 45.872L1004.16 44.5745L983.355 20.1665L981.833 21.464ZM1002.64 45.872H1004.64V21.464H1002.64H1000.64V45.872H1002.64ZM1002.64 21.464V23.464H1017.26V21.464V19.464H1002.64V21.464ZM1017.26 21.464H1015.26V71H1017.26H1019.26V21.464H1017.26ZM1017.26 71V69H1003.36V71V73H1017.26V71ZM1027.91 21.464V19.464H1025.91V21.464H1027.91ZM1070.75 21.464H1072.75V19.464H1070.75V21.464ZM1070.75 33.344V35.344H1072.75V33.344H1070.75ZM1043.83 33.344V31.344H1041.83V33.344H1043.83ZM1043.83 40.184H1041.83V42.184H1043.83V40.184ZM1066.87 40.184H1068.87V38.184H1066.87V40.184ZM1066.87 51.56V53.56H1068.87V51.56H1066.87ZM1043.83 51.56V49.56H1041.83V51.56H1043.83ZM1043.83 59.12H1041.83V61.12H1043.83V59.12ZM1071.26 59.12H1073.26V57.12H1071.26V59.12ZM1071.26 71V73H1073.26V71H1071.26ZM1027.91 71H1025.91V73H1027.91V71ZM1027.91 21.464V23.464H1070.75V21.464V19.464H1027.91V21.464ZM1070.75 21.464H1068.75V33.344H1070.75H1072.75V21.464H1070.75ZM1070.75 33.344V31.344H1043.83V33.344V35.344H1070.75V33.344ZM1043.83 33.344H1041.83V40.184H1043.83H1045.83V33.344H1043.83ZM1043.83 40.184V42.184H1066.87V40.184V38.184H1043.83V40.184ZM1066.87 40.184H1064.87V51.56H1066.87H1068.87V40.184H1066.87ZM1066.87 51.56V49.56H1043.83V51.56V53.56H1066.87V51.56ZM1043.83 51.56H1041.83V59.12H1043.83H1045.83V51.56H1043.83ZM1043.83 59.12V61.12H1071.26V59.12V57.12H1043.83V59.12ZM1071.26 59.12H1069.26V71H1071.26H1073.26V59.12H1071.26ZM1071.26 71V69H1027.91V71V73H1071.26V71ZM1027.91 71H1029.91V21.464H1027.91H1025.91V71H1027.91ZM1117.1 71L1115.14 71.4156L1115.48 73H1117.1V71ZM1110.69 40.832L1112.65 40.4164L1112.31 38.832H1110.69V40.832ZM1110.4 40.832V38.832H1108.78L1108.45 40.4164L1110.4 40.832ZM1103.99 71V73H1105.61L1105.95 71.4156L1103.99 71ZM1086.5 71L1084.55 71.4557L1084.91 73H1086.5V71ZM1074.91 21.464V19.464H1072.38L1072.96 21.9197L1074.91 21.464ZM1091.47 21.464L1093.43 21.0669L1093.1 19.464H1091.47V21.464ZM1097.15 49.544L1095.19 49.9411L1095.52 51.544H1097.15V49.544ZM1097.44 49.544V51.544H1099.08L1099.4 49.9362L1097.44 49.544ZM1103.06 21.464V19.464H1101.42L1101.1 21.0718L1103.06 21.464ZM1118.75 21.464L1120.71 21.0477L1120.37 19.464H1118.75V21.464ZM1124.73 49.544L1122.77 49.9603L1123.11 51.544H1124.73V49.544ZM1125.02 49.544V51.544H1126.68L1126.98 49.9168L1125.02 49.544ZM1130.35 21.464V19.464H1128.69L1128.38 21.0912L1130.35 21.464ZM1146.19 21.464L1148.13 21.9197L1148.71 19.464H1146.19V21.464ZM1134.59 71V73H1136.18L1136.54 71.4557L1134.59 71ZM1117.1 71L1119.06 70.5844L1112.65 40.4164L1110.69 40.832L1108.73 41.2475L1115.14 71.4156L1117.1 71ZM1110.69 40.832V38.832H1110.4V40.832V42.832H1110.69V40.832ZM1110.4 40.832L1108.45 40.4164L1102.04 70.5844L1103.99 71L1105.95 71.4156L1112.36 41.2475L1110.4 40.832ZM1103.99 71V69H1086.5V71V73H1103.99V71ZM1086.5 71L1088.45 70.5443L1076.85 21.0083L1074.91 21.464L1072.96 21.9197L1084.55 71.4557L1086.5 71ZM1074.91 21.464V23.464H1091.47V21.464V19.464H1074.91V21.464ZM1091.47 21.464L1089.51 21.8611L1095.19 49.9411L1097.15 49.544L1099.12 49.1469L1093.43 21.0669L1091.47 21.464ZM1097.15 49.544V51.544H1097.44V49.544V47.544H1097.15V49.544ZM1097.44 49.544L1099.4 49.9362L1105.02 21.8562L1103.06 21.464L1101.1 21.0718L1095.48 49.1518L1097.44 49.544ZM1103.06 21.464V23.464H1118.75V21.464V19.464H1103.06V21.464ZM1118.75 21.464L1116.8 21.8803L1122.77 49.9603L1124.73 49.544L1126.69 49.1277L1120.71 21.0477L1118.75 21.464ZM1124.73 49.544V51.544H1125.02V49.544V47.544H1124.73V49.544ZM1125.02 49.544L1126.98 49.9168L1132.31 21.8368L1130.35 21.464L1128.38 21.0912L1123.05 49.1712L1125.02 49.544ZM1130.35 21.464V23.464H1146.19V21.464V19.464H1130.35V21.464ZM1146.19 21.464L1144.24 21.0083L1132.65 70.5443L1134.59 71L1136.54 71.4557L1148.13 21.9197L1146.19 21.464ZM1134.59 71V69H1117.1V71V73H1134.59V71Z" fill="white" mask="url(#path-1-outside-1_70_23)"/>
<path d="M617.716 78.692V16.052H603.532V78.692H617.716Z" fill="white"/>
<path d="M151.38 72.5V54.644C151.38 52.436 151.452 50.18 151.596 47.876C151.788 45.524 151.98 43.556 152.172 41.972C152.364 40.388 152.484 39.38 152.532 38.948H152.244L143.1 72.5H130.644L121.428 39.02H121.14C121.188 39.452 121.308 40.46 121.5 42.044C121.74 43.58 121.956 45.524 122.148 47.876C122.34 50.18 122.436 52.436 122.436 54.644V72.5H107.82V22.964H130.284L137.772 51.548H138.06L145.476 22.964H167.148V72.5H151.38ZM226.14 52.556C226.14 59.324 224.004 64.484 219.732 68.036C215.46 71.588 209.388 73.364 201.516 73.364C193.644 73.364 187.548 71.588 183.228 68.036C178.956 64.484 176.82 59.324 176.82 52.556V22.964H192.732V52.34C192.732 55.124 193.476 57.356 194.964 59.036C196.452 60.668 198.612 61.484 201.444 61.484C204.276 61.484 206.436 60.644 207.924 58.964C209.46 57.284 210.228 55.076 210.228 52.34V22.964H226.14V52.556ZM287.485 72.5H268.189L259.045 57.092H258.757L249.613 72.5H231.757L249.469 46.292L233.485 22.964H252.709L260.197 35.636H260.485L268.045 22.964H285.829L269.773 46.364L287.485 72.5ZM293.556 72.5V22.964H309.468V72.5H293.556ZM373.309 35.636V72.5H357.397V35.636H341.125V22.964H389.509V35.636H373.309ZM396.758 22.964H439.598V34.844H412.67V41.684H435.71V53.06H412.67V60.62H440.102V72.5H396.758V22.964ZM481.911 72.5L479.823 65.516H462.471L460.383 72.5H444.111L462.183 22.964H480.687L498.759 72.5H481.911ZM465.783 54.428H476.511L471.327 36.788H471.039L465.783 54.428ZM547.31 72.5V54.644C547.31 52.436 547.382 50.18 547.526 47.876C547.718 45.524 547.91 43.556 548.102 41.972C548.294 40.388 548.414 39.38 548.462 38.948H548.174L539.03 72.5H526.574L517.358 39.02H517.07C517.118 39.452 517.238 40.46 517.43 42.044C517.67 43.58 517.886 45.524 518.078 47.876C518.27 50.18 518.366 52.436 518.366 54.644V72.5H503.75V22.964H526.214L533.702 51.548H533.99L541.406 22.964H563.078V72.5H547.31Z" fill="#FFFE54"/>
<path d="M88 43.9686C70.7389 45.5367 60.8217 46.9793 54.7332 51.7463C47.5777 57.3286 45.883 67.5524 44 88C42.0542 66.7997 40.2967 56.6386 32.4508 51.1818C26.3623 46.9166 16.5078 45.5367 0 44.0314C17.1983 42.4633 27.1783 41.0207 33.204 36.3165C40.4223 30.6714 42.117 20.5103 44 0C45.7575 18.8795 47.3267 28.9779 53.1641 34.8111C59.0014 40.6443 69.1698 42.2751 88 43.9686Z" fill="#FFFE54"/>
</svg>
