<svg width="242" height="30" viewBox="0 0 242 30" fill="none" xmlns="http://www.w3.org/2000/svg">
<path fill-rule="evenodd" clip-rule="evenodd" d="M0.623273 25.6962C-0.207758 26.6807 -0.207758 28.277 0.623273 29.2616C1.4543 30.2461 2.80167 30.2461 3.6327 29.2616L24.6987 4.30381C25.5297 3.31926 25.5297 1.72297 24.6987 0.738417C23.8677 -0.24614 22.5203 -0.246139 21.6893 0.738417L0.623273 25.6962ZM24.6986 25.6962C23.8676 26.6807 23.8676 28.277 24.6986 29.2616C25.5296 30.2461 26.877 30.2461 27.708 29.2616L48.774 4.30381C49.6051 3.31926 49.6051 1.72297 48.774 0.738417C47.943 -0.24614 46.5956 -0.246139 45.7646 0.738417L24.6986 25.6962ZM48.7739 29.2616C47.9429 28.277 47.9429 26.6807 48.7739 25.6962L69.8399 0.738417C70.671 -0.246139 72.0183 -0.24614 72.8494 0.738417C73.6804 1.72297 73.6804 3.31926 72.8494 4.30381L51.7834 29.2616C50.9523 30.2461 49.605 30.2461 48.7739 29.2616ZM72.8493 25.6962C72.0182 26.6807 72.0182 28.277 72.8493 29.2616C73.6803 30.2461 75.0277 30.2461 75.8587 29.2616L96.9247 4.30381C97.7557 3.31926 97.7557 1.72297 96.9247 0.738417C96.0937 -0.24614 94.7463 -0.246139 93.9153 0.738417L72.8493 25.6962ZM96.9246 29.2616C96.0936 28.277 96.0936 26.6807 96.9246 25.6962L117.991 0.738417C118.822 -0.246139 120.169 -0.24614 121 0.738417C121.831 1.72297 121.831 3.31926 121 4.30381L99.934 29.2616C99.103 30.2461 97.7556 30.2461 96.9246 29.2616ZM121 25.6962C120.169 26.6807 120.169 28.277 121 29.2616C121.831 30.2461 123.178 30.2461 124.009 29.2616L145.075 4.30381C145.906 3.31926 145.906 1.72297 145.075 0.738417C144.244 -0.24614 142.897 -0.246139 142.066 0.738417L121 25.6962ZM145.075 29.2616C144.244 28.277 144.244 26.6807 145.075 25.6962L166.141 0.738417C166.972 -0.246139 168.32 -0.24614 169.151 0.738417C169.982 1.72297 169.982 3.31926 169.151 4.30381L148.085 29.2616C147.254 30.2461 145.906 30.2461 145.075 29.2616ZM169.151 25.6962C168.32 26.6807 168.32 28.277 169.151 29.2616C169.982 30.2461 171.329 30.2461 172.16 29.2616L193.226 4.30381C194.057 3.31926 194.057 1.72297 193.226 0.738417C192.395 -0.24614 191.048 -0.246139 190.217 0.738417L169.151 25.6962ZM193.226 29.2616C192.395 28.277 192.395 26.6807 193.226 25.6962L214.292 0.738417C215.123 -0.246139 216.47 -0.24614 217.301 0.738417C218.132 1.72297 218.132 3.31926 217.301 4.30381L196.235 29.2616C195.404 30.2461 194.057 30.2461 193.226 29.2616ZM217.301 25.6962C216.47 26.6807 216.47 28.277 217.301 29.2616C218.132 30.2461 219.48 30.2461 220.311 29.2616L241.377 4.30381C242.208 3.31926 242.208 1.72297 241.377 0.738417C240.546 -0.24614 239.198 -0.246139 238.367 0.738417L217.301 25.6962Z" fill="white"/>
</svg>
