<svg width="242" height="48" viewBox="0 0 242 48" fill="none" xmlns="http://www.w3.org/2000/svg">
<path fill-rule="evenodd" clip-rule="evenodd" d="M0.623273 41.1139C-0.207758 42.6892 -0.207758 45.2432 0.623273 46.8185C1.4543 48.3938 2.80167 48.3938 3.6327 46.8185L24.6987 6.8861C25.5297 5.31081 25.5297 2.75676 24.6987 1.18147C23.8677 -0.393823 22.5203 -0.393822 21.6893 1.18147L0.623273 41.1139ZM24.6986 41.1139C23.8676 42.6892 23.8676 45.2432 24.6986 46.8185C25.5296 48.3938 26.877 48.3938 27.708 46.8185L48.774 6.8861C49.6051 5.31081 49.6051 2.75676 48.774 1.18147C47.943 -0.393823 46.5956 -0.393822 45.7646 1.18147L24.6986 41.1139ZM48.7739 46.8185C47.9429 45.2432 47.9429 42.6892 48.7739 41.1139L69.8399 1.18147C70.671 -0.393822 72.0183 -0.393823 72.8494 1.18147C73.6804 2.75676 73.6804 5.31081 72.8494 6.8861L51.7834 46.8185C50.9523 48.3938 49.605 48.3938 48.7739 46.8185ZM72.8493 41.1139C72.0182 42.6892 72.0182 45.2432 72.8493 46.8185C73.6803 48.3938 75.0277 48.3938 75.8587 46.8185L96.9247 6.8861C97.7557 5.31081 97.7557 2.75676 96.9247 1.18147C96.0937 -0.393823 94.7463 -0.393822 93.9153 1.18147L72.8493 41.1139ZM96.9246 46.8185C96.0936 45.2432 96.0936 42.6892 96.9246 41.1139L117.991 1.18147C118.822 -0.393822 120.169 -0.393823 121 1.18147C121.831 2.75676 121.831 5.31081 121 6.8861L99.934 46.8185C99.103 48.3938 97.7556 48.3938 96.9246 46.8185ZM121 41.1139C120.169 42.6892 120.169 45.2432 121 46.8185C121.831 48.3938 123.178 48.3938 124.009 46.8185L145.075 6.8861C145.906 5.31081 145.906 2.75676 145.075 1.18147C144.244 -0.393823 142.897 -0.393822 142.066 1.18147L121 41.1139ZM145.075 46.8185C144.244 45.2432 144.244 42.6892 145.075 41.1139L166.141 1.18147C166.972 -0.393822 168.32 -0.393823 169.151 1.18147C169.982 2.75676 169.982 5.31081 169.151 6.8861L148.085 46.8185C147.254 48.3938 145.906 48.3938 145.075 46.8185ZM169.151 41.1139C168.32 42.6892 168.32 45.2432 169.151 46.8185C169.982 48.3938 171.329 48.3938 172.16 46.8185L193.226 6.8861C194.057 5.31081 194.057 2.75676 193.226 1.18147C192.395 -0.393823 191.048 -0.393822 190.217 1.18147L169.151 41.1139ZM193.226 46.8185C192.395 45.2432 192.395 42.6892 193.226 41.1139L214.292 1.18147C215.123 -0.393822 216.47 -0.393823 217.301 1.18147C218.132 2.75676 218.132 5.31081 217.301 6.8861L196.235 46.8185C195.404 48.3938 194.057 48.3938 193.226 46.8185ZM217.301 41.1139C216.47 42.6892 216.47 45.2432 217.301 46.8185C218.132 48.3938 219.48 48.3938 220.311 46.8185L241.377 6.8861C242.208 5.31081 242.208 2.75676 241.377 1.18147C240.546 -0.393823 239.198 -0.393822 238.367 1.18147L217.301 41.1139Z" fill="white"/>
</svg>
