<svg width="313" height="275" viewBox="0 0 313 275" fill="none" xmlns="http://www.w3.org/2000/svg">
<path d="M124.753 162.157C118.065 158.569 114.855 146.546 115.759 141.162C115.766 141.058 115.773 140.954 115.781 140.85C115.889 139.506 116.034 138.244 116.309 136.773C116.512 135.706 116.785 134.53 117.242 133.14C118.532 129.243 121.035 125.312 125.481 121.244C127.237 119.432 129.083 117.823 131.039 116.351C134.662 113.691 138.345 111.361 143.62 109.749C154.658 107.453 164.691 106.585 176.019 116.155C184.024 124.262 189.233 135.675 190.659 146.509C190.718 146.813 190.775 147.12 190.831 147.431C191.848 152.905 192.2 159.427 191.987 163.883C191.967 164.222 191.95 164.572 191.933 164.919C191.772 169.861 191.659 175.322 189.335 179.732C189.317 179.771 189.299 179.81 189.281 179.848C183.327 190.757 173.264 192.429 165.41 193.987C157.096 195.261 148.42 197.01 138.955 196.688C137.575 196.631 136.207 196.503 134.848 196.299C128.559 195.394 122.475 192.621 117.639 188.681C113.154 185.065 109.634 180.639 106.785 176.013C105.004 173.388 103.489 170.802 102.203 168.36C100.397 164.927 99.0389 161.773 98.1117 159.117C98.0338 158.894 97.9571 158.669 97.8815 158.444C95.7843 152.3 94.4417 145.041 93.9297 139.567C93.8372 138.64 93.7626 137.764 93.7006 136.954C93.1716 133.062 92.8634 129.135 92.7643 125.214C92.7492 124.66 92.7331 124.103 92.7176 123.537C92.7819 123.25 92.849 122.958 92.9183 122.661C93.9185 118.99 93.3196 114.01 95.9804 105.968C96.2904 105.096 96.65 104.2 97.066 103.291C98.3032 100.582 100.087 97.7609 102.522 95.0755C104.646 92.7679 106.101 92.0235 107.238 91.4118C107.577 91.235 107.894 91.0749 108.207 90.9044C109.279 90.3228 110.148 89.3966 111.244 88.346C112.66 86.9926 114.488 85.4018 117.419 84.4329C123.603 82.4544 127.403 81.5265 130.21 80.5802C131.378 80.1695 132.321 79.6982 133.18 79.2642C133.932 78.884 134.623 78.5284 135.365 78.234C137.747 77.2849 141.643 76.5098 144.878 76.4294C145.701 76.4059 146.789 76.2948 148.053 76.1945C150.707 75.9645 153.97 75.9397 156.601 76.1204C158.075 76.2102 160.011 76.6166 162.173 77.2398C164.415 77.8807 166.898 78.7537 169.495 79.6052C169.497 79.606 169.499 79.6067 169.501 79.6075C177.256 82.5115 180.019 85.456 182.462 87.2423C183.136 87.7867 183.746 88.2946 184.344 88.7966C186.238 90.3813 188.392 92.3668 190.461 94.091C190.78 94.3564 191.098 94.616 191.411 94.8662C193.716 96.7106 196.263 98.7107 198.301 100.463C201.173 103.423 204.209 106.909 206.282 111.702C207.561 114.799 208.89 117.93 210.208 121.114C211.616 124.513 212.384 128.107 212.263 131.011C212.146 133.919 211.176 135.862 209.64 136.449C208.1 137.038 206.115 136.268 204.031 134.416C201.948 132.558 199.913 129.754 198.301 126.541C196.796 123.532 195.246 120.502 193.715 117.414C192.55 115.149 190.353 112.773 187.713 110.437C185.97 108.885 184.038 107.337 181.986 105.619C176.675 101.094 172.567 96.5788 168.361 93.8153C167.109 92.9816 165.875 92.3103 164.645 91.8138C160.878 90.2943 157.264 89.0788 153.837 88.5418C153.33 88.4617 152.826 88.3958 152.328 88.3456C151.138 88.3621 149.996 88.4667 148.927 88.6487C146.279 89.0934 143.408 90.0496 140.995 90.7845C138.189 91.6497 135.806 92.082 133.676 92.3585C133.32 92.4055 132.97 92.4492 132.625 92.4911C131.829 92.5649 131.08 92.6763 130.352 92.8794C129.834 93.0239 129.132 93.2423 128.297 93.535C124.869 94.689 119.292 97.3591 115.024 100.464C113.108 101.816 111.01 103.502 109.365 105.391C108.611 106.25 107.947 107.145 107.403 108.029C106.211 109.968 105.568 111.856 105.427 113.065C105.04 116.133 104.787 120.068 104.622 123.942C104.603 124.369 104.584 124.793 104.565 125.214C104.422 128.194 104.481 130.755 104.837 132.259C105.322 134.289 105.361 136.036 105.535 138.655C105.663 140.47 105.859 142.704 106.451 145.702C107.142 149.158 107.61 151.639 108.034 153.753C108.135 154.251 108.233 154.724 108.337 155.189C108.844 157.468 109.421 159.435 110.747 161.886C112.514 165.155 114.448 168.387 115.865 170.935C116.507 172.1 117.358 173.356 118.304 174.585C119.556 176.217 120.976 177.791 122.264 179.208C123.323 180.377 124.134 181.428 124.913 182.331C125.155 182.612 125.395 182.877 125.636 183.124C126.697 183.814 127.8 184.424 128.939 184.942C129.146 184.982 129.362 185.016 129.587 185.05C130.727 185.221 132.093 185.346 133.721 185.563C135.668 185.817 137.413 186.074 139.243 186.246C139.858 186.302 140.486 186.351 141.126 186.387C143.17 186.503 145.37 186.501 147.9 186.146C149.624 185.904 151.59 185.483 153.548 185.024C156.456 184.343 159.365 183.586 161.463 183.312C162.155 183.221 162.79 183.264 163.411 183.325C163.486 183.335 163.562 183.345 163.637 183.354C163.64 183.355 163.643 183.356 163.646 183.356C163.689 183.362 163.733 183.367 163.777 183.372C168.332 182.336 172.784 180.647 175.603 178.228C175.822 177.992 176.028 177.753 176.214 177.516C177.121 176.377 177.513 175.278 177.482 174.539C177.481 174.525 177.479 174.51 177.477 174.496C177.4 173.869 177.688 171.969 177.286 168.179C177.171 166.902 177.018 165.466 176.929 163.883C176.851 162.744 176.753 161.668 176.632 160.701C176.483 159.509 176.643 158.377 176.786 157.213C176.92 156.127 177.038 155.012 176.866 153.83C176.78 153.239 176.621 152.609 176.442 151.949C176.283 151.365 176.109 150.759 175.952 150.122C175.806 149.533 175.696 148.186 175.447 146.497C175.293 145.455 175.083 144.279 174.787 143.074C173.674 139.992 172.233 137.129 170.452 134.495C169.946 134.027 169.432 133.682 168.929 133.485C168.569 133.345 168.2 133.273 167.822 133.203C167.309 133.11 166.784 133.028 166.226 132.794C165.793 132.616 165.419 132.302 165.284 131.99C165.222 131.846 165.212 131.703 165.202 131.572C165.19 131.423 165.178 131.289 165.089 131.19C165.024 131.118 164.911 131.083 164.773 131.04C164.552 130.971 164.271 130.887 164.004 130.605C163.624 130.204 163.235 129.794 162.813 129.36C162.748 129.273 162.529 129.047 162.128 128.795C161.42 128.333 160.174 127.867 159.078 127.693C157.866 127.484 155.935 127.024 153.89 126.858C152.472 126.734 151.033 126.746 149.945 126.907C149.523 126.968 149.117 127.073 148.769 127.199C148.324 127.366 147.767 127.658 147.2 127.998C146.063 128.675 144.892 129.527 143.751 130.041C143.518 130.146 143.119 130.113 142.609 130.09C142.247 130.074 141.83 130.063 141.382 130.107C140.05 131.109 138.777 132.205 137.647 133.337C137.632 133.401 137.617 133.467 137.602 133.533C137.602 133.534 137.602 133.536 137.602 133.537C137.276 135.029 136.993 137.006 135.728 138.029C135.41 138.285 135.063 138.335 134.748 138.391C134.593 138.418 134.448 138.444 134.331 138.481C134.196 138.581 134.083 138.706 134.012 138.874C133.848 139.26 133.899 139.791 133.996 140.351C134.131 141.145 134.358 141.967 134.125 142.786C134.109 142.843 134.092 142.903 134.075 142.967C133.916 143.571 133.735 144.455 133.413 145.419C133.895 147.712 134.776 149.047 136.094 149.833C136.488 150.033 136.866 150.223 137.237 150.407C142.021 152.592 142.181 152.925 146.525 151.119C147.892 150.488 149.015 149.77 149.968 148.882C151.604 147.419 153.364 145.272 155.289 143.407C157.202 141.571 159.099 140.602 160.647 141.088C162.179 141.576 163.317 143.323 163.586 146.295C163.841 149.186 163.02 153.74 159.605 157.733C157.696 159.97 155.379 161.776 153.065 163.142C149.469 165.56 142.242 167.748 136.638 166.08C136.199 165.998 135.776 165.907 135.367 165.808C133.047 165.241 131.227 164.743 129.525 164.354C128.697 164.093 127.879 163.78 127.078 163.413C126.282 163.047 125.504 162.628 124.753 162.157Z" fill="#8B7AE7" fill-opacity="0.64"/>
<path d="M166.779 219.776C167.558 220.234 167.251 221.134 167.083 221.631C167.08 221.64 167.078 221.649 167.075 221.659C167.035 221.776 167.026 221.888 167.016 222.018C166.992 222.329 166.959 222.748 166.478 223.633C166.499 223.888 166.513 224.143 166.517 224.399C166.557 227.159 165.964 229.945 165.242 232.745C165.247 232.78 165.252 232.816 165.257 232.852C165.349 233.55 165.463 234.415 165.189 234.966C164.842 235.666 164.516 236.143 164.235 236.535C163.65 238.765 163.127 240.996 162.918 243.225C162.852 243.924 162.818 244.623 162.822 245.322C162.826 245.966 162.853 246.61 162.9 247.254C163.07 247.629 163.27 247.986 163.456 248.318C163.716 248.784 163.947 249.2 164.022 249.543C164.202 250.371 163.909 251.31 163.689 252.006C163.654 252.119 163.62 252.227 163.59 252.326C163.691 252.881 163.797 253.437 163.905 253.994C163.841 254.03 163.773 254.066 163.704 254.103C162.839 254.565 162.841 255.145 162.839 256.061C162.838 256.46 162.836 256.922 162.76 257.465C162.712 257.815 162.367 257.986 162.086 258.126C162.003 258.167 161.925 258.205 161.863 258.245C161.648 258.38 161.872 258.534 162.137 258.717C162.48 258.954 162.892 259.24 162.501 259.59C161.255 260.7 162.055 261.231 162.662 261.64C162.839 261.76 163 261.868 163.087 261.977C163.37 262.329 163.056 262.802 162.637 263.149C162.305 263.424 162.594 264.017 162.975 264.478C163.119 264.652 163.111 264.878 163.101 265.144C163.09 265.419 163.076 265.737 163.228 266.087C163.611 266.973 163.79 267.446 163.934 267.826C163.975 267.934 164.012 268.035 164.051 268.136C164.174 268.456 164.266 268.849 164.358 269.247C164.467 269.724 164.577 270.21 164.742 270.587C164.466 271.508 164.136 272.426 163.8 273.338C163.626 273.808 162.847 274.201 161.602 274.419C160.356 274.638 158.757 274.665 157.118 274.501C155.479 274.337 153.917 273.996 152.735 273.558C151.554 273.119 150.858 272.621 150.768 272.161C150.589 271.234 150.404 270.309 150.264 269.39C150.095 268.27 149.995 267.158 150.061 266.055C150.107 265.284 150.188 264.513 150.296 263.742C150.308 263.663 150.32 263.584 150.331 263.504C149.958 262.834 149.617 262.17 149.505 261.708C149.412 261.326 149.639 261.059 149.832 260.83C149.966 260.673 150.084 260.533 150.071 260.386C150.064 260.308 150.043 260.2 150.017 260.07C149.913 259.539 149.733 258.641 150.15 257.834C150.336 257.476 150.692 257.063 151.031 256.666C151.517 256.099 151.967 255.566 151.837 255.291C151.608 254.808 151.818 254.262 152.003 253.778C152.179 253.316 152.332 252.911 152.06 252.677C151.735 252.398 151.871 252.164 152.072 251.815C152.211 251.574 152.381 251.276 152.451 250.871C152.531 250.403 152.762 250.072 152.959 249.791C153.235 249.394 153.442 249.095 153.062 248.648C152.64 248.153 152.371 247.636 152.503 247.228C152.564 247.043 152.548 246.83 152.532 246.609C152.511 246.316 152.488 246.009 152.638 245.727C152.762 245.494 153.081 245.301 153.363 245.129C153.45 245.076 153.534 245.024 153.608 244.975C153.603 244.79 153.596 244.605 153.585 244.42C153.533 244.39 153.476 244.359 153.417 244.327C153.121 244.164 152.757 243.964 152.575 243.715C152.286 243.32 152.461 242.97 152.647 242.601C152.792 242.313 152.943 242.013 152.884 241.672C152.844 241.439 152.71 241.175 152.577 240.913C152.38 240.525 152.186 240.142 152.303 239.872C152.346 239.771 152.546 239.681 152.745 239.593C152.746 239.593 152.747 239.592 152.748 239.592C152.762 239.586 152.775 239.58 152.788 239.574C152.626 238.922 152.448 238.271 152.26 237.619C152.208 237.563 152.156 237.507 152.105 237.451C151.856 237.177 151.614 236.911 151.274 236.741C150.905 236.556 150.684 236.081 150.451 235.58C150.299 235.252 150.141 234.912 149.933 234.636C149.812 234.475 150.016 234.317 150.227 234.154C150.423 234.002 150.625 233.845 150.571 233.679C150.544 233.596 150.457 233.507 150.364 233.412C150.282 233.329 150.195 233.24 150.141 233.147C150.091 233.061 150.2 232.864 150.339 232.612C150.425 232.456 150.522 232.279 150.601 232.094C150.463 231.61 150.331 231.125 150.208 230.64C150.024 230.542 149.787 230.457 149.484 230.393C149.266 230.347 149.006 230.309 148.741 230.269C148.379 230.216 148.006 230.161 147.707 230.081C147.474 230.019 147.38 229.942 147.475 229.888C147.52 229.862 147.604 229.842 147.681 229.824C147.768 229.802 147.846 229.784 147.843 229.762C147.841 229.747 147.779 229.732 147.703 229.714C147.582 229.684 147.427 229.646 147.42 229.584C147.395 229.352 147.44 229.088 147.485 228.829C147.535 228.541 147.583 228.259 147.533 228.036C147.476 227.786 147.701 227.424 147.925 227.062C148.082 226.809 148.237 226.556 148.299 226.34C148.36 226.129 148.229 225.911 148.101 225.701C147.948 225.448 147.8 225.204 147.999 224.993C148.039 224.95 148.289 224.894 148.601 224.823C148.822 224.773 149.075 224.716 149.308 224.652C149.304 224.386 149.31 224.12 149.325 223.854C149.291 223.845 149.257 223.836 149.221 223.827C149.22 223.827 149.22 223.827 149.219 223.827C148.42 223.62 147.327 223.335 147.971 222.906C148.135 222.796 148.439 222.725 148.713 222.661C148.981 222.598 149.222 222.542 149.272 222.464C149.328 222.375 149.161 222.272 148.98 222.161C148.725 222.004 148.441 221.828 148.701 221.646C148.719 221.633 148.739 221.62 148.758 221.606C148.944 221.474 149.218 221.278 149.773 221.081C149.916 220.512 150.084 219.942 150.269 219.372C150.578 218.422 150.934 217.471 151.291 216.523C151.467 216.061 152.225 215.617 153.438 215.291C154.653 214.964 156.215 214.783 157.831 214.783C159.447 214.783 161.008 214.964 162.224 215.281C163.438 215.599 164.197 216.028 164.376 216.477C164.665 217.209 164.956 217.941 165.226 218.673C165.259 218.711 165.292 218.75 165.323 218.788C165.551 219.072 166.008 219.334 166.466 219.595C166.571 219.655 166.677 219.715 166.779 219.776Z" fill="#8B7AE7" fill-opacity="0.64"/>
<path d="M105.253 212.217C105.592 213.191 104.64 214.114 104.121 214.565C104.112 214.574 104.102 214.582 104.093 214.591C103.969 214.701 103.876 214.819 103.767 214.955C103.509 215.277 103.151 215.73 102.08 216.324C101.897 216.594 101.708 216.852 101.508 217.103C99.3516 219.808 96.6617 221.647 93.9872 223.193C93.9629 223.223 93.9383 223.252 93.9134 223.283C93.4321 223.866 92.8382 224.574 92.2304 224.764C91.4579 225.005 90.8756 225.097 90.3904 225.161C88.3138 226.276 86.3272 227.375 84.7 228.705C84.2658 229.06 83.8602 229.431 83.4982 229.811C83.424 229.889 83.3503 229.968 83.2772 230.047C82.8245 230.539 82.3891 231.043 81.9699 231.558C81.8287 231.955 81.7234 232.359 81.6252 232.734C81.4866 233.26 81.3639 233.726 81.1775 234.032C80.7297 234.768 79.8654 235.258 79.227 235.618C79.1226 235.677 79.0239 235.732 78.9341 235.785C78.6263 236.26 78.3245 236.74 78.0268 237.22C77.9548 237.202 77.8805 237.183 77.8047 237.163C76.8581 236.912 76.4655 237.339 75.853 238.009C75.5864 238.301 75.2779 238.638 74.8653 238.987C74.5995 239.211 74.23 239.108 73.928 239.025C73.8392 239 73.7561 238.977 73.6833 238.965C73.4339 238.922 73.5009 239.185 73.5808 239.495C73.6843 239.898 73.8108 240.379 73.2923 240.381C71.6381 240.389 71.9095 241.315 72.1217 242.006C72.1838 242.209 72.24 242.392 72.2405 242.528C72.2418 242.97 71.7148 243.119 71.1797 243.115C70.7553 243.112 70.6237 243.742 70.6538 244.322C70.6651 244.542 70.528 244.706 70.3668 244.899C70.2002 245.099 70.0075 245.33 69.9313 245.686C69.7405 246.582 69.6352 247.042 69.5494 247.412C69.5251 247.517 69.502 247.614 69.4806 247.713C69.4132 248.024 69.2854 248.371 69.16 248.722C69.0099 249.141 68.863 249.566 68.8213 249.938C68.1524 250.474 67.4566 250.989 66.7738 251.516C66.4218 251.786 65.5867 251.696 64.4057 251.268C63.2249 250.838 61.8019 250.109 60.4312 249.196C59.0607 248.283 57.8432 247.243 57.0355 246.263C56.2281 245.285 55.9029 244.453 56.0952 243.955C56.4829 242.955 56.8917 241.963 57.358 241.015C57.9255 239.861 58.5778 238.771 59.3741 237.814C59.9311 237.145 60.5229 236.512 61.1402 235.91C61.2037 235.848 61.2678 235.786 61.3319 235.725C61.5007 234.915 61.7034 234.132 61.943 233.668C62.1411 233.284 62.5054 233.204 62.8164 233.137C63.0304 233.09 63.2197 233.05 63.3135 232.92C63.3639 232.851 63.424 232.748 63.4967 232.624C63.793 232.118 64.3003 231.261 65.1896 230.89C65.5842 230.725 66.1453 230.633 66.6799 230.547C67.4443 230.425 68.1544 230.316 68.2535 230.016C68.4276 229.487 68.97 229.209 69.4488 228.965C69.9052 228.733 70.3035 228.53 70.2705 228.168C70.2307 227.735 70.4958 227.651 70.8886 227.526C71.1609 227.439 71.4945 227.333 71.831 227.077C72.219 226.783 72.62 226.695 72.9601 226.621C73.4386 226.516 73.7997 226.436 73.8348 225.846C73.8746 225.189 74.0369 224.624 74.416 224.414C74.5886 224.319 74.7239 224.152 74.8647 223.979C75.0511 223.748 75.245 223.508 75.5486 223.403C75.7983 223.317 76.1635 223.392 76.487 223.458C76.5262 223.466 76.5647 223.474 76.6024 223.482C76.6638 223.491 76.723 223.499 76.7788 223.505C76.9145 223.352 77.0503 223.198 77.1853 223.041C77.1708 222.981 77.1536 222.917 77.1363 222.849C77.0494 222.512 76.9396 222.103 77.0054 221.776C77.113 221.254 77.5032 221.114 77.9242 220.961C78.2488 220.845 78.5824 220.732 78.8077 220.433C78.9586 220.233 79.0683 219.943 79.1804 219.654C79.3465 219.226 79.5059 218.811 79.795 218.701C79.9036 218.659 80.1061 218.743 80.3086 218.826C80.3097 218.827 80.3109 218.827 80.312 218.828C80.3257 218.834 80.3392 218.839 80.3529 218.845C80.7407 218.263 81.1164 217.675 81.481 217.085C81.4876 217.008 81.4952 216.931 81.5029 216.854C81.5404 216.482 81.5782 216.118 81.4741 215.752C81.3615 215.354 81.5699 214.863 81.7786 214.354C81.9164 214.02 82.0579 213.675 82.1151 213.338C82.1489 213.141 82.4019 213.185 82.6629 213.229C82.9064 213.271 83.1561 213.313 83.2381 213.163C83.2791 213.088 83.2826 212.965 83.286 212.834C83.2889 212.719 83.2917 212.597 83.3202 212.495C83.347 212.401 83.5603 212.35 83.8321 212.284C84.0001 212.243 84.1905 212.195 84.3739 212.129C84.6142 211.708 84.8519 211.293 85.0892 210.886C85.0261 210.691 84.9148 210.468 84.743 210.211C84.6197 210.026 84.461 209.818 84.2985 209.605C84.0773 209.315 83.8483 209.016 83.6873 208.754C83.5615 208.55 83.5432 208.436 83.6453 208.469C83.693 208.484 83.7658 208.53 83.8318 208.572C83.9073 208.62 83.9745 208.663 83.9861 208.647C83.9944 208.636 83.9593 208.583 83.9171 208.518C83.8496 208.415 83.7624 208.282 83.7964 208.238C83.9233 208.075 84.1177 207.941 84.3075 207.809C84.5185 207.662 84.7217 207.519 84.8163 207.346C84.9225 207.152 85.2974 207.08 85.6694 207.006C85.9289 206.954 86.1884 206.898 86.3547 206.805C86.518 206.713 86.5378 206.491 86.5537 206.278C86.5729 206.021 86.5845 205.779 86.8458 205.777C86.8988 205.777 87.12 205.901 87.3976 206.055C87.5943 206.164 87.8198 206.289 88.0341 206.395C88.1702 206.223 88.3097 206.061 88.4547 205.902C88.4323 205.876 88.4095 205.849 88.3861 205.821C88.3856 205.821 88.385 205.82 88.3844 205.819C87.8594 205.195 87.1165 204.372 87.8219 204.504C88.0021 204.537 88.2793 204.673 88.5295 204.795C88.7752 204.915 88.9959 205.021 89.0716 205.001C89.1575 204.979 89.0674 204.818 88.967 204.647C88.826 204.406 88.6646 204.141 88.9546 204.179C88.9744 204.182 88.9961 204.185 89.018 204.187C89.226 204.212 89.5326 204.248 90.0779 204.429C90.4305 204.151 90.7888 203.889 91.1476 203.628C91.7464 203.192 92.3453 202.764 92.901 202.305C93.1735 202.082 93.9771 202.06 95.213 202.153C96.4486 202.254 98.0058 202.46 99.5742 202.85C101.142 203.239 102.61 203.817 103.658 204.574C104.706 205.328 105.232 206.179 105.167 206.862C105.064 207.962 104.889 209.05 104.655 210.087C104.66 210.15 104.664 210.214 104.666 210.276C104.68 210.74 104.903 211.281 105.113 211.835C105.161 211.962 105.209 212.09 105.253 212.217Z" fill="#8B7AE7" fill-opacity="0.64"/>
<path d="M59.8494 154.465C59.3334 155.225 58.3932 154.886 57.8715 154.703C57.862 154.7 57.8524 154.697 57.8428 154.694C57.7192 154.65 57.6017 154.637 57.464 154.623C57.1354 154.589 56.6937 154.543 55.7699 154.038C55.499 154.053 55.2286 154.061 54.9581 154.058C52.0378 154.034 49.1123 153.414 46.1508 152.716C46.1138 152.721 46.0761 152.726 46.038 152.731C45.3019 152.829 44.3917 152.955 43.8071 152.692C43.0641 152.357 42.554 152.043 42.1335 151.771C39.7643 151.243 37.3796 150.81 35.0089 150.732C34.266 150.707 33.5246 150.718 32.7863 150.77C32.1063 150.818 31.4281 150.894 30.7521 150.993C30.3695 151.192 30.0096 151.421 29.6766 151.635C29.2085 151.935 28.7933 152.202 28.4408 152.308C27.5919 152.564 26.5859 152.367 25.8366 152.224C25.7142 152.201 25.5986 152.178 25.4917 152.16C24.9226 152.321 24.3549 152.491 23.7885 152.664C23.7434 152.604 23.6977 152.542 23.6511 152.477C23.0699 151.674 22.4608 151.748 21.5053 151.868C21.089 151.92 20.6066 151.981 20.031 151.984C19.6601 151.986 19.4328 151.669 19.2466 151.411C19.1918 151.336 19.1405 151.265 19.0903 151.208C18.9181 151.016 18.7888 151.261 18.6368 151.55C18.4394 151.926 18.2046 152.377 17.7824 152.046C16.4337 150.99 16.0015 151.874 15.6818 152.541C15.5877 152.737 15.5024 152.914 15.4054 153.018C15.0909 153.358 14.552 153.132 14.1191 152.783C13.7761 152.506 13.2146 152.901 12.8137 153.363C12.662 153.538 12.4296 153.574 12.1557 153.616C11.8725 153.659 11.5441 153.709 11.217 153.928C10.3906 154.483 9.95219 154.76 9.59824 154.982C9.49747 155.045 9.40353 155.103 9.31003 155.163C9.01453 155.352 8.63962 155.528 8.26075 155.707C7.80719 155.92 7.34707 156.139 7.01103 156.387C6.03086 156.334 5.03954 156.238 4.04886 156.147C3.53912 156.099 2.94859 155.45 2.39667 154.308C1.84494 153.166 1.37827 151.635 1.09832 150.012C0.818411 148.389 0.746375 146.789 0.897875 145.527C1.04931 144.265 1.41361 143.453 1.90042 143.239C2.87972 142.811 3.86464 142.387 4.85864 142.021C6.07085 141.574 7.29888 141.211 8.55387 141.029C9.43169 140.902 10.3161 140.816 11.2042 140.766C11.2957 140.761 11.3873 140.756 11.4788 140.752C12.1629 140.25 12.8528 139.786 13.3573 139.588C13.7738 139.425 14.1155 139.599 14.407 139.749C14.6077 139.852 14.7852 139.943 14.9483 139.905C15.0359 139.884 15.1541 139.844 15.2967 139.796C15.879 139.6 16.8709 139.27 17.8438 139.555C18.2756 139.682 18.7919 139.971 19.2837 140.249C19.987 140.646 20.6395 141.018 20.9307 140.851C21.4424 140.557 22.0804 140.693 22.6425 140.815C23.1787 140.931 23.6466 141.034 23.8783 140.736C24.1552 140.38 24.4321 140.487 24.842 140.647C25.1264 140.758 25.4749 140.894 25.9335 140.92C26.4631 140.95 26.8529 141.146 27.1836 141.314C27.6492 141.549 27.9977 141.727 28.4613 141.306C28.9764 140.84 29.532 140.526 29.9963 140.623C30.2078 140.668 30.4431 140.635 30.688 140.601C31.0122 140.556 31.3536 140.509 31.6774 140.638C31.9443 140.744 32.18 141.047 32.3879 141.316C32.4528 141.4 32.515 141.48 32.5746 141.551C32.7791 141.532 32.9834 141.512 33.1876 141.489C33.2172 141.435 33.2483 141.376 33.2807 141.315C33.4436 141.008 33.6446 140.632 33.9118 140.434C34.3348 140.12 34.7343 140.274 35.1544 140.439C35.4816 140.567 35.8213 140.701 36.1973 140.624C36.4538 140.572 36.7409 140.424 37.0261 140.279C37.4497 140.063 37.8693 139.852 38.1737 139.957C38.2877 139.996 38.3938 140.192 38.4986 140.387C38.4991 140.388 38.4996 140.389 38.5001 140.39C38.5072 140.404 38.5143 140.417 38.5214 140.43C39.2387 140.241 39.9571 140.039 40.6761 139.831C40.7369 139.777 40.7984 139.723 40.8594 139.67C41.1574 139.413 41.448 139.163 41.6308 138.818C41.8288 138.444 42.3554 138.211 42.9118 137.967C43.2761 137.808 43.6538 137.644 43.96 137.431C44.139 137.307 44.3187 137.509 44.503 137.717C44.675 137.911 44.851 138.11 45.0359 138.055C45.1285 138.027 45.227 137.938 45.3323 137.844C45.425 137.761 45.5231 137.673 45.6268 137.618C45.7232 137.567 45.9434 137.674 46.2251 137.811C46.3993 137.896 46.5969 137.991 46.8036 138.069C47.3426 137.929 47.8833 137.796 48.4243 137.672C48.5347 137.489 48.6296 137.252 48.7032 136.949C48.7561 136.731 48.8001 136.472 48.8455 136.206C48.9073 135.845 48.9714 135.471 49.0631 135.173C49.1347 134.94 49.2218 134.846 49.2821 134.942C49.3102 134.986 49.3324 135.071 49.3526 135.147C49.3756 135.235 49.3962 135.312 49.4201 135.31C49.4374 135.308 49.4546 135.246 49.4759 135.17C49.5098 135.049 49.5541 134.894 49.6241 134.888C49.8844 134.864 50.1811 134.911 50.4714 134.958C50.7944 135.009 51.1097 135.06 51.3605 135.013C51.6415 134.96 52.0438 135.189 52.445 135.419C52.725 135.579 53.0047 135.739 53.2446 135.805C53.4796 135.869 53.7249 135.742 53.963 135.619C54.2487 135.47 54.5243 135.328 54.7559 135.532C54.8027 135.573 54.8594 135.824 54.9302 136.137C54.9804 136.36 55.0381 136.614 55.1039 136.848C55.3991 136.85 55.6942 136.864 55.9895 136.886C56.0003 136.852 56.0114 136.818 56.0226 136.783C56.0228 136.782 56.023 136.781 56.0231 136.78C56.2747 135.987 56.6246 134.903 57.0837 135.559C57.2002 135.726 57.2702 136.033 57.333 136.308C57.3947 136.579 57.4496 136.821 57.535 136.873C57.6321 136.932 57.7508 136.769 57.8807 136.591C58.063 136.342 58.2676 136.063 58.4614 136.33C58.4747 136.349 58.4889 136.369 58.5037 136.389C58.6442 136.579 58.8519 136.86 59.051 137.422C59.6758 137.585 60.2999 137.775 60.9217 137.984C61.9574 138.332 62.99 138.731 64.016 139.135C64.5158 139.334 64.9682 140.114 65.2658 141.343C65.5637 142.574 65.6832 144.144 65.603 145.758C65.5228 147.372 65.2502 148.921 64.8499 150.119C64.4493 151.315 63.9542 152.051 63.4654 152.209C62.669 152.462 61.8743 152.719 61.0829 152.958C61.0408 152.99 60.9986 153.021 60.9566 153.05C60.6444 153.267 60.3479 153.713 60.0529 154.16C59.9851 154.262 59.9173 154.365 59.8494 154.465Z" fill="#8B7AE7" fill-opacity="0.64"/>
<path d="M38.0213 43.803C38.9683 43.5003 39.6999 44.395 40.0426 44.8513C40.0493 44.8595 40.0559 44.8677 40.0626 44.8758C40.1462 44.9853 40.2405 45.0652 40.3486 45.1561C40.6037 45.37 40.959 45.6724 41.3366 46.5345C41.537 46.6507 41.7228 46.7649 41.8909 46.8765C42.0776 47.0005 42.2474 47.1178 42.3912 47.2219C44.5504 48.6891 46.4589 50.5452 48.3289 52.4728C48.3623 52.4882 48.3963 52.5038 48.4306 52.5195C49.0941 52.8241 49.9161 53.1985 50.2575 53.7291C50.6915 54.4038 50.9426 54.9383 51.1424 55.3893C52.8079 57.0868 54.5235 58.7138 56.4139 60.0356C57.0062 60.4498 57.6159 60.8335 58.2454 61.18C58.8251 61.4992 59.4176 61.7946 60.0207 62.0683C60.4394 62.1032 60.856 62.1 61.2417 62.0961C61.7839 62.0908 62.2652 62.0844 62.6085 62.1806C63.4353 62.4124 64.1446 63.1062 64.6756 63.6197C64.7623 63.7036 64.8442 63.7829 64.9209 63.8543C65.4687 64.0169 66.02 64.1704 66.5721 64.3192C66.5765 64.3935 66.58 64.4703 66.5833 64.549C66.6251 65.5306 67.1594 65.7865 67.999 66.1815C68.0095 66.1865 68.0201 66.1915 68.0308 66.1965C68.4013 66.371 68.8268 66.5742 69.2978 66.874C69.6107 67.0731 69.6291 67.4621 69.6448 67.7797C69.6494 67.8732 69.6537 67.9605 69.6649 68.035C69.7035 68.2901 69.9446 68.1548 70.2308 67.9959C70.6013 67.7894 71.0482 67.5425 71.2193 68.0532C71.7627 69.6803 72.6098 69.1935 73.2596 68.8288C73.4499 68.7218 73.6225 68.6256 73.7639 68.5957C74.2228 68.4991 74.5493 69.0003 74.7082 69.5398C74.8345 69.9674 75.5315 69.9787 76.1424 69.8507C76.3734 69.8021 76.5898 69.915 76.8443 70.0501C77.1078 70.19 77.4115 70.3536 77.8188 70.3852C78.8489 70.4662 79.392 70.5395 79.8276 70.5984C79.952 70.6155 80.0673 70.6324 80.1836 70.648C80.5512 70.6971 80.9779 70.8126 81.4107 70.9344C81.9283 71.0798 82.4549 71.234 82.9002 71.2844C83.6809 72.0135 84.424 72.7984 85.1493 73.5947C85.5209 74.0047 85.527 74.9081 85.1297 76.1174C84.732 77.3277 83.9713 78.7378 83.0137 80.0774C82.0561 81.4173 80.9741 82.5965 80.005 83.4048C79.0345 84.2108 78.2588 84.573 77.8115 84.4286C76.9099 84.1337 76.0056 83.8589 75.1243 83.555C74.05 83.1845 73.0092 82.7705 72.0355 82.217C71.3543 81.8298 70.6826 81.4142 70.015 80.9744C69.9463 80.9292 69.8778 80.8833 69.8092 80.8375C69.0271 80.8782 68.2621 80.8937 67.7809 80.7923C67.3835 80.7083 67.2275 80.385 67.0926 80.1079C66.9998 79.9173 66.9164 79.7483 66.7724 79.6951C66.6951 79.6666 66.584 79.6382 66.4497 79.6038C65.9019 79.4634 64.9678 79.2278 64.3647 78.4874C64.0968 78.1585 63.8469 77.6491 63.6062 77.1623C63.4334 76.8149 63.2684 76.4806 63.103 76.2297C62.9294 75.9734 62.7613 75.8042 62.5955 75.798C62.0154 75.7762 61.5613 75.3244 61.1636 74.9243C60.7839 74.5426 60.4544 74.2082 60.1035 74.337C59.6842 74.4909 59.5142 74.2535 59.2634 73.9015C59.0895 73.6572 58.8763 73.3583 58.5141 73.0934C58.0959 72.7874 57.8823 72.4155 57.7018 72.0994C57.4475 71.6544 57.2585 71.3202 56.6522 71.4278C55.9787 71.5472 55.3544 71.5166 55.0279 71.1881C54.8792 71.0385 54.6692 70.9413 54.4507 70.8401C54.1615 70.706 53.8577 70.5641 53.663 70.2843C53.5026 70.0537 53.4748 69.6735 53.4509 69.3372C53.4435 69.2322 53.4361 69.1319 53.4254 69.0414C53.2488 68.9485 53.0713 68.857 52.8923 68.7685C52.839 68.7978 52.7817 68.8311 52.7221 68.8653C52.4232 69.0368 52.0556 69.2465 51.7305 69.2715C51.216 69.3111 50.9739 68.9702 50.7208 68.6099C50.5237 68.3292 50.3196 68.0368 49.9718 67.9029C49.7345 67.8116 49.4211 67.7836 49.1104 67.7552C48.6489 67.7132 48.1931 67.6699 48.0023 67.4213C47.9308 67.3282 47.9502 67.1077 47.9701 66.8887C47.9704 66.8874 47.9706 66.8861 47.9709 66.8849C47.9723 66.87 47.9734 66.8554 47.9748 66.8406C47.2888 66.6218 46.5955 66.4144 45.8983 66.2129C45.8196 66.2267 45.7407 66.2396 45.6627 66.252C45.2814 66.3127 44.9108 66.371 44.5765 66.5663C44.2141 66.778 43.6609 66.6996 43.0781 66.6156C42.6964 66.5606 42.302 66.503 41.9395 66.5237C41.7276 66.5358 41.6899 66.2726 41.6517 66.0015C41.6161 65.7486 41.5798 65.4891 41.3999 65.4404C41.3097 65.416 41.1825 65.4397 41.0465 65.4652C40.9268 65.4875 40.8001 65.5113 40.6865 65.5043C40.5811 65.4977 40.4597 65.2936 40.3039 65.0328C40.2077 64.8716 40.0982 64.689 39.9718 64.5167C39.4588 64.3583 38.9488 64.1945 38.4438 64.0228C38.2569 64.1215 38.0541 64.2739 37.8335 64.4935C37.6751 64.651 37.5016 64.8489 37.3239 65.051C37.0822 65.3261 36.8322 65.6102 36.5999 65.8167C36.4184 65.9781 36.2984 66.0134 36.3003 65.9017C36.3012 65.8496 36.328 65.7667 36.3521 65.6917C36.3798 65.6058 36.4044 65.5294 36.3837 65.5194C36.3687 65.5124 36.3217 65.5565 36.2645 65.6098C36.1733 65.6949 36.0551 65.8046 35.9953 65.7746C35.7725 65.663 35.5573 65.4736 35.3471 65.2878C35.1133 65.0812 34.8849 64.8794 34.6569 64.7941C34.4014 64.6985 34.1968 64.3023 33.9922 63.9065C33.8494 63.6304 33.7063 63.3548 33.5462 63.1792C33.3893 63.0072 33.124 62.9936 32.8666 62.9811C32.7996 62.9778 32.7331 62.9746 32.6693 62.9687C32.3692 62.9042 32.1139 62.8055 32.0109 62.5498C31.9841 62.4834 32.0602 62.2344 32.1592 61.925C32.2293 61.7056 32.3102 61.4552 32.3738 61.2168C32.0896 61.0282 31.8249 60.8355 31.576 60.6405C31.5476 60.6622 31.5186 60.6841 31.4891 60.7066C31.4885 60.7072 31.4879 60.7077 31.4873 60.7083C30.8228 61.2168 29.9049 61.9039 29.9015 61.1061C29.9014 60.9038 30.0184 60.6129 30.1239 60.3512C30.2274 60.0942 30.321 59.8649 30.2833 59.7761C30.2407 59.6754 30.0554 59.747 29.8563 59.8265C29.5761 59.9378 29.2666 60.0648 29.2742 59.7485C29.2747 59.7269 29.2755 59.7034 29.2759 59.6795C29.2794 59.4532 29.2865 59.1202 29.4558 58.5596C29.098 58.1293 28.7772 57.7012 28.4809 57.2845C27.9881 56.5902 27.5607 55.927 27.1768 55.3514C26.9919 55.0701 27.0699 54.285 27.2552 53.0649C27.4499 51.8461 27.7088 50.2965 28.148 48.7414C28.5856 47.1876 29.24 45.7436 30.1128 44.7571C30.9776 43.769 31.9578 43.3391 32.6803 43.4801C33.8577 43.7112 34.9335 43.992 35.929 44.2946C35.9914 44.2936 36.0533 44.2938 36.1138 44.2956C36.5641 44.3093 37.1062 44.1177 37.6491 43.9299C37.7737 43.8868 37.8983 43.8436 38.0213 43.803Z" fill="#8B7AE7" fill-opacity="0.64"/>
<path d="M261.778 42.3274C262.27 43.1656 261.532 44.0792 261.123 44.5619C261.116 44.5709 261.109 44.58 261.102 44.5891C261.005 44.7045 260.939 44.8251 260.862 44.9659C260.679 45.3001 260.43 45.7593 259.529 46.5013C259.412 46.7866 259.287 47.0666 259.153 47.3414C257.697 50.3114 255.588 52.8128 253.392 55.1234C253.376 55.1594 253.36 55.196 253.344 55.233C253.03 55.9481 252.64 56.8268 252.098 57.2031C251.408 57.682 250.864 57.9583 250.405 58.1777C248.667 59.9488 247.004 61.7179 245.675 63.6466C245.516 63.8774 245.363 64.1101 245.214 64.3447C244.966 64.7404 244.729 65.1424 244.505 65.5514C244.172 66.1604 243.859 66.7811 243.566 67.4118C243.519 67.8472 243.51 68.2805 243.501 68.6822C243.488 69.2467 243.476 69.749 243.364 70.1081C243.096 70.9734 242.359 71.7164 241.811 72.2676C241.721 72.3577 241.637 72.4427 241.56 72.5222C241.366 73.0929 241.178 73.6671 240.992 74.2424C240.917 74.2459 240.839 74.2484 240.759 74.2506C239.763 74.2786 239.472 74.8284 239.011 75.693C238.811 76.0695 238.578 76.5055 238.242 76.9843C238.025 77.2929 237.634 77.2963 237.315 77.2993C237.221 77.3002 237.133 77.3011 237.058 77.3096C236.8 77.3388 236.923 77.5884 237.068 77.8832C237.256 78.2656 237.482 78.7248 236.963 78.8777C235.309 79.3646 235.764 80.2358 236.108 80.8953C236.209 81.0887 236.301 81.2638 236.326 81.4056C236.41 81.8654 235.903 82.1729 235.362 82.3171C234.933 82.4315 234.91 83.1248 235.035 83.7297C235.082 83.9584 234.97 84.1694 234.836 84.4175C234.697 84.6742 234.536 84.9708 234.511 85.3694C234.445 86.3765 234.393 86.9019 234.35 87.3239C234.338 87.4442 234.325 87.5558 234.315 87.6681C234.281 88.0233 234.188 88.4349 234.093 88.8514C233.979 89.3498 233.863 89.8556 233.848 90.2809C233.192 91.0401 232.493 91.7756 231.795 92.5111C231.435 92.8883 230.555 92.9524 229.317 92.6728C228.079 92.3926 226.592 91.7961 225.153 90.9963C223.713 90.1966 222.422 89.2497 221.53 88.3457C220.639 87.4422 220.228 86.6591 220.358 86.154C220.624 85.1378 220.89 84.1215 221.202 83.1314C221.583 81.9253 222.032 80.7578 222.634 79.6756C223.055 78.9185 223.51 78.1807 223.992 77.4581C224.042 77.3837 224.092 77.3096 224.142 77.2356C224.141 76.4028 224.171 75.5892 224.305 75.0783C224.415 74.6566 224.753 74.4926 225.043 74.352C225.242 74.2553 225.419 74.1697 225.482 74.019C225.516 73.9381 225.552 73.8218 225.595 73.6816C225.773 73.1092 226.074 72.1374 226.86 71.5347C227.209 71.2673 227.739 71.0255 228.244 70.7945C228.967 70.4643 229.641 70.1559 229.669 69.8271C229.717 69.2496 230.186 68.8168 230.601 68.4343C230.996 68.0695 231.342 67.7501 231.225 67.3952C231.084 66.971 231.326 66.8091 231.686 66.5678C231.935 66.4004 232.24 66.1945 232.513 65.8372C232.83 65.4247 233.206 65.2171 233.526 65.0405C233.977 64.792 234.316 64.6048 234.218 63.9942C234.108 63.3159 234.145 62.6904 234.477 62.3638C234.628 62.2151 234.726 62.0043 234.829 61.785C234.965 61.4946 235.108 61.1894 235.388 60.9928C235.619 60.8308 236 60.8007 236.337 60.7741C236.443 60.7658 236.543 60.7576 236.634 60.746C236.727 60.5671 236.819 60.3872 236.907 60.2057C236.878 60.1524 236.844 60.0949 236.81 60.0353C236.737 59.9099 236.658 59.7725 236.589 59.6313C236.494 59.432 236.418 59.2245 236.405 59.0302C236.371 58.5005 236.717 58.2442 237.084 57.9774C237.369 57.769 237.665 57.5557 237.804 57.1971C237.899 56.9522 237.93 56.6319 237.962 56.314C238.009 55.8414 238.056 55.377 238.308 55.1792C238.402 55.1051 238.624 55.122 238.844 55.1395C238.846 55.1397 238.847 55.1399 238.848 55.1402C238.863 55.1414 238.878 55.1424 238.893 55.1436C239.118 54.4432 239.33 53.7368 239.533 53.0288C239.519 52.9494 239.507 52.8698 239.494 52.7911C239.433 52.4066 239.374 52.0328 239.177 51.6988C238.964 51.3366 239.04 50.7789 239.117 50.1948C239.168 49.812 239.22 49.4173 239.192 49.0567C239.176 48.8459 239.438 48.8048 239.708 48.7627C239.96 48.7235 240.218 48.683 240.263 48.5032C240.285 48.4131 240.258 48.287 240.229 48.1524C240.204 48.034 240.177 47.9087 240.18 47.7961C240.184 47.6915 240.384 47.5677 240.639 47.4082C240.796 47.3097 240.974 47.1973 241.142 47.0683C241.281 46.5575 241.422 46.0508 241.568 45.5503C241.46 45.3697 241.299 45.1755 241.069 44.9662C240.904 44.816 240.698 44.6524 240.488 44.485C240.202 44.2574 239.906 44.0223 239.687 43.8031C239.516 43.6318 239.473 43.5173 239.584 43.5164C239.635 43.516 239.719 43.5397 239.794 43.5611C239.881 43.5857 239.958 43.6074 239.967 43.5872C239.973 43.5725 239.926 43.5284 239.869 43.4747C239.779 43.389 239.663 43.2782 239.688 43.2199C239.783 43.0031 239.954 42.7919 240.121 42.5853C240.306 42.3556 240.486 42.1308 240.55 41.9109C240.621 41.6646 240.992 41.4562 241.361 41.2453C241.618 41.0984 241.874 40.9496 242.03 40.7893C242.182 40.6321 242.167 40.3805 242.15 40.1373C242.129 39.8453 242.107 39.5665 242.379 39.4735C242.434 39.4547 242.681 39.5195 242.99 39.5997C243.209 39.6566 243.46 39.7209 243.697 39.7695C243.812 39.5334 243.936 39.3024 244.066 39.0748C244.039 39.0518 244.012 39.0284 243.984 39.0046C243.984 39.0041 243.983 39.0036 243.982 39.0031C243.357 38.4647 242.495 37.7437 243.253 37.6542C243.445 37.631 243.749 37.7003 244.023 37.7621C244.292 37.8227 244.533 37.8765 244.61 37.8289C244.698 37.7747 244.59 37.6138 244.471 37.4397C244.305 37.1947 244.116 36.9242 244.426 36.8747C244.447 36.8713 244.47 36.8678 244.494 36.8639C244.715 36.8261 245.042 36.7702 245.627 36.8226C245.982 36.3786 246.354 35.9419 246.735 35.5072C247.37 34.782 248.03 34.0605 248.669 33.32C248.982 32.9608 249.834 32.8017 251.089 32.8625C252.345 32.9258 253.894 33.2015 255.438 33.6786C256.982 34.1555 258.414 34.811 259.454 35.5477C260.493 36.2826 261.044 37.0331 261.028 37.6185C261 38.5701 260.952 39.5223 260.866 40.4624C260.88 40.5189 260.893 40.5752 260.904 40.6306C260.984 41.0425 261.283 41.5172 261.578 41.9968C261.645 42.107 261.713 42.2175 261.778 42.3274Z" fill="#8B7AE7" fill-opacity="0.64"/>
<path d="M250.708 128.703C251.128 127.868 252.16 128.055 252.722 128.158C252.733 128.16 252.743 128.161 252.753 128.163C252.887 128.187 253.01 128.182 253.153 128.175C253.494 128.159 253.956 128.138 254.963 128.504C255.234 128.45 255.506 128.404 255.778 128.367C256.181 128.313 256.584 128.27 256.987 128.237C259.684 128.008 262.454 128.231 265.228 128.592C265.267 128.584 265.307 128.575 265.347 128.567C266.123 128.4 267.091 128.2 267.733 128.42C268.55 128.699 269.111 128.981 269.572 129.227C272.121 129.614 274.652 129.98 277.162 130.076C277.588 130.093 278.015 130.101 278.44 130.101C279.065 130.089 279.589 130.118 280.077 130.151C281.048 130.22 281.867 130.318 282.647 130.397C283.122 130.304 283.566 130.179 283.966 130.063C284.531 129.899 285.01 129.753 285.375 129.741C286.256 129.716 287.072 130.142 287.617 130.423C287.705 130.469 287.79 130.512 287.864 130.549C288.31 130.492 288.7 130.399 288.921 130.279C288.937 130.343 288.953 130.41 288.969 130.478C289.121 131.227 289.425 131.246 289.117 131.333C289.091 131.343 289.081 131.345 289.09 131.339C289.119 131.32 289.327 131.208 289.803 130.987C290.115 130.842 290.492 131.008 290.791 131.152C290.879 131.193 290.963 131.232 291.04 131.258C291.306 131.345 291.359 131.048 291.46 130.683C291.588 130.214 291.821 129.604 292.666 129.668C293.798 129.764 294.717 129.726 295.504 129.636C295.909 129.548 296.135 129.108 296.311 128.737C296.399 128.548 296.478 128.376 296.558 128.278C296.826 127.958 297.205 128.212 297.502 128.573C297.749 128.86 298.04 128.478 298.119 128.033C298.152 127.864 298.246 127.832 298.371 127.783C298.499 127.732 298.665 127.663 298.795 127.416C299.128 126.788 299.377 126.406 299.569 126.11C299.602 126.059 299.635 126.009 299.668 125.96C299.696 125.924 299.723 125.888 299.75 125.852C299.951 125.574 300.246 125.27 300.583 124.944C300.993 124.553 301.469 124.114 302.153 123.587C302.67 123.415 303.329 123.169 304.48 122.969C305.585 122.755 307.448 122.775 308.816 123.249C311.547 124.267 311.876 125.078 312.398 125.537C312.848 126.043 312.719 126.884 312.25 128.057C311.775 129.228 310.973 130.612 309.989 131.932C309 133.249 307.882 134.398 306.834 135.13C305.796 135.87 304.905 136.112 304.525 135.989C304.34 135.93 304.184 135.905 304.214 136.002C304.242 136.085 304.506 136.373 305.315 136.641C306.122 136.921 307.202 136.882 307.63 136.812C308.097 136.747 308.176 136.743 308.169 136.809C308.052 137.051 307.245 137.668 306.526 138.152C306.131 138.411 305.706 138.663 305.233 138.904C304.209 139.426 302.888 139.97 301.425 140.294C301.276 140.327 301.127 140.358 300.979 140.386C299.868 141.079 298.785 141.576 298.116 141.773C297.557 141.936 297.166 141.745 296.845 141.581C296.625 141.468 296.435 141.367 296.256 141.395C296.227 141.399 296.194 141.406 296.158 141.413C296.269 141.419 296.398 141.426 296.531 141.429C296.925 141.439 297.326 141.387 297.431 141.357C297.546 141.324 297.392 141.34 297.003 141.347C296.661 141.347 296.048 141.331 295.31 141.377C294.484 141.429 293.486 141.532 292.73 141.72C292.511 141.777 292.331 141.835 292.189 141.904C290.99 142.486 289.831 142.353 289 142.183C288.197 142.018 287.629 141.823 287.266 142.069C286.839 142.362 286.51 142.194 286.071 141.939C285.763 141.761 285.405 141.542 284.918 141.396C284.358 141.228 284.013 140.933 283.726 140.684C283.322 140.333 283.029 140.069 282.48 140.356C281.871 140.674 281.299 140.846 280.927 140.651C280.759 140.562 280.553 140.545 280.352 140.533C280.084 140.515 279.825 140.505 279.624 140.333C279.459 140.192 279.351 139.864 279.248 139.576C279.216 139.486 279.188 139.401 279.157 139.326C279.037 139.326 278.934 139.333 278.86 139.346C278.857 139.346 278.854 139.346 278.85 139.347C278.821 139.399 278.789 139.458 278.757 139.518C278.593 139.821 278.393 140.193 278.134 140.387C277.724 140.693 277.343 140.535 276.938 140.368C276.623 140.239 276.294 140.104 275.931 140.183C275.684 140.236 275.408 140.385 275.135 140.534C274.73 140.754 274.332 140.973 274.036 140.874C273.925 140.838 273.818 140.644 273.711 140.452C273.71 140.451 273.71 140.45 273.709 140.449C273.702 140.436 273.695 140.423 273.688 140.41C272.999 140.616 272.313 140.842 271.629 141.08C271.573 141.137 271.517 141.193 271.46 141.248C271.186 141.518 270.92 141.781 270.764 142.135C270.595 142.518 270.106 142.777 269.593 143.054C269.257 143.234 268.91 143.422 268.635 143.655C268.475 143.79 268.289 143.602 268.098 143.408C267.92 143.226 267.736 143.04 267.564 143.11C267.478 143.144 267.391 143.24 267.299 143.342C267.218 143.432 267.132 143.528 267.038 143.591C266.951 143.649 266.733 143.56 266.452 143.447C266.279 143.378 266.081 143.299 265.877 143.24C265.375 143.427 264.874 143.611 264.372 143.788C264.286 143.981 264.221 144.226 264.184 144.535C264.158 144.757 264.144 145.019 264.13 145.288C264.112 145.654 264.092 146.031 264.039 146.337C263.998 146.576 263.927 146.678 263.86 146.589C263.829 146.548 263.799 146.466 263.771 146.393C263.74 146.308 263.712 146.233 263.69 146.238C263.674 146.242 263.665 146.306 263.654 146.383C263.635 146.506 263.612 146.665 263.547 146.679C263.307 146.73 263.025 146.716 262.748 146.702C262.44 146.686 262.138 146.672 261.91 146.749C261.654 146.835 261.249 146.656 260.842 146.479C260.558 146.355 260.273 146.233 260.038 146.199C259.852 146.172 259.677 146.27 259.508 146.391C259.465 146.419 259.422 146.45 259.38 146.479C259.115 146.667 258.86 146.848 258.601 146.679C258.548 146.644 258.456 146.404 258.342 146.104C258.26 145.891 258.167 145.648 258.068 145.425C257.775 145.464 257.48 145.493 257.185 145.513C257.179 145.548 257.173 145.583 257.167 145.62C257.167 145.621 257.167 145.622 257.167 145.622C257.031 146.443 256.842 147.566 256.299 146.982C256.161 146.833 256.048 146.54 255.947 146.276C255.847 146.017 255.758 145.786 255.667 145.746C255.564 145.702 255.471 145.881 255.371 146.075C255.229 146.348 255.071 146.653 254.844 146.417C254.828 146.401 254.812 146.383 254.794 146.366C254.63 146.198 254.387 145.95 254.11 145.424C253.479 145.355 252.849 145.26 252.219 145.15C251.385 145.004 250.551 144.831 249.721 144.656C248.839 144.685 248.626 144.584 248.325 144.52C247.721 144.34 247.388 143.613 247.577 142.368C247.645 142.039 247.744 141.725 248.087 141.159C248.238 140.878 248.566 140.452 248.707 139.776C248.869 139.065 248.57 138.442 248.319 138.289C247.786 137.94 247.453 138.274 247.153 138.499C246.853 138.753 246.59 139.058 246.304 139.343C246.018 139.627 245.718 139.897 245.349 140.073C245.163 140.158 244.968 140.232 244.714 140.204C244.47 140.176 244.173 140.104 243.839 139.687C243.518 139.334 243.171 138.271 243.53 137.185C243.855 136.151 244.442 135.558 244.757 135.183C245.448 134.434 245.774 134.086 246.082 133.71C247.18 132.322 247.798 131.631 248.182 131.436C248.252 131.398 248.301 131.36 248.292 131.323C248.274 131.288 248.237 131.244 247.909 131.248C248.494 130.956 249.078 130.669 249.661 130.396C249.699 130.357 249.738 130.319 249.778 130.283C250.068 130.017 250.306 129.528 250.543 129.038C250.598 128.926 250.652 128.813 250.708 128.703Z" fill="#8B7AE7" fill-opacity="0.64"/>
<path d="M232.368 186.662C233.167 186.386 233.435 187.103 233.629 187.524C233.632 187.532 233.636 187.539 233.639 187.547C233.684 187.645 233.746 187.719 233.82 187.805C234.002 188.011 234.235 188.283 234.529 189.202C234.723 189.349 234.915 189.503 235.104 189.666C236.088 190.517 237.077 191.523 238.1 192.705C239.318 194.079 240.371 195.559 241.316 197.062C241.349 197.089 241.382 197.116 241.415 197.144C242.064 197.677 242.852 198.351 243.084 199.01C243.38 199.847 243.5 200.473 243.585 200.994C244.835 203.288 245.991 205.513 247.356 207.489C247.784 208.108 248.233 208.703 248.709 209.266C249.147 209.785 249.603 210.284 250.074 210.762C250.456 210.949 250.848 211.097 251.211 211.232C251.721 211.422 252.173 211.586 252.459 211.795C253.147 212.299 253.56 213.181 253.874 213.832C253.925 213.938 253.974 214.038 254.02 214.129C254.472 214.456 254.929 214.77 255.387 215.073C255.366 215.144 255.344 215.216 255.32 215.291C255.136 215.885 255.238 216.263 255.506 216.617C255.679 216.837 255.905 217.054 256.165 217.304C256.478 217.605 256.839 217.956 257.211 218.419C257.451 218.718 257.345 219.096 257.259 219.404C257.234 219.494 257.21 219.579 257.197 219.654C257.153 219.911 257.428 219.865 257.753 219.811C258.175 219.741 258.683 219.659 258.682 220.203C258.676 221.934 259.639 221.752 260.372 221.619C260.587 221.58 260.782 221.544 260.925 221.562C261.39 221.619 261.535 222.195 261.512 222.754C261.494 223.198 262.148 223.425 262.761 223.485C262.993 223.508 263.16 223.678 263.356 223.878C263.559 224.086 263.792 224.326 264.162 224.468C265.098 224.825 265.579 225.027 265.965 225.189C266.076 225.235 266.177 225.279 266.28 225.321C266.606 225.455 266.966 225.661 267.33 225.869C267.765 226.117 268.206 226.367 268.601 226.499C269.115 227.329 269.595 228.186 270.077 229.038C270.324 229.477 270.125 230.325 269.505 231.429C268.884 232.533 267.9 233.796 266.736 234.96C265.572 236.125 264.307 237.108 263.188 237.711C262.07 238.313 261.196 238.482 260.742 238.207C259.831 237.652 258.925 237.094 258.063 236.498C257.013 235.773 256.029 234.993 255.178 234.099C254.583 233.473 254.02 232.823 253.482 232.155C253.427 232.087 253.372 232.017 253.317 231.948C252.528 231.708 251.77 231.448 251.329 231.178C250.966 230.955 250.914 230.59 250.869 230.276C250.839 230.06 250.811 229.87 250.689 229.768C250.623 229.714 250.524 229.648 250.406 229.569C249.921 229.244 249.102 228.699 248.771 227.799C248.624 227.399 248.553 226.836 248.483 226.298C248.384 225.529 248.286 224.812 247.985 224.705C247.88 224.667 247.785 224.616 247.699 224.554C247.31 224.263 247.061 223.789 246.841 223.361C246.581 222.852 246.362 222.407 245.978 222.401C245.518 222.393 245.425 222.099 245.294 221.667C245.203 221.367 245.093 221.001 244.831 220.611C244.527 220.161 244.447 219.727 244.381 219.358C244.288 218.84 244.222 218.452 243.607 218.326C242.924 218.185 242.341 217.921 242.146 217.489C242.058 217.292 241.893 217.123 241.723 216.946C241.496 216.712 241.26 216.466 241.176 216.132C241.106 215.856 241.215 215.49 241.311 215.165C241.341 215.064 241.37 214.967 241.392 214.878C241.258 214.727 241.124 214.576 240.987 214.429C240.926 214.437 240.861 214.447 240.793 214.458C240.452 214.511 240.033 214.575 239.72 214.484C239.224 214.338 239.119 213.936 239.009 213.511C238.923 213.181 238.834 212.837 238.556 212.594C238.366 212.429 238.083 212.298 237.804 212.17C237.388 211.979 236.98 211.794 236.887 211.502C236.852 211.393 236.944 211.193 237.036 210.994C237.037 210.993 237.038 210.992 237.038 210.991C237.045 210.977 237.051 210.964 237.057 210.951C236.491 210.532 235.915 210.13 235.332 209.745C235.255 209.736 235.178 209.726 235.101 209.716C234.728 209.667 234.367 209.622 233.997 209.718C233.597 209.821 233.114 209.608 232.607 209.395C232.275 209.255 231.934 209.116 231.598 209.059C231.402 209.026 231.447 208.774 231.491 208.514C231.533 208.271 231.574 208.021 231.424 207.94C231.348 207.9 231.225 207.897 231.094 207.896C230.979 207.894 230.857 207.893 230.756 207.866C230.662 207.841 230.609 207.628 230.538 207.358C230.495 207.191 230.444 207.001 230.373 206.819C229.948 206.587 229.525 206.359 229.109 206.134C228.916 206.203 228.697 206.321 228.445 206.501C228.265 206.631 228.062 206.796 227.855 206.966C227.573 207.198 227.283 207.437 227.028 207.608C226.829 207.742 226.716 207.765 226.746 207.662C226.759 207.614 226.803 207.54 226.843 207.472C226.888 207.395 226.928 207.326 226.912 207.315C226.901 207.308 226.849 207.345 226.786 207.39C226.686 207.461 226.556 207.554 226.511 207.522C226.345 207.403 226.204 207.215 226.064 207.032C226.045 207.007 226.026 206.982 226.007 206.957C225.85 206.763 225.686 206.578 225.506 206.479C225.275 206.353 225.137 205.937 224.987 205.511C224.884 205.216 224.776 204.916 224.636 204.713C224.498 204.513 224.229 204.453 223.964 204.392C223.647 204.319 223.337 204.245 223.284 203.933C223.273 203.87 223.389 203.64 223.536 203.353C223.639 203.15 223.758 202.917 223.857 202.694C223.623 202.492 223.394 202.279 223.17 202.056C223.139 202.074 223.108 202.092 223.076 202.111C223.075 202.111 223.075 202.112 223.074 202.112C222.354 202.538 221.351 203.105 221.4 202.27C221.413 202.059 221.557 201.777 221.687 201.524C221.816 201.276 221.931 201.054 221.895 200.952C221.854 200.835 221.647 200.868 221.419 200.902C221.101 200.949 220.74 200.996 220.757 200.647C220.758 200.623 220.759 200.597 220.76 200.571C220.771 200.321 220.786 199.95 221.005 199.382C220.596 198.767 220.208 198.114 219.844 197.427C219.238 196.283 218.695 195.046 218.237 193.74C218.014 193.102 218.316 192.146 219.153 191.166C219.988 190.18 221.278 189.268 222.706 188.515C224.136 187.762 225.595 187.183 226.763 186.777C227.934 186.376 228.713 186.193 229.029 186.34C229.542 186.583 230.091 186.819 230.654 187.067C230.698 187.067 230.742 187.068 230.784 187.07C231.098 187.086 231.574 186.934 232.045 186.772C232.153 186.735 232.261 186.698 232.368 186.662Z" fill="#8B7AE7" fill-opacity="0.64"/>
<path d="M143.53 4.27471C144.321 4.63876 144.045 5.41496 143.897 5.84984C143.895 5.85776 143.893 5.86569 143.89 5.87362C143.855 5.97646 143.85 6.07215 143.846 6.18425C143.835 6.45199 143.819 6.80972 143.384 7.60013C143.419 7.81822 143.446 8.03645 143.464 8.25574C143.659 10.622 143.29 13.0644 142.87 15.5822C142.878 15.612 142.887 15.6424 142.895 15.673C143.061 16.2658 143.272 16.9969 143.067 17.5118C142.807 18.1661 142.545 18.6287 142.318 19.0124C142.028 21.0409 141.849 23.0862 142.026 25.0737C142.081 25.6964 142.172 26.3133 142.305 26.9212C142.427 27.4811 142.576 28.0357 142.748 28.5846C142.987 28.8727 143.254 29.1367 143.501 29.3806C143.849 29.7233 144.159 30.0266 144.303 30.3035C144.65 30.9704 144.569 31.8424 144.513 32.4931C144.503 32.5993 144.495 32.6997 144.489 32.7922C144.711 33.2417 144.943 33.6884 145.178 34.1334C145.124 34.1813 145.068 34.2301 145.01 34.2799C144.285 34.9021 144.427 35.4011 144.654 36.1826C144.753 36.5233 144.868 36.918 144.937 37.4012C144.981 37.7125 144.696 37.958 144.464 38.1592C144.396 38.2183 144.332 38.2738 144.282 38.3257C144.113 38.5038 144.368 38.5705 144.671 38.6483C145.062 38.7496 145.533 38.8688 145.255 39.2816C144.372 40.6004 145.29 40.8119 145.981 40.9645C146.184 41.0095 146.368 41.0506 146.482 41.114C146.851 41.3197 146.69 41.8134 146.396 42.2397C146.163 42.5775 146.615 42.9823 147.114 43.2395C147.303 43.3369 147.364 43.5268 147.436 43.7506C147.51 43.9821 147.596 44.2509 147.848 44.4888C148.485 45.0898 148.805 45.4113 149.063 45.6721C149.136 45.7463 149.203 45.8156 149.272 45.8842C149.491 46.101 149.705 46.3875 149.922 46.6769C150.181 47.0234 150.446 47.3756 150.726 47.6169C150.781 48.4573 150.795 49.3175 150.811 50.1756C150.818 50.618 150.244 51.2343 149.183 51.9028C148.121 52.5714 146.667 53.235 145.105 53.7559C143.543 54.2767 141.981 54.6173 140.728 54.71C139.476 54.8025 138.641 54.6366 138.38 54.2617C137.857 53.5083 137.335 52.7481 136.868 51.9714C136.297 51.0229 135.806 50.0466 135.486 49.0147C135.262 48.2929 135.078 47.5577 134.928 46.8129C134.912 46.7362 134.897 46.6593 134.882 46.5824C134.311 46.0896 133.776 45.585 133.523 45.1907C133.315 44.8653 133.446 44.5445 133.56 44.2709C133.638 44.0825 133.707 43.9159 133.65 43.784C133.619 43.7131 133.566 43.6196 133.503 43.5066C133.242 43.0456 132.802 42.259 132.969 41.3819C133.043 40.9928 133.267 40.5042 133.482 40.0387C133.79 39.3728 134.08 38.7553 133.881 38.5358C133.532 38.1502 133.591 37.5843 133.646 37.0858C133.697 36.6102 133.744 36.1951 133.423 36.0472C133.04 35.8705 133.113 35.6167 133.223 35.2414C133.299 34.981 133.392 34.6622 133.365 34.2676C133.332 33.8118 133.481 33.4481 133.607 33.1397C133.785 32.7055 133.92 32.381 133.453 32.0533C132.933 31.6892 132.559 31.2646 132.602 30.8533C132.622 30.666 132.562 30.4705 132.5 30.2669C132.419 29.9974 132.334 29.7132 132.424 29.4172C132.498 29.1732 132.772 28.9256 133.014 28.7074C133.089 28.6394 133.161 28.5742 133.224 28.5127C133.183 28.3414 133.14 28.1704 133.094 27.9999C133.038 27.9827 132.976 27.9652 132.912 27.9468C132.59 27.8543 132.196 27.7392 131.97 27.5405C131.613 27.2259 131.72 26.8613 131.836 26.4782C131.927 26.1797 132.022 25.87 131.904 25.5598C131.824 25.3483 131.647 25.124 131.472 24.9008C131.212 24.5693 130.957 24.2393 131.028 23.9638C131.055 23.8606 131.237 23.7423 131.419 23.6255C131.42 23.6249 131.421 23.6243 131.422 23.6237C131.434 23.6158 131.446 23.6079 131.459 23.6C131.194 23.0127 130.918 22.4245 130.636 21.8356C130.576 21.7907 130.516 21.7451 130.457 21.6997C130.171 21.4784 129.893 21.2614 129.532 21.1494C129.141 21.0281 128.855 20.6043 128.556 20.1548C128.36 19.8606 128.158 19.5544 127.916 19.3157C127.775 19.1761 127.957 18.9951 128.144 18.8099C128.32 18.637 128.5 18.4603 128.426 18.3071C128.389 18.2304 128.292 18.1561 128.188 18.0762C128.096 18.006 127.999 17.9316 127.934 17.8483C127.874 17.7709 127.958 17.5669 128.067 17.3065C128.134 17.1455 128.209 16.9629 128.267 16.7747C128.075 16.3242 127.891 15.8702 127.717 15.4139C127.525 15.3385 127.281 15.2824 126.972 15.2519C126.751 15.2301 126.489 15.2204 126.22 15.2102C125.855 15.1962 125.478 15.1812 125.173 15.1336C124.935 15.0963 124.833 15.0301 124.923 14.9666C124.965 14.9371 125.046 14.9084 125.12 14.8824C125.205 14.8527 125.281 14.8262 125.276 14.8055C125.272 14.7905 125.209 14.7822 125.132 14.7717C125.009 14.755 124.85 14.7329 124.837 14.6721C124.79 14.4458 124.809 14.1799 124.829 13.9197C124.851 13.6302 124.873 13.3477 124.803 13.1319C124.725 12.89 124.917 12.5122 125.111 12.1366C125.246 11.8744 125.381 11.6128 125.426 11.3956C125.47 11.1828 125.323 10.9792 125.181 10.781C125.009 10.5432 124.844 10.3129 125.028 10.0901C125.066 10.045 125.311 9.97229 125.617 9.88176C125.834 9.81759 126.083 9.74413 126.311 9.66541C126.29 9.40612 126.279 9.14598 126.279 8.88462C126.244 8.87804 126.209 8.87121 126.173 8.86442C126.172 8.86433 126.171 8.86424 126.17 8.86415C125.361 8.71179 124.252 8.49242 124.872 8.03168C125.029 7.9149 125.329 7.82819 125.599 7.75049C125.864 7.67415 126.102 7.60634 126.147 7.52696C126.199 7.4368 126.027 7.34553 125.841 7.24498C125.579 7.10408 125.286 6.94466 125.538 6.7529C125.555 6.73982 125.574 6.72573 125.593 6.71111C125.773 6.57261 126.038 6.3678 126.584 6.15116C126.703 5.58967 126.85 5.02736 127.018 4.46706C127.298 3.53359 127.633 2.60274 127.98 1.68178C128.151 1.23281 128.906 0.797196 130.118 0.4829C131.332 0.167782 132.895 -0.000319175 134.51 0C136.126 0.000352295 137.687 0.165154 138.904 0.442774C140.119 0.721201 140.88 1.08971 141.064 1.47967C141.36 2.11554 141.663 2.74704 141.949 3.37447C141.984 3.40665 142.017 3.43899 142.049 3.47122C142.284 3.71109 142.748 3.92277 143.212 4.1311C143.319 4.17897 143.426 4.22678 143.53 4.27471Z" fill="#8B7AE7" fill-opacity="0.64"/>
</svg>
