<svg width="919" height="800" viewBox="0 0 919 800" fill="none" xmlns="http://www.w3.org/2000/svg">
<path d="M116.256 441.367C-38.2789 312.108 112.017 183.554 262.118 150.688C347.38 128.179 338.496 20.0578 444.158 -7.76863C549.82 -35.5951 516.117 131.514 679.643 91.5981C843.168 51.6821 934.834 317.91 823.897 398.818C712.96 479.726 769.941 495.619 716.722 659.568C663.502 823.517 390.95 836.581 350.881 678.174C310.811 519.767 283.543 581.293 116.256 441.367Z" stroke="#D7C5F0" stroke-width="1.2494"/>
<path d="M445.172 396.941C429.575 385.24 436.106 344.336 462.335 341.625C486.353 339.142 499.538 320.394 514.185 316.549C552.746 306.427 545.575 320.24 568.602 324.045C596.623 328.675 634.185 365.689 595.738 392.412C564.117 414.39 584.355 423.319 565.452 446.646C546.549 469.974 511.568 476.944 490.168 446.155C482.132 434.593 471.149 416.429 445.172 396.941Z" stroke="#D7C5F0" stroke-width="1.2494"/>
<path d="M145.615 436.555C3.71112 317.983 140.937 197.398 279.778 167.273C359.471 146.584 352.594 46.588 449.982 20.9416C549.544 -5.27534 518.253 147.898 669.006 111.956C820.213 76.09 906.96 321.48 802.613 397.463C698.887 473.013 752.527 488.273 702.428 639.438C652.328 790.603 401.373 803.113 363.001 656.308C325.844 511.251 300.056 565.532 145.615 436.555Z" stroke="#D7C5F0" stroke-width="1.2494"/>
<path d="M174.975 431.744C45.7018 323.859 169.859 211.242 297.438 183.858C371.564 164.99 366.693 73.1187 455.807 49.6525C549.268 25.045 520.389 164.282 658.37 132.315C797.258 100.499 879.087 325.052 781.33 396.108C684.814 466.301 735.115 480.928 688.134 619.309C641.154 757.691 411.797 769.646 375.122 634.443C340.877 502.735 316.569 549.772 174.975 431.744Z" stroke="#D7C5F0" stroke-width="1.2494"/>
<path d="M204.336 426.933C87.6929 329.735 198.78 225.086 315.098 200.444C383.657 183.397 380.792 99.6499 461.632 78.3639C548.993 55.3659 522.526 180.667 647.734 152.675C774.304 124.908 851.214 328.623 760.047 394.753C670.742 459.59 717.702 473.583 673.842 599.181C629.981 724.778 422.221 736.18 387.243 612.578C355.911 494.22 333.084 534.012 204.336 426.933Z" stroke="#D7C5F0" stroke-width="1.2494"/>
<path d="M233.697 422.122C129.685 335.611 227.703 238.93 332.76 217.03C395.751 201.803 394.892 126.181 467.457 107.075C548.719 85.6867 524.664 197.052 637.099 173.034C751.35 149.317 823.342 332.194 738.765 393.399C656.67 452.878 700.29 466.238 659.549 579.052C618.809 691.866 432.646 702.714 399.366 590.713C370.945 485.705 349.598 518.253 233.697 422.122Z" stroke="#D7C5F0" stroke-width="1.2494"/>
<path d="M263.429 417.845C172.048 342.021 256.996 253.308 350.792 234.149C408.215 220.743 409.362 153.246 473.654 136.32C548.815 116.541 527.172 213.97 626.835 193.927C728.767 174.259 795.841 336.299 717.854 392.577C642.97 446.699 683.249 459.426 645.628 559.457C608.007 659.487 443.442 669.781 411.859 569.382C386.35 477.723 366.484 503.026 263.429 417.845Z" stroke="#D7C5F0" stroke-width="1.2494"/>
<path d="M293.599 414.197C214.848 349.061 286.727 268.316 369.262 251.898C421.118 240.312 424.271 180.94 480.289 166.194C549.35 148.025 530.119 231.518 617.009 215.45C706.623 199.831 768.778 341.034 697.381 392.386C629.707 441.151 666.646 453.245 632.145 540.491C597.644 627.738 454.676 637.477 424.79 548.681C402.193 470.371 383.808 488.43 293.599 414.197Z" stroke="#D7C5F0" stroke-width="1.2494"/>
<path d="M323.794 410.584C257.674 356.135 316.484 283.358 387.757 269.681C434.045 259.917 439.205 208.669 486.948 196.104C549.91 179.544 533.091 249.101 607.208 237.007C684.503 225.438 741.74 345.803 676.933 392.23C616.469 435.637 650.069 447.098 618.687 521.561C587.305 596.023 465.935 605.209 437.746 528.014C418.062 463.054 401.157 473.868 323.794 410.584Z" stroke="#D7C5F0" stroke-width="1.2494"/>
<path d="M354.025 407.021C300.536 363.258 346.276 298.45 406.288 287.515C447.009 279.57 454.174 236.448 493.644 226.062C550.505 211.112 536.098 266.733 597.443 258.614C662.419 251.095 714.737 350.622 656.52 392.122C603.267 430.172 633.526 441.001 605.264 502.679C577.002 564.358 477.229 572.99 450.738 507.397C433.966 455.786 418.541 459.355 354.025 407.021Z" stroke="#D7C5F0" stroke-width="1.2494"/>
<path d="M384.31 403.531C343.451 370.456 376.121 313.615 424.872 305.422C460.026 299.298 469.198 264.3 500.393 256.095C551.154 242.754 539.159 284.439 587.731 280.294C640.389 276.825 687.789 355.515 636.161 392.089C590.119 424.782 617.038 434.977 591.896 483.872C566.753 532.767 488.578 540.845 463.784 486.853C449.923 448.592 435.979 444.917 384.31 403.531Z" stroke="#D7C5F0" stroke-width="1.2494"/>
<path d="M414.676 400.152C386.448 377.764 406.049 328.891 443.539 323.439C473.124 319.136 484.302 292.263 507.224 286.238C551.884 274.506 542.302 302.255 578.101 302.085C618.441 302.666 660.921 360.518 615.884 392.166C577.053 419.502 600.631 429.064 578.608 465.175C556.586 501.286 500.007 508.81 476.911 466.42C465.963 441.509 453.499 430.589 414.676 400.152Z" stroke="#D7C5F0" stroke-width="1.2494"/>
</svg>
