<svg width="1440" height="457" viewBox="0 0 1440 457" fill="none" xmlns="http://www.w3.org/2000/svg">
<rect x="1.16972" y="1.16972" width="1437.66" height="454.661" stroke="white" stroke-width="2.33945"/>
<mask id="mask0_70_28" style="mask-type:alpha" maskUnits="userSpaceOnUse" x="0" y="0" width="1440" height="456">
<rect width="1440" height="455.602" fill="#C4C4C4"/>
</mask>
<g mask="url(#mask0_70_28)">
<path d="M1879.06 -110.475C1649.4 -82.7938 1289.34 -26.7742 1472.52 150.065C1705.63 375.106 2275.26 316.152 2022.27 489.845" stroke="white" stroke-width="2.33945"/>
<path d="M1805.01 -82.2473C1575.36 -54.5662 1215.3 1.45336 1398.47 178.293C1631.58 403.334 2201.21 344.379 1948.22 518.073" stroke="white" stroke-width="2.33945"/>
<path d="M1727.67 -60.3506C1498.01 -32.6695 1137.95 23.3501 1321.12 200.19C1554.23 425.231 2123.86 366.276 1870.87 539.97" stroke="white" stroke-width="2.33945"/>
<path d="M1647.71 -45.5559C1418.05 -17.8748 1057.99 38.1448 1241.17 214.984C1474.27 440.025 2043.91 381.071 1790.91 554.764" stroke="white" stroke-width="2.33945"/>
<path d="M1566.18 -37.9341C1336.52 -10.253 976.464 45.7666 1159.64 222.606C1392.75 447.647 1962.38 388.693 1709.39 562.386" stroke="white" stroke-width="2.33945"/>
<path d="M1484.11 -36.7271C1254.45 -9.04597 894.393 46.9736 1077.57 223.813C1310.67 448.854 1880.31 389.9 1627.32 563.593" stroke="white" stroke-width="2.33945"/>
<path d="M1402.17 -40.603C1172.51 -12.9219 812.452 43.0976 995.629 219.937C1228.73 444.978 1798.37 386.024 1545.37 559.717" stroke="white" stroke-width="2.33945"/>
<path d="M1320.62 -48.0593C1090.96 -20.3782 730.902 35.6413 914.078 212.481C1147.18 437.522 1716.82 378.567 1463.82 552.261" stroke="white" stroke-width="2.33945"/>
<path d="M1239.43 -57.7183C1009.78 -30.0372 649.717 25.9824 832.893 202.822C1066 427.863 1635.63 368.909 1382.64 542.602" stroke="white" stroke-width="2.33945"/>
<path d="M1158.46 -68.4421C928.803 -40.7611 568.742 15.2585 751.919 192.098C985.024 417.139 1554.66 358.185 1301.66 531.878" stroke="white" stroke-width="2.33945"/>
<path d="M1077.52 -79.3464C847.866 -51.6654 487.806 4.35424 670.982 181.194C904.087 406.235 1473.72 347.28 1220.73 520.974" stroke="white" stroke-width="2.33945"/>
<path d="M996.487 -89.7637C766.829 -62.0826 406.769 -6.063 589.945 170.777C823.05 395.817 1392.69 336.863 1139.69 510.557" stroke="white" stroke-width="2.33945"/>
<path d="M915.261 -99.2039C685.603 -71.5228 325.543 -15.5032 508.719 161.336C741.824 386.377 1311.46 327.423 1058.47 501.116" stroke="white" stroke-width="2.33945"/>
<path d="M833.81 -107.32C604.152 -79.6392 244.092 -23.6196 427.268 153.22C660.373 378.261 1230.01 319.306 977.014 493" stroke="white" stroke-width="2.33945"/>
<path d="M752.138 -113.875C522.481 -86.1944 162.42 -30.1748 345.597 146.665C578.702 371.706 1148.34 312.751 895.342 486.445" stroke="white" stroke-width="2.33945"/>
<path d="M669.773 -118.781C440.116 -91.1002 80.0551 -35.0806 263.232 141.759C496.337 366.8 1065.97 307.846 812.977 481.539" stroke="white" stroke-width="2.33945"/>
<path d="M587.824 -122.557C358.167 -94.8763 -1.89375 -38.8567 181.283 137.983C414.388 363.024 984.023 304.069 731.029 477.763" stroke="white" stroke-width="2.33945"/>
<path d="M505.816 -125.39C276.159 -97.7091 -83.9016 -41.6895 99.2749 135.15C332.38 360.191 902.015 301.237 649.021 474.93" stroke="white" stroke-width="2.33945"/>
<path d="M423.761 -127.149C194.103 -99.4683 -165.957 -43.4487 17.2191 133.391C250.324 358.432 819.959 299.477 566.965 473.171" stroke="white" stroke-width="2.33945"/>
<path d="M341.678 -127.675C112.021 -99.9935 -248.04 -43.9739 -64.8633 132.866C168.242 357.907 737.877 298.952 484.883 472.646" stroke="white" stroke-width="2.33945"/>
<path d="M259.601 -126.757C29.9433 -99.076 -330.117 -43.0564 -146.941 133.783C86.1642 358.824 655.8 299.87 402.805 473.563" stroke="white" stroke-width="2.33945"/>
<path d="M177.582 -124.125C-52.0757 -96.4437 -412.136 -40.4241 -228.96 136.416C4.1452 361.456 573.781 302.502 320.786 476.196" stroke="white" stroke-width="2.33945"/>
<path d="M95.71 -119.409C-133.947 -91.7279 -494.008 -35.7083 -310.832 141.131C-77.7266 366.172 491.909 307.218 238.914 480.911" stroke="white" stroke-width="2.33945"/>
<path d="M14.1388 -112.093C-215.519 -84.4119 -575.579 -28.3923 -392.403 148.447C-159.298 373.488 410.338 314.534 157.343 488.227" stroke="white" stroke-width="2.33945"/>
<path d="M-66.8528 -101.43C-296.51 -73.7486 -656.571 -17.729 -473.394 159.111C-240.289 384.151 329.346 325.197 76.3516 498.891" stroke="white" stroke-width="2.33945"/>
<path d="M-146.705 -86.3542C-376.363 -58.6732 -736.423 -2.65358 -553.247 174.186C-320.142 399.227 249.493 340.273 -3.50108 513.966" stroke="white" stroke-width="2.33945"/>
</g>
</svg>
